<?xml version="1.0" encoding="utf-8" ?>
<!DOCTYPE svg PUBLIC "-//W3C//DTD SVG 1.1//EN" "http://www.w3.org/Graphics/SVG/1.1/DTD/svg11.dtd">
<svg height="611" version="1.1" width="1052" xmlns="http://www.w3.org/2000/svg">
<line fill="#000000" stroke="#000000" stroke-width="1" x1="417" x2="417" y1="63" y2="68"/>
<line fill="#000000" stroke="#000000" stroke-width="1" x1="417" x2="417" y1="73" y2="78"/>
<line fill="#000000" stroke="#000000" stroke-width="1" x1="417" x2="417" y1="83" y2="88"/>
<line fill="#000000" stroke="#000000" stroke-width="1" x1="417" x2="417" y1="93" y2="98"/>
<line fill="#000000" stroke="#000000" stroke-width="1" x1="417" x2="417" y1="103" y2="108"/>
<line fill="#000000" stroke="#000000" stroke-width="1" x1="417" x2="417" y1="113" y2="118"/>
<line fill="#000000" stroke="#000000" stroke-width="1" x1="417" x2="417" y1="123" y2="128"/>
<line fill="#000000" stroke="#000000" stroke-width="1" x1="417" x2="417" y1="133" y2="138"/>
<line fill="#000000" stroke="#000000" stroke-width="1" x1="417" x2="417" y1="143" y2="148"/>
<line fill="#000000" stroke="#000000" stroke-width="1" x1="417" x2="417" y1="153" y2="158"/>
<line fill="#000000" stroke="#000000" stroke-width="1" x1="417" x2="417" y1="163" y2="168"/>
<line fill="#000000" stroke="#000000" stroke-width="1" x1="417" x2="417" y1="173" y2="178"/>
<line fill="#000000" stroke="#000000" stroke-width="1" x1="417" x2="417" y1="183" y2="188"/>
<line fill="#000000" stroke="#000000" stroke-width="1" x1="417" x2="417" y1="193" y2="198"/>
<line fill="#000000" stroke="#000000" stroke-width="1" x1="417" x2="417" y1="203" y2="208"/>
<line fill="#000000" stroke="#000000" stroke-width="1" x1="417" x2="417" y1="213" y2="218"/>
<line fill="#000000" stroke="#000000" stroke-width="1" x1="417" x2="417" y1="223" y2="228"/>
<line fill="#000000" stroke="#000000" stroke-width="1" x1="417" x2="417" y1="233" y2="238"/>
<line fill="#000000" stroke="#000000" stroke-width="1" x1="417" x2="417" y1="243" y2="248"/>
<line fill="#000000" stroke="#000000" stroke-width="1" x1="417" x2="417" y1="253" y2="258"/>
<line fill="#000000" stroke="#000000" stroke-width="1" x1="417" x2="417" y1="263" y2="268"/>
<line fill="#000000" stroke="#000000" stroke-width="1" x1="417" x2="417" y1="273" y2="278"/>
<line fill="#000000" stroke="#000000" stroke-width="1" x1="417" x2="417" y1="283" y2="288"/>
<line fill="#000000" stroke="#000000" stroke-width="1" x1="417" x2="417" y1="293" y2="298"/>
<line fill="#000000" stroke="#000000" stroke-width="1" x1="417" x2="417" y1="303" y2="308"/>
<line fill="#000000" stroke="#000000" stroke-width="1" x1="417" x2="417" y1="313" y2="318"/>
<line fill="#000000" stroke="#000000" stroke-width="1" x1="417" x2="417" y1="323" y2="328"/>
<line fill="#000000" stroke="#000000" stroke-width="1" x1="417" x2="417" y1="333" y2="338"/>
<line fill="#000000" stroke="#000000" stroke-width="1" x1="417" x2="417" y1="343" y2="348"/>
<line fill="#000000" stroke="#000000" stroke-width="1" x1="417" x2="417" y1="353" y2="358"/>
<line fill="#000000" stroke="#000000" stroke-width="1" x1="417" x2="417" y1="363" y2="368"/>
<line fill="#000000" stroke="#000000" stroke-width="1" x1="417" x2="417" y1="373" y2="378"/>
<line fill="#000000" stroke="#000000" stroke-width="1" x1="417" x2="417" y1="383" y2="388"/>
<line fill="#000000" stroke="#000000" stroke-width="1" x1="417" x2="417" y1="393" y2="398"/>
<line fill="#000000" stroke="#000000" stroke-width="1" x1="417" x2="417" y1="403" y2="408"/>
<line fill="#000000" stroke="#000000" stroke-width="1" x1="417" x2="417" y1="413" y2="418"/>
<line fill="#000000" stroke="#000000" stroke-width="1" x1="417" x2="417" y1="423" y2="428"/>
<line fill="#000000" stroke="#000000" stroke-width="1" x1="417" x2="417" y1="433" y2="438"/>
<line fill="#000000" stroke="#000000" stroke-width="1" x1="417" x2="417" y1="443" y2="448"/>
<line fill="#000000" stroke="#000000" stroke-width="1" x1="417" x2="417" y1="453" y2="458"/>
<line fill="#000000" stroke="#000000" stroke-width="1" x1="417" x2="417" y1="463" y2="468"/>
<line fill="#000000" stroke="#000000" stroke-width="1" x1="417" x2="417" y1="473" y2="478"/>
<line fill="#000000" stroke="#000000" stroke-width="1" x1="417" x2="417" y1="483" y2="488"/>
<line fill="#000000" stroke="#000000" stroke-width="1" x1="417" x2="417" y1="493" y2="498"/>
<line fill="#000000" stroke="#000000" stroke-width="1" x1="417" x2="417" y1="503" y2="508"/>
<line fill="#000000" stroke="#000000" stroke-width="1" x1="417" x2="417" y1="513" y2="518"/>
<line fill="#000000" stroke="#000000" stroke-width="1" x1="417" x2="417" y1="523" y2="528"/>
<line fill="#000000" stroke="#000000" stroke-width="1" x1="417" x2="417" y1="533" y2="538"/>
<line fill="#000000" stroke="#000000" stroke-width="1" x1="417" x2="417" y1="543" y2="548"/>
<line fill="#000000" stroke="#000000" stroke-width="1" x1="417" x2="417" y1="553" y2="558"/>
<line fill="#000000" stroke="#000000" stroke-width="1" x1="417" x2="417" y1="563" y2="568"/>
<line fill="#000000" stroke="#000000" stroke-width="1" x1="417" x2="417" y1="573" y2="578"/>
<line fill="#000000" stroke="#000000" stroke-width="1" x1="417" x2="417" y1="583" y2="588"/>
<line fill="#000000" stroke="#000000" stroke-width="1" x1="417" x2="417" y1="593" y2="596"/>
<rect fill="#ffffff" height="464" stroke="#ffffff" stroke-width="1" width="20" x="407" y="94"/>
<rect fill="none" height="464" stroke="#000000" stroke-width="1" width="20" x="407" y="94"/>
<rect fill="#ffffff" height="50" stroke="#ffffff" stroke-width="1" width="150" x="342" y="14"/>
<rect fill="none" height="50" stroke="#000000" stroke-width="1" width="150" x="342" y="14"/>
<text font-family="Dialog" font-size="12" x="360" y="28">
:FXPreviewController</text>
<line fill="#000000" stroke="#000000" stroke-width="1" x1="593" x2="593" y1="63" y2="68"/>
<line fill="#000000" stroke="#000000" stroke-width="1" x1="593" x2="593" y1="73" y2="78"/>
<line fill="#000000" stroke="#000000" stroke-width="1" x1="593" x2="593" y1="83" y2="88"/>
<line fill="#000000" stroke="#000000" stroke-width="1" x1="593" x2="593" y1="93" y2="98"/>
<line fill="#000000" stroke="#000000" stroke-width="1" x1="593" x2="593" y1="103" y2="108"/>
<line fill="#000000" stroke="#000000" stroke-width="1" x1="593" x2="593" y1="113" y2="118"/>
<line fill="#000000" stroke="#000000" stroke-width="1" x1="593" x2="593" y1="123" y2="128"/>
<line fill="#000000" stroke="#000000" stroke-width="1" x1="593" x2="593" y1="133" y2="138"/>
<line fill="#000000" stroke="#000000" stroke-width="1" x1="593" x2="593" y1="143" y2="148"/>
<line fill="#000000" stroke="#000000" stroke-width="1" x1="593" x2="593" y1="153" y2="158"/>
<line fill="#000000" stroke="#000000" stroke-width="1" x1="593" x2="593" y1="163" y2="168"/>
<line fill="#000000" stroke="#000000" stroke-width="1" x1="593" x2="593" y1="173" y2="178"/>
<line fill="#000000" stroke="#000000" stroke-width="1" x1="593" x2="593" y1="183" y2="188"/>
<line fill="#000000" stroke="#000000" stroke-width="1" x1="593" x2="593" y1="193" y2="198"/>
<line fill="#000000" stroke="#000000" stroke-width="1" x1="593" x2="593" y1="203" y2="208"/>
<line fill="#000000" stroke="#000000" stroke-width="1" x1="593" x2="593" y1="213" y2="218"/>
<line fill="#000000" stroke="#000000" stroke-width="1" x1="593" x2="593" y1="223" y2="228"/>
<line fill="#000000" stroke="#000000" stroke-width="1" x1="593" x2="593" y1="233" y2="238"/>
<line fill="#000000" stroke="#000000" stroke-width="1" x1="593" x2="593" y1="243" y2="248"/>
<line fill="#000000" stroke="#000000" stroke-width="1" x1="593" x2="593" y1="253" y2="258"/>
<line fill="#000000" stroke="#000000" stroke-width="1" x1="593" x2="593" y1="263" y2="268"/>
<line fill="#000000" stroke="#000000" stroke-width="1" x1="593" x2="593" y1="273" y2="278"/>
<line fill="#000000" stroke="#000000" stroke-width="1" x1="593" x2="593" y1="283" y2="288"/>
<line fill="#000000" stroke="#000000" stroke-width="1" x1="593" x2="593" y1="293" y2="298"/>
<line fill="#000000" stroke="#000000" stroke-width="1" x1="593" x2="593" y1="303" y2="308"/>
<line fill="#000000" stroke="#000000" stroke-width="1" x1="593" x2="593" y1="313" y2="318"/>
<line fill="#000000" stroke="#000000" stroke-width="1" x1="593" x2="593" y1="323" y2="328"/>
<line fill="#000000" stroke="#000000" stroke-width="1" x1="593" x2="593" y1="333" y2="338"/>
<line fill="#000000" stroke="#000000" stroke-width="1" x1="593" x2="593" y1="343" y2="348"/>
<line fill="#000000" stroke="#000000" stroke-width="1" x1="593" x2="593" y1="353" y2="358"/>
<line fill="#000000" stroke="#000000" stroke-width="1" x1="593" x2="593" y1="363" y2="368"/>
<line fill="#000000" stroke="#000000" stroke-width="1" x1="593" x2="593" y1="373" y2="378"/>
<line fill="#000000" stroke="#000000" stroke-width="1" x1="593" x2="593" y1="383" y2="388"/>
<line fill="#000000" stroke="#000000" stroke-width="1" x1="593" x2="593" y1="393" y2="398"/>
<line fill="#000000" stroke="#000000" stroke-width="1" x1="593" x2="593" y1="403" y2="408"/>
<line fill="#000000" stroke="#000000" stroke-width="1" x1="593" x2="593" y1="413" y2="418"/>
<line fill="#000000" stroke="#000000" stroke-width="1" x1="593" x2="593" y1="423" y2="428"/>
<line fill="#000000" stroke="#000000" stroke-width="1" x1="593" x2="593" y1="433" y2="438"/>
<line fill="#000000" stroke="#000000" stroke-width="1" x1="593" x2="593" y1="443" y2="448"/>
<line fill="#000000" stroke="#000000" stroke-width="1" x1="593" x2="593" y1="453" y2="458"/>
<line fill="#000000" stroke="#000000" stroke-width="1" x1="593" x2="593" y1="463" y2="468"/>
<line fill="#000000" stroke="#000000" stroke-width="1" x1="593" x2="593" y1="473" y2="478"/>
<line fill="#000000" stroke="#000000" stroke-width="1" x1="593" x2="593" y1="483" y2="488"/>
<line fill="#000000" stroke="#000000" stroke-width="1" x1="593" x2="593" y1="493" y2="498"/>
<line fill="#000000" stroke="#000000" stroke-width="1" x1="593" x2="593" y1="503" y2="508"/>
<line fill="#000000" stroke="#000000" stroke-width="1" x1="593" x2="593" y1="513" y2="518"/>
<line fill="#000000" stroke="#000000" stroke-width="1" x1="593" x2="593" y1="523" y2="528"/>
<line fill="#000000" stroke="#000000" stroke-width="1" x1="593" x2="593" y1="533" y2="538"/>
<line fill="#000000" stroke="#000000" stroke-width="1" x1="593" x2="593" y1="543" y2="548"/>
<line fill="#000000" stroke="#000000" stroke-width="1" x1="593" x2="593" y1="553" y2="558"/>
<line fill="#000000" stroke="#000000" stroke-width="1" x1="593" x2="593" y1="563" y2="568"/>
<line fill="#000000" stroke="#000000" stroke-width="1" x1="593" x2="593" y1="573" y2="578"/>
<line fill="#000000" stroke="#000000" stroke-width="1" x1="593" x2="593" y1="583" y2="586"/>
<rect fill="#ffffff" height="48" stroke="#ffffff" stroke-width="1" width="20" x="583" y="126"/>
<rect fill="none" height="48" stroke="#000000" stroke-width="1" width="20" x="583" y="126"/>
<rect fill="#ffffff" height="50" stroke="#ffffff" stroke-width="1" width="150" x="518" y="14"/>
<rect fill="none" height="50" stroke="#000000" stroke-width="1" width="150" x="518" y="14"/>
<text font-family="Dialog" font-size="12" x="548" y="28">
:SuperController</text>
<line fill="#000000" stroke="#000000" stroke-width="1" x1="769" x2="769" y1="63" y2="68"/>
<line fill="#000000" stroke="#000000" stroke-width="1" x1="769" x2="769" y1="73" y2="78"/>
<line fill="#000000" stroke="#000000" stroke-width="1" x1="769" x2="769" y1="83" y2="88"/>
<line fill="#000000" stroke="#000000" stroke-width="1" x1="769" x2="769" y1="93" y2="98"/>
<line fill="#000000" stroke="#000000" stroke-width="1" x1="769" x2="769" y1="103" y2="108"/>
<line fill="#000000" stroke="#000000" stroke-width="1" x1="769" x2="769" y1="113" y2="118"/>
<line fill="#000000" stroke="#000000" stroke-width="1" x1="769" x2="769" y1="123" y2="128"/>
<line fill="#000000" stroke="#000000" stroke-width="1" x1="769" x2="769" y1="133" y2="138"/>
<line fill="#000000" stroke="#000000" stroke-width="1" x1="769" x2="769" y1="143" y2="148"/>
<line fill="#000000" stroke="#000000" stroke-width="1" x1="769" x2="769" y1="153" y2="158"/>
<line fill="#000000" stroke="#000000" stroke-width="1" x1="769" x2="769" y1="163" y2="168"/>
<line fill="#000000" stroke="#000000" stroke-width="1" x1="769" x2="769" y1="173" y2="178"/>
<line fill="#000000" stroke="#000000" stroke-width="1" x1="769" x2="769" y1="183" y2="188"/>
<line fill="#000000" stroke="#000000" stroke-width="1" x1="769" x2="769" y1="193" y2="198"/>
<line fill="#000000" stroke="#000000" stroke-width="1" x1="769" x2="769" y1="203" y2="208"/>
<line fill="#000000" stroke="#000000" stroke-width="1" x1="769" x2="769" y1="213" y2="218"/>
<line fill="#000000" stroke="#000000" stroke-width="1" x1="769" x2="769" y1="223" y2="228"/>
<line fill="#000000" stroke="#000000" stroke-width="1" x1="769" x2="769" y1="233" y2="238"/>
<line fill="#000000" stroke="#000000" stroke-width="1" x1="769" x2="769" y1="243" y2="248"/>
<line fill="#000000" stroke="#000000" stroke-width="1" x1="769" x2="769" y1="253" y2="258"/>
<line fill="#000000" stroke="#000000" stroke-width="1" x1="769" x2="769" y1="263" y2="268"/>
<line fill="#000000" stroke="#000000" stroke-width="1" x1="769" x2="769" y1="273" y2="278"/>
<line fill="#000000" stroke="#000000" stroke-width="1" x1="769" x2="769" y1="283" y2="288"/>
<line fill="#000000" stroke="#000000" stroke-width="1" x1="769" x2="769" y1="293" y2="298"/>
<line fill="#000000" stroke="#000000" stroke-width="1" x1="769" x2="769" y1="303" y2="308"/>
<line fill="#000000" stroke="#000000" stroke-width="1" x1="769" x2="769" y1="313" y2="318"/>
<line fill="#000000" stroke="#000000" stroke-width="1" x1="769" x2="769" y1="323" y2="328"/>
<line fill="#000000" stroke="#000000" stroke-width="1" x1="769" x2="769" y1="333" y2="338"/>
<line fill="#000000" stroke="#000000" stroke-width="1" x1="769" x2="769" y1="343" y2="348"/>
<line fill="#000000" stroke="#000000" stroke-width="1" x1="769" x2="769" y1="353" y2="358"/>
<line fill="#000000" stroke="#000000" stroke-width="1" x1="769" x2="769" y1="363" y2="368"/>
<line fill="#000000" stroke="#000000" stroke-width="1" x1="769" x2="769" y1="373" y2="378"/>
<line fill="#000000" stroke="#000000" stroke-width="1" x1="769" x2="769" y1="383" y2="388"/>
<line fill="#000000" stroke="#000000" stroke-width="1" x1="769" x2="769" y1="393" y2="398"/>
<line fill="#000000" stroke="#000000" stroke-width="1" x1="769" x2="769" y1="403" y2="408"/>
<line fill="#000000" stroke="#000000" stroke-width="1" x1="769" x2="769" y1="413" y2="418"/>
<line fill="#000000" stroke="#000000" stroke-width="1" x1="769" x2="769" y1="423" y2="428"/>
<line fill="#000000" stroke="#000000" stroke-width="1" x1="769" x2="769" y1="433" y2="438"/>
<line fill="#000000" stroke="#000000" stroke-width="1" x1="769" x2="769" y1="443" y2="448"/>
<line fill="#000000" stroke="#000000" stroke-width="1" x1="769" x2="769" y1="453" y2="458"/>
<line fill="#000000" stroke="#000000" stroke-width="1" x1="769" x2="769" y1="463" y2="468"/>
<line fill="#000000" stroke="#000000" stroke-width="1" x1="769" x2="769" y1="473" y2="478"/>
<line fill="#000000" stroke="#000000" stroke-width="1" x1="769" x2="769" y1="483" y2="488"/>
<line fill="#000000" stroke="#000000" stroke-width="1" x1="769" x2="769" y1="493" y2="498"/>
<line fill="#000000" stroke="#000000" stroke-width="1" x1="769" x2="769" y1="503" y2="508"/>
<line fill="#000000" stroke="#000000" stroke-width="1" x1="769" x2="769" y1="513" y2="518"/>
<line fill="#000000" stroke="#000000" stroke-width="1" x1="769" x2="769" y1="523" y2="528"/>
<line fill="#000000" stroke="#000000" stroke-width="1" x1="769" x2="769" y1="533" y2="538"/>
<line fill="#000000" stroke="#000000" stroke-width="1" x1="769" x2="769" y1="543" y2="548"/>
<line fill="#000000" stroke="#000000" stroke-width="1" x1="769" x2="769" y1="553" y2="558"/>
<line fill="#000000" stroke="#000000" stroke-width="1" x1="769" x2="769" y1="563" y2="568"/>
<line fill="#000000" stroke="#000000" stroke-width="1" x1="769" x2="769" y1="573" y2="578"/>
<line fill="#000000" stroke="#000000" stroke-width="1" x1="769" x2="769" y1="583" y2="586"/>
<rect fill="#ffffff" height="80" stroke="#ffffff" stroke-width="1" width="20" x="759" y="254"/>
<rect fill="none" height="80" stroke="#000000" stroke-width="1" width="20" x="759" y="254"/>
<rect fill="#ffffff" height="50" stroke="#ffffff" stroke-width="1" width="150" x="694" y="14"/>
<rect fill="none" height="50" stroke="#000000" stroke-width="1" width="150" x="694" y="14"/>
<text font-family="Dialog" font-size="12" x="723" y="28">
:FilterControllers</text>
<line fill="#000000" stroke="#000000" stroke-width="1" x1="961" x2="961" y1="63" y2="68"/>
<line fill="#000000" stroke="#000000" stroke-width="1" x1="961" x2="961" y1="73" y2="78"/>
<line fill="#000000" stroke="#000000" stroke-width="1" x1="961" x2="961" y1="83" y2="88"/>
<line fill="#000000" stroke="#000000" stroke-width="1" x1="961" x2="961" y1="93" y2="98"/>
<line fill="#000000" stroke="#000000" stroke-width="1" x1="961" x2="961" y1="103" y2="108"/>
<line fill="#000000" stroke="#000000" stroke-width="1" x1="961" x2="961" y1="113" y2="118"/>
<line fill="#000000" stroke="#000000" stroke-width="1" x1="961" x2="961" y1="123" y2="128"/>
<line fill="#000000" stroke="#000000" stroke-width="1" x1="961" x2="961" y1="133" y2="138"/>
<line fill="#000000" stroke="#000000" stroke-width="1" x1="961" x2="961" y1="143" y2="148"/>
<line fill="#000000" stroke="#000000" stroke-width="1" x1="961" x2="961" y1="153" y2="158"/>
<line fill="#000000" stroke="#000000" stroke-width="1" x1="961" x2="961" y1="163" y2="168"/>
<line fill="#000000" stroke="#000000" stroke-width="1" x1="961" x2="961" y1="173" y2="178"/>
<line fill="#000000" stroke="#000000" stroke-width="1" x1="961" x2="961" y1="183" y2="188"/>
<line fill="#000000" stroke="#000000" stroke-width="1" x1="961" x2="961" y1="193" y2="198"/>
<line fill="#000000" stroke="#000000" stroke-width="1" x1="961" x2="961" y1="203" y2="208"/>
<line fill="#000000" stroke="#000000" stroke-width="1" x1="961" x2="961" y1="213" y2="218"/>
<line fill="#000000" stroke="#000000" stroke-width="1" x1="961" x2="961" y1="223" y2="228"/>
<line fill="#000000" stroke="#000000" stroke-width="1" x1="961" x2="961" y1="233" y2="238"/>
<line fill="#000000" stroke="#000000" stroke-width="1" x1="961" x2="961" y1="243" y2="248"/>
<line fill="#000000" stroke="#000000" stroke-width="1" x1="961" x2="961" y1="253" y2="258"/>
<line fill="#000000" stroke="#000000" stroke-width="1" x1="961" x2="961" y1="263" y2="268"/>
<line fill="#000000" stroke="#000000" stroke-width="1" x1="961" x2="961" y1="273" y2="278"/>
<line fill="#000000" stroke="#000000" stroke-width="1" x1="961" x2="961" y1="283" y2="288"/>
<line fill="#000000" stroke="#000000" stroke-width="1" x1="961" x2="961" y1="293" y2="298"/>
<line fill="#000000" stroke="#000000" stroke-width="1" x1="961" x2="961" y1="303" y2="308"/>
<line fill="#000000" stroke="#000000" stroke-width="1" x1="961" x2="961" y1="313" y2="318"/>
<line fill="#000000" stroke="#000000" stroke-width="1" x1="961" x2="961" y1="323" y2="328"/>
<line fill="#000000" stroke="#000000" stroke-width="1" x1="961" x2="961" y1="333" y2="338"/>
<line fill="#000000" stroke="#000000" stroke-width="1" x1="961" x2="961" y1="343" y2="348"/>
<line fill="#000000" stroke="#000000" stroke-width="1" x1="961" x2="961" y1="353" y2="358"/>
<line fill="#000000" stroke="#000000" stroke-width="1" x1="961" x2="961" y1="363" y2="368"/>
<line fill="#000000" stroke="#000000" stroke-width="1" x1="961" x2="961" y1="373" y2="378"/>
<line fill="#000000" stroke="#000000" stroke-width="1" x1="961" x2="961" y1="383" y2="388"/>
<line fill="#000000" stroke="#000000" stroke-width="1" x1="961" x2="961" y1="393" y2="398"/>
<line fill="#000000" stroke="#000000" stroke-width="1" x1="961" x2="961" y1="403" y2="408"/>
<line fill="#000000" stroke="#000000" stroke-width="1" x1="961" x2="961" y1="413" y2="418"/>
<line fill="#000000" stroke="#000000" stroke-width="1" x1="961" x2="961" y1="423" y2="428"/>
<line fill="#000000" stroke="#000000" stroke-width="1" x1="961" x2="961" y1="433" y2="438"/>
<line fill="#000000" stroke="#000000" stroke-width="1" x1="961" x2="961" y1="443" y2="448"/>
<line fill="#000000" stroke="#000000" stroke-width="1" x1="961" x2="961" y1="453" y2="458"/>
<line fill="#000000" stroke="#000000" stroke-width="1" x1="961" x2="961" y1="463" y2="468"/>
<line fill="#000000" stroke="#000000" stroke-width="1" x1="961" x2="961" y1="473" y2="478"/>
<line fill="#000000" stroke="#000000" stroke-width="1" x1="961" x2="961" y1="483" y2="488"/>
<line fill="#000000" stroke="#000000" stroke-width="1" x1="961" x2="961" y1="493" y2="498"/>
<line fill="#000000" stroke="#000000" stroke-width="1" x1="961" x2="961" y1="503" y2="508"/>
<line fill="#000000" stroke="#000000" stroke-width="1" x1="961" x2="961" y1="513" y2="518"/>
<line fill="#000000" stroke="#000000" stroke-width="1" x1="961" x2="961" y1="523" y2="528"/>
<line fill="#000000" stroke="#000000" stroke-width="1" x1="961" x2="961" y1="533" y2="538"/>
<line fill="#000000" stroke="#000000" stroke-width="1" x1="961" x2="961" y1="543" y2="548"/>
<line fill="#000000" stroke="#000000" stroke-width="1" x1="961" x2="961" y1="553" y2="558"/>
<line fill="#000000" stroke="#000000" stroke-width="1" x1="961" x2="961" y1="563" y2="568"/>
<line fill="#000000" stroke="#000000" stroke-width="1" x1="961" x2="961" y1="573" y2="578"/>
<line fill="#000000" stroke="#000000" stroke-width="1" x1="961" x2="961" y1="583" y2="584"/>
<rect fill="#ffffff" height="48" stroke="#ffffff" stroke-width="1" width="20" x="951" y="398"/>
<rect fill="none" height="48" stroke="#000000" stroke-width="1" width="20" x="951" y="398"/>
<rect fill="#ffffff" height="48" stroke="#ffffff" stroke-width="1" width="20" x="951" y="486"/>
<rect fill="none" height="48" stroke="#000000" stroke-width="1" width="20" x="951" y="486"/>
<rect fill="#ffffff" height="50" stroke="#ffffff" stroke-width="1" width="150" x="886" y="14"/>
<rect fill="none" height="50" stroke="#000000" stroke-width="1" width="150" x="886" y="14"/>
<text font-family="Dialog" font-size="12" x="922" y="28">
:GraphDrawer</text>
<line fill="#000000" stroke="#000000" stroke-width="1" x1="89" x2="89" y1="63" y2="68"/>
<line fill="#000000" stroke="#000000" stroke-width="1" x1="89" x2="89" y1="73" y2="78"/>
<line fill="#000000" stroke="#000000" stroke-width="1" x1="89" x2="89" y1="83" y2="88"/>
<line fill="#000000" stroke="#000000" stroke-width="1" x1="89" x2="89" y1="93" y2="98"/>
<line fill="#000000" stroke="#000000" stroke-width="1" x1="89" x2="89" y1="103" y2="108"/>
<line fill="#000000" stroke="#000000" stroke-width="1" x1="89" x2="89" y1="113" y2="118"/>
<line fill="#000000" stroke="#000000" stroke-width="1" x1="89" x2="89" y1="123" y2="128"/>
<line fill="#000000" stroke="#000000" stroke-width="1" x1="89" x2="89" y1="133" y2="138"/>
<line fill="#000000" stroke="#000000" stroke-width="1" x1="89" x2="89" y1="143" y2="148"/>
<line fill="#000000" stroke="#000000" stroke-width="1" x1="89" x2="89" y1="153" y2="158"/>
<line fill="#000000" stroke="#000000" stroke-width="1" x1="89" x2="89" y1="163" y2="168"/>
<line fill="#000000" stroke="#000000" stroke-width="1" x1="89" x2="89" y1="173" y2="178"/>
<line fill="#000000" stroke="#000000" stroke-width="1" x1="89" x2="89" y1="183" y2="188"/>
<line fill="#000000" stroke="#000000" stroke-width="1" x1="89" x2="89" y1="193" y2="198"/>
<line fill="#000000" stroke="#000000" stroke-width="1" x1="89" x2="89" y1="203" y2="208"/>
<line fill="#000000" stroke="#000000" stroke-width="1" x1="89" x2="89" y1="213" y2="218"/>
<line fill="#000000" stroke="#000000" stroke-width="1" x1="89" x2="89" y1="223" y2="228"/>
<line fill="#000000" stroke="#000000" stroke-width="1" x1="89" x2="89" y1="233" y2="238"/>
<line fill="#000000" stroke="#000000" stroke-width="1" x1="89" x2="89" y1="243" y2="248"/>
<line fill="#000000" stroke="#000000" stroke-width="1" x1="89" x2="89" y1="253" y2="258"/>
<line fill="#000000" stroke="#000000" stroke-width="1" x1="89" x2="89" y1="263" y2="268"/>
<line fill="#000000" stroke="#000000" stroke-width="1" x1="89" x2="89" y1="273" y2="278"/>
<line fill="#000000" stroke="#000000" stroke-width="1" x1="89" x2="89" y1="283" y2="288"/>
<line fill="#000000" stroke="#000000" stroke-width="1" x1="89" x2="89" y1="293" y2="298"/>
<line fill="#000000" stroke="#000000" stroke-width="1" x1="89" x2="89" y1="303" y2="308"/>
<line fill="#000000" stroke="#000000" stroke-width="1" x1="89" x2="89" y1="313" y2="318"/>
<line fill="#000000" stroke="#000000" stroke-width="1" x1="89" x2="89" y1="323" y2="328"/>
<line fill="#000000" stroke="#000000" stroke-width="1" x1="89" x2="89" y1="333" y2="338"/>
<line fill="#000000" stroke="#000000" stroke-width="1" x1="89" x2="89" y1="343" y2="348"/>
<line fill="#000000" stroke="#000000" stroke-width="1" x1="89" x2="89" y1="353" y2="358"/>
<line fill="#000000" stroke="#000000" stroke-width="1" x1="89" x2="89" y1="363" y2="368"/>
<line fill="#000000" stroke="#000000" stroke-width="1" x1="89" x2="89" y1="373" y2="378"/>
<line fill="#000000" stroke="#000000" stroke-width="1" x1="89" x2="89" y1="383" y2="388"/>
<line fill="#000000" stroke="#000000" stroke-width="1" x1="89" x2="89" y1="393" y2="398"/>
<line fill="#000000" stroke="#000000" stroke-width="1" x1="89" x2="89" y1="403" y2="408"/>
<line fill="#000000" stroke="#000000" stroke-width="1" x1="89" x2="89" y1="413" y2="418"/>
<line fill="#000000" stroke="#000000" stroke-width="1" x1="89" x2="89" y1="423" y2="428"/>
<line fill="#000000" stroke="#000000" stroke-width="1" x1="89" x2="89" y1="433" y2="438"/>
<line fill="#000000" stroke="#000000" stroke-width="1" x1="89" x2="89" y1="443" y2="448"/>
<line fill="#000000" stroke="#000000" stroke-width="1" x1="89" x2="89" y1="453" y2="458"/>
<line fill="#000000" stroke="#000000" stroke-width="1" x1="89" x2="89" y1="463" y2="468"/>
<line fill="#000000" stroke="#000000" stroke-width="1" x1="89" x2="89" y1="473" y2="478"/>
<line fill="#000000" stroke="#000000" stroke-width="1" x1="89" x2="89" y1="483" y2="488"/>
<line fill="#000000" stroke="#000000" stroke-width="1" x1="89" x2="89" y1="493" y2="498"/>
<line fill="#000000" stroke="#000000" stroke-width="1" x1="89" x2="89" y1="503" y2="508"/>
<line fill="#000000" stroke="#000000" stroke-width="1" x1="89" x2="89" y1="513" y2="518"/>
<line fill="#000000" stroke="#000000" stroke-width="1" x1="89" x2="89" y1="523" y2="528"/>
<line fill="#000000" stroke="#000000" stroke-width="1" x1="89" x2="89" y1="533" y2="538"/>
<line fill="#000000" stroke="#000000" stroke-width="1" x1="89" x2="89" y1="543" y2="548"/>
<line fill="#000000" stroke="#000000" stroke-width="1" x1="89" x2="89" y1="553" y2="558"/>
<line fill="#000000" stroke="#000000" stroke-width="1" x1="89" x2="89" y1="563" y2="568"/>
<line fill="#000000" stroke="#000000" stroke-width="1" x1="89" x2="89" y1="573" y2="578"/>
<line fill="#000000" stroke="#000000" stroke-width="1" x1="89" x2="89" y1="583" y2="586"/>
<rect fill="#ffffff" height="523" stroke="#ffffff" stroke-width="1" width="20" x="79" y="63"/>
<rect fill="none" height="523" stroke="#000000" stroke-width="1" width="20" x="79" y="63"/>
<rect fill="#ffffff" height="50" stroke="#ffffff" stroke-width="1" width="150" x="14" y="14"/>
<rect fill="none" height="50" stroke="#000000" stroke-width="1" width="150" x="14" y="14"/>
<text font-family="Dialog" font-size="12" x="49" y="28">
/FXFramework</text>
<polyline fill="none" points="99,94 407,94" stroke="#000000" stroke-width="1"/>
<polygon fill="#000000" points="407,94 395,101 395,87" stroke="#000000" stroke-width="1"/>
<polygon fill="none" points="407,94 395,101 395,87" stroke="#000000" stroke-width="1"/>
<text font-family="Dialog" font-size="12" x="212" y="89">
filter</text>
<polyline fill="none" points="427,254 759,254" stroke="#000000" stroke-width="1"/>
<polygon fill="#000000" points="759,254 747,261 747,247" stroke="#000000" stroke-width="1"/>
<polygon fill="none" points="759,254 747,261 747,247" stroke="#000000" stroke-width="1"/>
<text font-family="Dialog" font-size="12" x="549" y="249">
filter( )</text>
<polyline fill="none" points="427,398 951,398" stroke="#000000" stroke-width="1"/>
<polygon fill="#000000" points="951,398 939,405 939,391" stroke="#000000" stroke-width="1"/>
<polygon fill="none" points="951,398 939,405 939,391" stroke="#000000" stroke-width="1"/>
<text font-family="Dialog" font-size="12" x="645" y="393">
create( visualGraph)</text>
<rect fill="none" height="176" stroke="#000000" stroke-width="1" width="688" x="350" y="190"/>
<polygon fill="#ffffff" points="366,198 461,198 471,208 471,237 366,237 366,198" stroke="#ffffff" stroke-width="1"/>
<polyline fill="none" points="366,198 461,198 471,208 471,237 366,237 366,198" stroke="#000000" stroke-width="1"/>
<polygon fill="#ffffff" points="461,198 471,208 461,208 461,198" stroke="#ffffff" stroke-width="1"/>
<polyline fill="none" points="461,198 471,208 461,208 461,198" stroke="#000000" stroke-width="1"/>
<text font-family="Dialog" font-size="12" x="369" y="214">
loop</text>
<text font-family="Dialog" font-size="12" x="369" y="230">
[all VisualGraph]</text>
<line fill="#000000" stroke="#000000" stroke-width="1" x1="759" x2="754" y1="334" y2="334"/>
<line fill="#000000" stroke="#000000" stroke-width="1" x1="749" x2="744" y1="334" y2="334"/>
<line fill="#000000" stroke="#000000" stroke-width="1" x1="739" x2="734" y1="334" y2="334"/>
<line fill="#000000" stroke="#000000" stroke-width="1" x1="729" x2="724" y1="334" y2="334"/>
<line fill="#000000" stroke="#000000" stroke-width="1" x1="719" x2="714" y1="334" y2="334"/>
<line fill="#000000" stroke="#000000" stroke-width="1" x1="709" x2="704" y1="334" y2="334"/>
<line fill="#000000" stroke="#000000" stroke-width="1" x1="699" x2="694" y1="334" y2="334"/>
<line fill="#000000" stroke="#000000" stroke-width="1" x1="689" x2="684" y1="334" y2="334"/>
<line fill="#000000" stroke="#000000" stroke-width="1" x1="679" x2="674" y1="334" y2="334"/>
<line fill="#000000" stroke="#000000" stroke-width="1" x1="669" x2="664" y1="334" y2="334"/>
<line fill="#000000" stroke="#000000" stroke-width="1" x1="659" x2="654" y1="334" y2="334"/>
<line fill="#000000" stroke="#000000" stroke-width="1" x1="649" x2="644" y1="334" y2="334"/>
<line fill="#000000" stroke="#000000" stroke-width="1" x1="639" x2="634" y1="334" y2="334"/>
<line fill="#000000" stroke="#000000" stroke-width="1" x1="629" x2="624" y1="334" y2="334"/>
<line fill="#000000" stroke="#000000" stroke-width="1" x1="619" x2="614" y1="334" y2="334"/>
<line fill="#000000" stroke="#000000" stroke-width="1" x1="609" x2="604" y1="334" y2="334"/>
<line fill="#000000" stroke="#000000" stroke-width="1" x1="599" x2="594" y1="334" y2="334"/>
<line fill="#000000" stroke="#000000" stroke-width="1" x1="589" x2="584" y1="334" y2="334"/>
<line fill="#000000" stroke="#000000" stroke-width="1" x1="579" x2="574" y1="334" y2="334"/>
<line fill="#000000" stroke="#000000" stroke-width="1" x1="569" x2="564" y1="334" y2="334"/>
<line fill="#000000" stroke="#000000" stroke-width="1" x1="559" x2="554" y1="334" y2="334"/>
<line fill="#000000" stroke="#000000" stroke-width="1" x1="549" x2="544" y1="334" y2="334"/>
<line fill="#000000" stroke="#000000" stroke-width="1" x1="539" x2="534" y1="334" y2="334"/>
<line fill="#000000" stroke="#000000" stroke-width="1" x1="529" x2="524" y1="334" y2="334"/>
<line fill="#000000" stroke="#000000" stroke-width="1" x1="519" x2="514" y1="334" y2="334"/>
<line fill="#000000" stroke="#000000" stroke-width="1" x1="509" x2="504" y1="334" y2="334"/>
<line fill="#000000" stroke="#000000" stroke-width="1" x1="499" x2="494" y1="334" y2="334"/>
<line fill="#000000" stroke="#000000" stroke-width="1" x1="489" x2="484" y1="334" y2="334"/>
<line fill="#000000" stroke="#000000" stroke-width="1" x1="479" x2="474" y1="334" y2="334"/>
<line fill="#000000" stroke="#000000" stroke-width="1" x1="469" x2="464" y1="334" y2="334"/>
<line fill="#000000" stroke="#000000" stroke-width="1" x1="459" x2="454" y1="334" y2="334"/>
<line fill="#000000" stroke="#000000" stroke-width="1" x1="449" x2="444" y1="334" y2="334"/>
<line fill="#000000" stroke="#000000" stroke-width="1" x1="439" x2="434" y1="334" y2="334"/>
<line fill="#000000" stroke="#000000" stroke-width="1" x1="429" x2="427" y1="334" y2="334"/>
<line fill="#000000" stroke="#000000" stroke-width="1" x1="439" x2="427" y1="327" y2="334"/>
<line fill="#000000" stroke="#000000" stroke-width="1" x1="439" x2="427" y1="341" y2="334"/>
<text font-family="Dialog" font-size="12" x="549" y="329">
List&lt;VisualGraph&gt;</text>
<line fill="#000000" stroke="#000000" stroke-width="1" x1="951" x2="946" y1="446" y2="446"/>
<line fill="#000000" stroke="#000000" stroke-width="1" x1="941" x2="936" y1="446" y2="446"/>
<line fill="#000000" stroke="#000000" stroke-width="1" x1="931" x2="926" y1="446" y2="446"/>
<line fill="#000000" stroke="#000000" stroke-width="1" x1="921" x2="916" y1="446" y2="446"/>
<line fill="#000000" stroke="#000000" stroke-width="1" x1="911" x2="906" y1="446" y2="446"/>
<line fill="#000000" stroke="#000000" stroke-width="1" x1="901" x2="896" y1="446" y2="446"/>
<line fill="#000000" stroke="#000000" stroke-width="1" x1="891" x2="886" y1="446" y2="446"/>
<line fill="#000000" stroke="#000000" stroke-width="1" x1="881" x2="876" y1="446" y2="446"/>
<line fill="#000000" stroke="#000000" stroke-width="1" x1="871" x2="866" y1="446" y2="446"/>
<line fill="#000000" stroke="#000000" stroke-width="1" x1="861" x2="856" y1="446" y2="446"/>
<line fill="#000000" stroke="#000000" stroke-width="1" x1="851" x2="846" y1="446" y2="446"/>
<line fill="#000000" stroke="#000000" stroke-width="1" x1="841" x2="836" y1="446" y2="446"/>
<line fill="#000000" stroke="#000000" stroke-width="1" x1="831" x2="826" y1="446" y2="446"/>
<line fill="#000000" stroke="#000000" stroke-width="1" x1="821" x2="816" y1="446" y2="446"/>
<line fill="#000000" stroke="#000000" stroke-width="1" x1="811" x2="806" y1="446" y2="446"/>
<line fill="#000000" stroke="#000000" stroke-width="1" x1="801" x2="796" y1="446" y2="446"/>
<line fill="#000000" stroke="#000000" stroke-width="1" x1="791" x2="786" y1="446" y2="446"/>
<line fill="#000000" stroke="#000000" stroke-width="1" x1="781" x2="776" y1="446" y2="446"/>
<line fill="#000000" stroke="#000000" stroke-width="1" x1="771" x2="766" y1="446" y2="446"/>
<line fill="#000000" stroke="#000000" stroke-width="1" x1="761" x2="756" y1="446" y2="446"/>
<line fill="#000000" stroke="#000000" stroke-width="1" x1="751" x2="746" y1="446" y2="446"/>
<line fill="#000000" stroke="#000000" stroke-width="1" x1="741" x2="736" y1="446" y2="446"/>
<line fill="#000000" stroke="#000000" stroke-width="1" x1="731" x2="726" y1="446" y2="446"/>
<line fill="#000000" stroke="#000000" stroke-width="1" x1="721" x2="716" y1="446" y2="446"/>
<line fill="#000000" stroke="#000000" stroke-width="1" x1="711" x2="706" y1="446" y2="446"/>
<line fill="#000000" stroke="#000000" stroke-width="1" x1="701" x2="696" y1="446" y2="446"/>
<line fill="#000000" stroke="#000000" stroke-width="1" x1="691" x2="686" y1="446" y2="446"/>
<line fill="#000000" stroke="#000000" stroke-width="1" x1="681" x2="676" y1="446" y2="446"/>
<line fill="#000000" stroke="#000000" stroke-width="1" x1="671" x2="666" y1="446" y2="446"/>
<line fill="#000000" stroke="#000000" stroke-width="1" x1="661" x2="656" y1="446" y2="446"/>
<line fill="#000000" stroke="#000000" stroke-width="1" x1="651" x2="646" y1="446" y2="446"/>
<line fill="#000000" stroke="#000000" stroke-width="1" x1="641" x2="636" y1="446" y2="446"/>
<line fill="#000000" stroke="#000000" stroke-width="1" x1="631" x2="626" y1="446" y2="446"/>
<line fill="#000000" stroke="#000000" stroke-width="1" x1="621" x2="616" y1="446" y2="446"/>
<line fill="#000000" stroke="#000000" stroke-width="1" x1="611" x2="606" y1="446" y2="446"/>
<line fill="#000000" stroke="#000000" stroke-width="1" x1="601" x2="596" y1="446" y2="446"/>
<line fill="#000000" stroke="#000000" stroke-width="1" x1="591" x2="586" y1="446" y2="446"/>
<line fill="#000000" stroke="#000000" stroke-width="1" x1="581" x2="576" y1="446" y2="446"/>
<line fill="#000000" stroke="#000000" stroke-width="1" x1="571" x2="566" y1="446" y2="446"/>
<line fill="#000000" stroke="#000000" stroke-width="1" x1="561" x2="556" y1="446" y2="446"/>
<line fill="#000000" stroke="#000000" stroke-width="1" x1="551" x2="546" y1="446" y2="446"/>
<line fill="#000000" stroke="#000000" stroke-width="1" x1="541" x2="536" y1="446" y2="446"/>
<line fill="#000000" stroke="#000000" stroke-width="1" x1="531" x2="526" y1="446" y2="446"/>
<line fill="#000000" stroke="#000000" stroke-width="1" x1="521" x2="516" y1="446" y2="446"/>
<line fill="#000000" stroke="#000000" stroke-width="1" x1="511" x2="506" y1="446" y2="446"/>
<line fill="#000000" stroke="#000000" stroke-width="1" x1="501" x2="496" y1="446" y2="446"/>
<line fill="#000000" stroke="#000000" stroke-width="1" x1="491" x2="486" y1="446" y2="446"/>
<line fill="#000000" stroke="#000000" stroke-width="1" x1="481" x2="476" y1="446" y2="446"/>
<line fill="#000000" stroke="#000000" stroke-width="1" x1="471" x2="466" y1="446" y2="446"/>
<line fill="#000000" stroke="#000000" stroke-width="1" x1="461" x2="456" y1="446" y2="446"/>
<line fill="#000000" stroke="#000000" stroke-width="1" x1="451" x2="446" y1="446" y2="446"/>
<line fill="#000000" stroke="#000000" stroke-width="1" x1="441" x2="436" y1="446" y2="446"/>
<line fill="#000000" stroke="#000000" stroke-width="1" x1="431" x2="427" y1="446" y2="446"/>
<line fill="#000000" stroke="#000000" stroke-width="1" x1="439" x2="427" y1="439" y2="446"/>
<line fill="#000000" stroke="#000000" stroke-width="1" x1="439" x2="427" y1="453" y2="446"/>
<line fill="#000000" stroke="#000000" stroke-width="1" x1="407" x2="412" y1="558" y2="558"/>
<line fill="#000000" stroke="#000000" stroke-width="1" x1="414" x2="409" y1="558" y2="558"/>
<line fill="#000000" stroke="#000000" stroke-width="1" x1="404" x2="399" y1="558" y2="558"/>
<line fill="#000000" stroke="#000000" stroke-width="1" x1="394" x2="389" y1="558" y2="558"/>
<line fill="#000000" stroke="#000000" stroke-width="1" x1="384" x2="379" y1="558" y2="558"/>
<line fill="#000000" stroke="#000000" stroke-width="1" x1="374" x2="369" y1="558" y2="558"/>
<line fill="#000000" stroke="#000000" stroke-width="1" x1="364" x2="359" y1="558" y2="558"/>
<line fill="#000000" stroke="#000000" stroke-width="1" x1="354" x2="349" y1="558" y2="558"/>
<line fill="#000000" stroke="#000000" stroke-width="1" x1="344" x2="339" y1="558" y2="558"/>
<line fill="#000000" stroke="#000000" stroke-width="1" x1="334" x2="329" y1="558" y2="558"/>
<line fill="#000000" stroke="#000000" stroke-width="1" x1="324" x2="319" y1="558" y2="558"/>
<line fill="#000000" stroke="#000000" stroke-width="1" x1="314" x2="309" y1="558" y2="558"/>
<line fill="#000000" stroke="#000000" stroke-width="1" x1="304" x2="299" y1="558" y2="558"/>
<line fill="#000000" stroke="#000000" stroke-width="1" x1="294" x2="289" y1="558" y2="558"/>
<line fill="#000000" stroke="#000000" stroke-width="1" x1="284" x2="279" y1="558" y2="558"/>
<line fill="#000000" stroke="#000000" stroke-width="1" x1="274" x2="269" y1="558" y2="558"/>
<line fill="#000000" stroke="#000000" stroke-width="1" x1="264" x2="259" y1="558" y2="558"/>
<line fill="#000000" stroke="#000000" stroke-width="1" x1="254" x2="249" y1="558" y2="558"/>
<line fill="#000000" stroke="#000000" stroke-width="1" x1="244" x2="239" y1="558" y2="558"/>
<line fill="#000000" stroke="#000000" stroke-width="1" x1="234" x2="229" y1="558" y2="558"/>
<line fill="#000000" stroke="#000000" stroke-width="1" x1="224" x2="219" y1="558" y2="558"/>
<line fill="#000000" stroke="#000000" stroke-width="1" x1="214" x2="209" y1="558" y2="558"/>
<line fill="#000000" stroke="#000000" stroke-width="1" x1="204" x2="199" y1="558" y2="558"/>
<line fill="#000000" stroke="#000000" stroke-width="1" x1="194" x2="189" y1="558" y2="558"/>
<line fill="#000000" stroke="#000000" stroke-width="1" x1="184" x2="179" y1="558" y2="558"/>
<line fill="#000000" stroke="#000000" stroke-width="1" x1="174" x2="169" y1="558" y2="558"/>
<line fill="#000000" stroke="#000000" stroke-width="1" x1="164" x2="159" y1="558" y2="558"/>
<line fill="#000000" stroke="#000000" stroke-width="1" x1="154" x2="149" y1="558" y2="558"/>
<line fill="#000000" stroke="#000000" stroke-width="1" x1="144" x2="139" y1="558" y2="558"/>
<line fill="#000000" stroke="#000000" stroke-width="1" x1="134" x2="129" y1="558" y2="558"/>
<line fill="#000000" stroke="#000000" stroke-width="1" x1="124" x2="119" y1="558" y2="558"/>
<line fill="#000000" stroke="#000000" stroke-width="1" x1="114" x2="109" y1="558" y2="558"/>
<line fill="#000000" stroke="#000000" stroke-width="1" x1="104" x2="99" y1="558" y2="558"/>
<line fill="#000000" stroke="#000000" stroke-width="1" x1="111" x2="99" y1="551" y2="558"/>
<line fill="#000000" stroke="#000000" stroke-width="1" x1="111" x2="99" y1="565" y2="558"/>
<polyline fill="none" points="427,126 583,126" stroke="#000000" stroke-width="1"/>
<polygon fill="#000000" points="583,126 571,133 571,119" stroke="#000000" stroke-width="1"/>
<polygon fill="none" points="583,126 571,133 571,119" stroke="#000000" stroke-width="1"/>
<text font-family="Dialog" font-size="12" x="460" y="121">
getFilterController()</text>
<line fill="#000000" stroke="#000000" stroke-width="1" x1="583" x2="578" y1="174" y2="174"/>
<line fill="#000000" stroke="#000000" stroke-width="1" x1="573" x2="568" y1="174" y2="174"/>
<line fill="#000000" stroke="#000000" stroke-width="1" x1="563" x2="558" y1="174" y2="174"/>
<line fill="#000000" stroke="#000000" stroke-width="1" x1="553" x2="548" y1="174" y2="174"/>
<line fill="#000000" stroke="#000000" stroke-width="1" x1="543" x2="538" y1="174" y2="174"/>
<line fill="#000000" stroke="#000000" stroke-width="1" x1="533" x2="528" y1="174" y2="174"/>
<line fill="#000000" stroke="#000000" stroke-width="1" x1="523" x2="518" y1="174" y2="174"/>
<line fill="#000000" stroke="#000000" stroke-width="1" x1="513" x2="508" y1="174" y2="174"/>
<line fill="#000000" stroke="#000000" stroke-width="1" x1="503" x2="498" y1="174" y2="174"/>
<line fill="#000000" stroke="#000000" stroke-width="1" x1="493" x2="488" y1="174" y2="174"/>
<line fill="#000000" stroke="#000000" stroke-width="1" x1="483" x2="478" y1="174" y2="174"/>
<line fill="#000000" stroke="#000000" stroke-width="1" x1="473" x2="468" y1="174" y2="174"/>
<line fill="#000000" stroke="#000000" stroke-width="1" x1="463" x2="458" y1="174" y2="174"/>
<line fill="#000000" stroke="#000000" stroke-width="1" x1="453" x2="448" y1="174" y2="174"/>
<line fill="#000000" stroke="#000000" stroke-width="1" x1="443" x2="438" y1="174" y2="174"/>
<line fill="#000000" stroke="#000000" stroke-width="1" x1="433" x2="428" y1="174" y2="174"/>
<line fill="#000000" stroke="#000000" stroke-width="1" x1="439" x2="427" y1="167" y2="174"/>
<line fill="#000000" stroke="#000000" stroke-width="1" x1="439" x2="427" y1="181" y2="174"/>
<text font-family="Dialog" font-size="12" x="460" y="169">
FilterController</text>
<polyline fill="none" points="427,486 951,486" stroke="#000000" stroke-width="1"/>
<polygon fill="#000000" points="951,486 939,493 939,479" stroke="#000000" stroke-width="1"/>
<polygon fill="none" points="951,486 939,493 939,479" stroke="#000000" stroke-width="1"/>
<text font-family="Dialog" font-size="12" x="645" y="481">
draw( )</text>
<line fill="#000000" stroke="#000000" stroke-width="1" x1="951" x2="946" y1="534" y2="534"/>
<line fill="#000000" stroke="#000000" stroke-width="1" x1="941" x2="936" y1="534" y2="534"/>
<line fill="#000000" stroke="#000000" stroke-width="1" x1="931" x2="926" y1="534" y2="534"/>
<line fill="#000000" stroke="#000000" stroke-width="1" x1="921" x2="916" y1="534" y2="534"/>
<line fill="#000000" stroke="#000000" stroke-width="1" x1="911" x2="906" y1="534" y2="534"/>
<line fill="#000000" stroke="#000000" stroke-width="1" x1="901" x2="896" y1="534" y2="534"/>
<line fill="#000000" stroke="#000000" stroke-width="1" x1="891" x2="886" y1="534" y2="534"/>
<line fill="#000000" stroke="#000000" stroke-width="1" x1="881" x2="876" y1="534" y2="534"/>
<line fill="#000000" stroke="#000000" stroke-width="1" x1="871" x2="866" y1="534" y2="534"/>
<line fill="#000000" stroke="#000000" stroke-width="1" x1="861" x2="856" y1="534" y2="534"/>
<line fill="#000000" stroke="#000000" stroke-width="1" x1="851" x2="846" y1="534" y2="534"/>
<line fill="#000000" stroke="#000000" stroke-width="1" x1="841" x2="836" y1="534" y2="534"/>
<line fill="#000000" stroke="#000000" stroke-width="1" x1="831" x2="826" y1="534" y2="534"/>
<line fill="#000000" stroke="#000000" stroke-width="1" x1="821" x2="816" y1="534" y2="534"/>
<line fill="#000000" stroke="#000000" stroke-width="1" x1="811" x2="806" y1="534" y2="534"/>
<line fill="#000000" stroke="#000000" stroke-width="1" x1="801" x2="796" y1="534" y2="534"/>
<line fill="#000000" stroke="#000000" stroke-width="1" x1="791" x2="786" y1="534" y2="534"/>
<line fill="#000000" stroke="#000000" stroke-width="1" x1="781" x2="776" y1="534" y2="534"/>
<line fill="#000000" stroke="#000000" stroke-width="1" x1="771" x2="766" y1="534" y2="534"/>
<line fill="#000000" stroke="#000000" stroke-width="1" x1="761" x2="756" y1="534" y2="534"/>
<line fill="#000000" stroke="#000000" stroke-width="1" x1="751" x2="746" y1="534" y2="534"/>
<line fill="#000000" stroke="#000000" stroke-width="1" x1="741" x2="736" y1="534" y2="534"/>
<line fill="#000000" stroke="#000000" stroke-width="1" x1="731" x2="726" y1="534" y2="534"/>
<line fill="#000000" stroke="#000000" stroke-width="1" x1="721" x2="716" y1="534" y2="534"/>
<line fill="#000000" stroke="#000000" stroke-width="1" x1="711" x2="706" y1="534" y2="534"/>
<line fill="#000000" stroke="#000000" stroke-width="1" x1="701" x2="696" y1="534" y2="534"/>
<line fill="#000000" stroke="#000000" stroke-width="1" x1="691" x2="686" y1="534" y2="534"/>
<line fill="#000000" stroke="#000000" stroke-width="1" x1="681" x2="676" y1="534" y2="534"/>
<line fill="#000000" stroke="#000000" stroke-width="1" x1="671" x2="666" y1="534" y2="534"/>
<line fill="#000000" stroke="#000000" stroke-width="1" x1="661" x2="656" y1="534" y2="534"/>
<line fill="#000000" stroke="#000000" stroke-width="1" x1="651" x2="646" y1="534" y2="534"/>
<line fill="#000000" stroke="#000000" stroke-width="1" x1="641" x2="636" y1="534" y2="534"/>
<line fill="#000000" stroke="#000000" stroke-width="1" x1="631" x2="626" y1="534" y2="534"/>
<line fill="#000000" stroke="#000000" stroke-width="1" x1="621" x2="616" y1="534" y2="534"/>
<line fill="#000000" stroke="#000000" stroke-width="1" x1="611" x2="606" y1="534" y2="534"/>
<line fill="#000000" stroke="#000000" stroke-width="1" x1="601" x2="596" y1="534" y2="534"/>
<line fill="#000000" stroke="#000000" stroke-width="1" x1="591" x2="586" y1="534" y2="534"/>
<line fill="#000000" stroke="#000000" stroke-width="1" x1="581" x2="576" y1="534" y2="534"/>
<line fill="#000000" stroke="#000000" stroke-width="1" x1="571" x2="566" y1="534" y2="534"/>
<line fill="#000000" stroke="#000000" stroke-width="1" x1="561" x2="556" y1="534" y2="534"/>
<line fill="#000000" stroke="#000000" stroke-width="1" x1="551" x2="546" y1="534" y2="534"/>
<line fill="#000000" stroke="#000000" stroke-width="1" x1="541" x2="536" y1="534" y2="534"/>
<line fill="#000000" stroke="#000000" stroke-width="1" x1="531" x2="526" y1="534" y2="534"/>
<line fill="#000000" stroke="#000000" stroke-width="1" x1="521" x2="516" y1="534" y2="534"/>
<line fill="#000000" stroke="#000000" stroke-width="1" x1="511" x2="506" y1="534" y2="534"/>
<line fill="#000000" stroke="#000000" stroke-width="1" x1="501" x2="496" y1="534" y2="534"/>
<line fill="#000000" stroke="#000000" stroke-width="1" x1="491" x2="486" y1="534" y2="534"/>
<line fill="#000000" stroke="#000000" stroke-width="1" x1="481" x2="476" y1="534" y2="534"/>
<line fill="#000000" stroke="#000000" stroke-width="1" x1="471" x2="466" y1="534" y2="534"/>
<line fill="#000000" stroke="#000000" stroke-width="1" x1="461" x2="456" y1="534" y2="534"/>
<line fill="#000000" stroke="#000000" stroke-width="1" x1="451" x2="446" y1="534" y2="534"/>
<line fill="#000000" stroke="#000000" stroke-width="1" x1="441" x2="436" y1="534" y2="534"/>
<line fill="#000000" stroke="#000000" stroke-width="1" x1="431" x2="427" y1="534" y2="534"/>
<line fill="#000000" stroke="#000000" stroke-width="1" x1="439" x2="427" y1="527" y2="534"/>
<line fill="#000000" stroke="#000000" stroke-width="1" x1="439" x2="427" y1="541" y2="534"/>
</svg>
