<?xml version="1.0" encoding="utf-8" ?>
<!DOCTYPE svg PUBLIC "-//W3C//DTD SVG 1.1//EN" "http://www.w3.org/Graphics/SVG/1.1/DTD/svg11.dtd">
<svg height="440" version="1.1" width="887" xmlns="http://www.w3.org/2000/svg">
<line fill="#000000" stroke="#000000" stroke-width="1" x1="414" x2="414" y1="63" y2="68"/>
<line fill="#000000" stroke="#000000" stroke-width="1" x1="414" x2="414" y1="73" y2="78"/>
<line fill="#000000" stroke="#000000" stroke-width="1" x1="414" x2="414" y1="83" y2="88"/>
<line fill="#000000" stroke="#000000" stroke-width="1" x1="414" x2="414" y1="93" y2="98"/>
<line fill="#000000" stroke="#000000" stroke-width="1" x1="414" x2="414" y1="103" y2="108"/>
<line fill="#000000" stroke="#000000" stroke-width="1" x1="414" x2="414" y1="113" y2="118"/>
<line fill="#000000" stroke="#000000" stroke-width="1" x1="414" x2="414" y1="123" y2="128"/>
<line fill="#000000" stroke="#000000" stroke-width="1" x1="414" x2="414" y1="133" y2="138"/>
<line fill="#000000" stroke="#000000" stroke-width="1" x1="414" x2="414" y1="143" y2="148"/>
<line fill="#000000" stroke="#000000" stroke-width="1" x1="414" x2="414" y1="153" y2="158"/>
<line fill="#000000" stroke="#000000" stroke-width="1" x1="414" x2="414" y1="163" y2="168"/>
<line fill="#000000" stroke="#000000" stroke-width="1" x1="414" x2="414" y1="173" y2="178"/>
<line fill="#000000" stroke="#000000" stroke-width="1" x1="414" x2="414" y1="183" y2="188"/>
<line fill="#000000" stroke="#000000" stroke-width="1" x1="414" x2="414" y1="193" y2="198"/>
<line fill="#000000" stroke="#000000" stroke-width="1" x1="414" x2="414" y1="203" y2="208"/>
<line fill="#000000" stroke="#000000" stroke-width="1" x1="414" x2="414" y1="213" y2="218"/>
<line fill="#000000" stroke="#000000" stroke-width="1" x1="414" x2="414" y1="223" y2="228"/>
<line fill="#000000" stroke="#000000" stroke-width="1" x1="414" x2="414" y1="233" y2="238"/>
<line fill="#000000" stroke="#000000" stroke-width="1" x1="414" x2="414" y1="243" y2="248"/>
<line fill="#000000" stroke="#000000" stroke-width="1" x1="414" x2="414" y1="253" y2="258"/>
<line fill="#000000" stroke="#000000" stroke-width="1" x1="414" x2="414" y1="263" y2="268"/>
<line fill="#000000" stroke="#000000" stroke-width="1" x1="414" x2="414" y1="273" y2="278"/>
<line fill="#000000" stroke="#000000" stroke-width="1" x1="414" x2="414" y1="283" y2="288"/>
<line fill="#000000" stroke="#000000" stroke-width="1" x1="414" x2="414" y1="293" y2="298"/>
<line fill="#000000" stroke="#000000" stroke-width="1" x1="414" x2="414" y1="303" y2="308"/>
<line fill="#000000" stroke="#000000" stroke-width="1" x1="414" x2="414" y1="313" y2="318"/>
<line fill="#000000" stroke="#000000" stroke-width="1" x1="414" x2="414" y1="323" y2="328"/>
<line fill="#000000" stroke="#000000" stroke-width="1" x1="414" x2="414" y1="333" y2="338"/>
<line fill="#000000" stroke="#000000" stroke-width="1" x1="414" x2="414" y1="343" y2="348"/>
<line fill="#000000" stroke="#000000" stroke-width="1" x1="414" x2="414" y1="353" y2="358"/>
<line fill="#000000" stroke="#000000" stroke-width="1" x1="414" x2="414" y1="363" y2="368"/>
<line fill="#000000" stroke="#000000" stroke-width="1" x1="414" x2="414" y1="373" y2="378"/>
<line fill="#000000" stroke="#000000" stroke-width="1" x1="414" x2="414" y1="383" y2="388"/>
<line fill="#000000" stroke="#000000" stroke-width="1" x1="414" x2="414" y1="393" y2="398"/>
<line fill="#000000" stroke="#000000" stroke-width="1" x1="414" x2="414" y1="403" y2="408"/>
<line fill="#000000" stroke="#000000" stroke-width="1" x1="414" x2="414" y1="413" y2="418"/>
<line fill="#000000" stroke="#000000" stroke-width="1" x1="414" x2="414" y1="423" y2="425"/>
<rect fill="#ffffff" height="304" stroke="#ffffff" stroke-width="1" width="20" x="404" y="94"/>
<rect fill="none" height="304" stroke="#000000" stroke-width="1" width="20" x="404" y="94"/>
<rect fill="#ffffff" height="50" stroke="#ffffff" stroke-width="1" width="144" x="342" y="14"/>
<rect fill="none" height="50" stroke="#000000" stroke-width="1" width="144" x="342" y="14"/>
<text font-family="Dialog" font-size="12" x="357" y="28">
:FXPreviewController</text>
<line fill="#000000" stroke="#000000" stroke-width="1" x1="593" x2="593" y1="63" y2="68"/>
<line fill="#000000" stroke="#000000" stroke-width="1" x1="593" x2="593" y1="73" y2="78"/>
<line fill="#000000" stroke="#000000" stroke-width="1" x1="593" x2="593" y1="83" y2="88"/>
<line fill="#000000" stroke="#000000" stroke-width="1" x1="593" x2="593" y1="93" y2="98"/>
<line fill="#000000" stroke="#000000" stroke-width="1" x1="593" x2="593" y1="103" y2="108"/>
<line fill="#000000" stroke="#000000" stroke-width="1" x1="593" x2="593" y1="113" y2="118"/>
<line fill="#000000" stroke="#000000" stroke-width="1" x1="593" x2="593" y1="123" y2="128"/>
<line fill="#000000" stroke="#000000" stroke-width="1" x1="593" x2="593" y1="133" y2="138"/>
<line fill="#000000" stroke="#000000" stroke-width="1" x1="593" x2="593" y1="143" y2="148"/>
<line fill="#000000" stroke="#000000" stroke-width="1" x1="593" x2="593" y1="153" y2="158"/>
<line fill="#000000" stroke="#000000" stroke-width="1" x1="593" x2="593" y1="163" y2="168"/>
<line fill="#000000" stroke="#000000" stroke-width="1" x1="593" x2="593" y1="173" y2="178"/>
<line fill="#000000" stroke="#000000" stroke-width="1" x1="593" x2="593" y1="183" y2="188"/>
<line fill="#000000" stroke="#000000" stroke-width="1" x1="593" x2="593" y1="193" y2="198"/>
<line fill="#000000" stroke="#000000" stroke-width="1" x1="593" x2="593" y1="203" y2="208"/>
<line fill="#000000" stroke="#000000" stroke-width="1" x1="593" x2="593" y1="213" y2="218"/>
<line fill="#000000" stroke="#000000" stroke-width="1" x1="593" x2="593" y1="223" y2="228"/>
<line fill="#000000" stroke="#000000" stroke-width="1" x1="593" x2="593" y1="233" y2="238"/>
<line fill="#000000" stroke="#000000" stroke-width="1" x1="593" x2="593" y1="243" y2="248"/>
<line fill="#000000" stroke="#000000" stroke-width="1" x1="593" x2="593" y1="253" y2="258"/>
<line fill="#000000" stroke="#000000" stroke-width="1" x1="593" x2="593" y1="263" y2="268"/>
<line fill="#000000" stroke="#000000" stroke-width="1" x1="593" x2="593" y1="273" y2="278"/>
<line fill="#000000" stroke="#000000" stroke-width="1" x1="593" x2="593" y1="283" y2="288"/>
<line fill="#000000" stroke="#000000" stroke-width="1" x1="593" x2="593" y1="293" y2="298"/>
<line fill="#000000" stroke="#000000" stroke-width="1" x1="593" x2="593" y1="303" y2="308"/>
<line fill="#000000" stroke="#000000" stroke-width="1" x1="593" x2="593" y1="313" y2="318"/>
<line fill="#000000" stroke="#000000" stroke-width="1" x1="593" x2="593" y1="323" y2="328"/>
<line fill="#000000" stroke="#000000" stroke-width="1" x1="593" x2="593" y1="333" y2="338"/>
<line fill="#000000" stroke="#000000" stroke-width="1" x1="593" x2="593" y1="343" y2="348"/>
<line fill="#000000" stroke="#000000" stroke-width="1" x1="593" x2="593" y1="353" y2="358"/>
<line fill="#000000" stroke="#000000" stroke-width="1" x1="593" x2="593" y1="363" y2="368"/>
<line fill="#000000" stroke="#000000" stroke-width="1" x1="593" x2="593" y1="373" y2="378"/>
<line fill="#000000" stroke="#000000" stroke-width="1" x1="593" x2="593" y1="383" y2="388"/>
<line fill="#000000" stroke="#000000" stroke-width="1" x1="593" x2="593" y1="393" y2="398"/>
<line fill="#000000" stroke="#000000" stroke-width="1" x1="593" x2="593" y1="403" y2="408"/>
<line fill="#000000" stroke="#000000" stroke-width="1" x1="593" x2="593" y1="413" y2="418"/>
<line fill="#000000" stroke="#000000" stroke-width="1" x1="593" x2="593" y1="423" y2="425"/>
<rect fill="#ffffff" height="48" stroke="#ffffff" stroke-width="1" width="20" x="583" y="126"/>
<rect fill="none" height="48" stroke="#000000" stroke-width="1" width="20" x="583" y="126"/>
<rect fill="#ffffff" height="50" stroke="#ffffff" stroke-width="1" width="150" x="518" y="14"/>
<rect fill="none" height="50" stroke="#000000" stroke-width="1" width="150" x="518" y="14"/>
<text font-family="Dialog" font-size="12" x="548" y="28">
:SuperController</text>
<line fill="#000000" stroke="#000000" stroke-width="1" x1="783" x2="783" y1="63" y2="68"/>
<line fill="#000000" stroke="#000000" stroke-width="1" x1="783" x2="783" y1="73" y2="78"/>
<line fill="#000000" stroke="#000000" stroke-width="1" x1="783" x2="783" y1="83" y2="88"/>
<line fill="#000000" stroke="#000000" stroke-width="1" x1="783" x2="783" y1="93" y2="98"/>
<line fill="#000000" stroke="#000000" stroke-width="1" x1="783" x2="783" y1="103" y2="108"/>
<line fill="#000000" stroke="#000000" stroke-width="1" x1="783" x2="783" y1="113" y2="118"/>
<line fill="#000000" stroke="#000000" stroke-width="1" x1="783" x2="783" y1="123" y2="128"/>
<line fill="#000000" stroke="#000000" stroke-width="1" x1="783" x2="783" y1="133" y2="138"/>
<line fill="#000000" stroke="#000000" stroke-width="1" x1="783" x2="783" y1="143" y2="148"/>
<line fill="#000000" stroke="#000000" stroke-width="1" x1="783" x2="783" y1="153" y2="158"/>
<line fill="#000000" stroke="#000000" stroke-width="1" x1="783" x2="783" y1="163" y2="168"/>
<line fill="#000000" stroke="#000000" stroke-width="1" x1="783" x2="783" y1="173" y2="178"/>
<line fill="#000000" stroke="#000000" stroke-width="1" x1="783" x2="783" y1="183" y2="188"/>
<line fill="#000000" stroke="#000000" stroke-width="1" x1="783" x2="783" y1="193" y2="198"/>
<line fill="#000000" stroke="#000000" stroke-width="1" x1="783" x2="783" y1="203" y2="208"/>
<line fill="#000000" stroke="#000000" stroke-width="1" x1="783" x2="783" y1="213" y2="218"/>
<line fill="#000000" stroke="#000000" stroke-width="1" x1="783" x2="783" y1="223" y2="228"/>
<line fill="#000000" stroke="#000000" stroke-width="1" x1="783" x2="783" y1="233" y2="238"/>
<line fill="#000000" stroke="#000000" stroke-width="1" x1="783" x2="783" y1="243" y2="248"/>
<line fill="#000000" stroke="#000000" stroke-width="1" x1="783" x2="783" y1="253" y2="258"/>
<line fill="#000000" stroke="#000000" stroke-width="1" x1="783" x2="783" y1="263" y2="268"/>
<line fill="#000000" stroke="#000000" stroke-width="1" x1="783" x2="783" y1="273" y2="278"/>
<line fill="#000000" stroke="#000000" stroke-width="1" x1="783" x2="783" y1="283" y2="288"/>
<line fill="#000000" stroke="#000000" stroke-width="1" x1="783" x2="783" y1="293" y2="298"/>
<line fill="#000000" stroke="#000000" stroke-width="1" x1="783" x2="783" y1="303" y2="308"/>
<line fill="#000000" stroke="#000000" stroke-width="1" x1="783" x2="783" y1="313" y2="318"/>
<line fill="#000000" stroke="#000000" stroke-width="1" x1="783" x2="783" y1="323" y2="328"/>
<line fill="#000000" stroke="#000000" stroke-width="1" x1="783" x2="783" y1="333" y2="338"/>
<line fill="#000000" stroke="#000000" stroke-width="1" x1="783" x2="783" y1="343" y2="348"/>
<line fill="#000000" stroke="#000000" stroke-width="1" x1="783" x2="783" y1="353" y2="358"/>
<line fill="#000000" stroke="#000000" stroke-width="1" x1="783" x2="783" y1="363" y2="368"/>
<line fill="#000000" stroke="#000000" stroke-width="1" x1="783" x2="783" y1="373" y2="378"/>
<line fill="#000000" stroke="#000000" stroke-width="1" x1="783" x2="783" y1="383" y2="388"/>
<line fill="#000000" stroke="#000000" stroke-width="1" x1="783" x2="783" y1="393" y2="398"/>
<line fill="#000000" stroke="#000000" stroke-width="1" x1="783" x2="783" y1="403" y2="408"/>
<line fill="#000000" stroke="#000000" stroke-width="1" x1="783" x2="783" y1="413" y2="418"/>
<rect fill="#ffffff" height="80" stroke="#ffffff" stroke-width="1" width="20" x="773" y="254"/>
<rect fill="none" height="80" stroke="#000000" stroke-width="1" width="20" x="773" y="254"/>
<rect fill="#ffffff" height="50" stroke="#ffffff" stroke-width="1" width="179" x="694" y="14"/>
<rect fill="none" height="50" stroke="#000000" stroke-width="1" width="179" x="694" y="14"/>
<text font-family="Dialog" font-size="12" x="741" y="28">
:FilterController</text>
<line fill="#000000" stroke="#000000" stroke-width="1" x1="90" x2="90" y1="63" y2="68"/>
<line fill="#000000" stroke="#000000" stroke-width="1" x1="90" x2="90" y1="73" y2="78"/>
<line fill="#000000" stroke="#000000" stroke-width="1" x1="90" x2="90" y1="83" y2="88"/>
<line fill="#000000" stroke="#000000" stroke-width="1" x1="90" x2="90" y1="93" y2="98"/>
<line fill="#000000" stroke="#000000" stroke-width="1" x1="90" x2="90" y1="103" y2="108"/>
<line fill="#000000" stroke="#000000" stroke-width="1" x1="90" x2="90" y1="113" y2="118"/>
<line fill="#000000" stroke="#000000" stroke-width="1" x1="90" x2="90" y1="123" y2="128"/>
<line fill="#000000" stroke="#000000" stroke-width="1" x1="90" x2="90" y1="133" y2="138"/>
<line fill="#000000" stroke="#000000" stroke-width="1" x1="90" x2="90" y1="143" y2="148"/>
<line fill="#000000" stroke="#000000" stroke-width="1" x1="90" x2="90" y1="153" y2="158"/>
<line fill="#000000" stroke="#000000" stroke-width="1" x1="90" x2="90" y1="163" y2="168"/>
<line fill="#000000" stroke="#000000" stroke-width="1" x1="90" x2="90" y1="173" y2="178"/>
<line fill="#000000" stroke="#000000" stroke-width="1" x1="90" x2="90" y1="183" y2="188"/>
<line fill="#000000" stroke="#000000" stroke-width="1" x1="90" x2="90" y1="193" y2="198"/>
<line fill="#000000" stroke="#000000" stroke-width="1" x1="90" x2="90" y1="203" y2="208"/>
<line fill="#000000" stroke="#000000" stroke-width="1" x1="90" x2="90" y1="213" y2="218"/>
<line fill="#000000" stroke="#000000" stroke-width="1" x1="90" x2="90" y1="223" y2="228"/>
<line fill="#000000" stroke="#000000" stroke-width="1" x1="90" x2="90" y1="233" y2="238"/>
<line fill="#000000" stroke="#000000" stroke-width="1" x1="90" x2="90" y1="243" y2="248"/>
<line fill="#000000" stroke="#000000" stroke-width="1" x1="90" x2="90" y1="253" y2="258"/>
<line fill="#000000" stroke="#000000" stroke-width="1" x1="90" x2="90" y1="263" y2="268"/>
<line fill="#000000" stroke="#000000" stroke-width="1" x1="90" x2="90" y1="273" y2="278"/>
<line fill="#000000" stroke="#000000" stroke-width="1" x1="90" x2="90" y1="283" y2="288"/>
<line fill="#000000" stroke="#000000" stroke-width="1" x1="90" x2="90" y1="293" y2="298"/>
<line fill="#000000" stroke="#000000" stroke-width="1" x1="90" x2="90" y1="303" y2="308"/>
<line fill="#000000" stroke="#000000" stroke-width="1" x1="90" x2="90" y1="313" y2="318"/>
<line fill="#000000" stroke="#000000" stroke-width="1" x1="90" x2="90" y1="323" y2="328"/>
<line fill="#000000" stroke="#000000" stroke-width="1" x1="90" x2="90" y1="333" y2="338"/>
<line fill="#000000" stroke="#000000" stroke-width="1" x1="90" x2="90" y1="343" y2="348"/>
<line fill="#000000" stroke="#000000" stroke-width="1" x1="90" x2="90" y1="353" y2="358"/>
<line fill="#000000" stroke="#000000" stroke-width="1" x1="90" x2="90" y1="363" y2="368"/>
<line fill="#000000" stroke="#000000" stroke-width="1" x1="90" x2="90" y1="373" y2="378"/>
<line fill="#000000" stroke="#000000" stroke-width="1" x1="90" x2="90" y1="383" y2="388"/>
<line fill="#000000" stroke="#000000" stroke-width="1" x1="90" x2="90" y1="393" y2="398"/>
<line fill="#000000" stroke="#000000" stroke-width="1" x1="90" x2="90" y1="403" y2="408"/>
<line fill="#000000" stroke="#000000" stroke-width="1" x1="90" x2="90" y1="413" y2="418"/>
<line fill="#000000" stroke="#000000" stroke-width="1" x1="90" x2="90" y1="423" y2="425"/>
<rect fill="#ffffff" height="362" stroke="#ffffff" stroke-width="1" width="20" x="80" y="63"/>
<rect fill="none" height="362" stroke="#000000" stroke-width="1" width="20" x="80" y="63"/>
<rect fill="#ffffff" height="50" stroke="#ffffff" stroke-width="1" width="152" x="14" y="14"/>
<rect fill="none" height="50" stroke="#000000" stroke-width="1" width="152" x="14" y="14"/>
<text font-family="Dialog" font-size="12" x="50" y="28">
/FXFramework</text>
<polyline fill="none" points="100,94 404,94" stroke="#000000" stroke-width="1"/>
<polygon fill="#000000" points="404,94 392,101 392,87" stroke="#000000" stroke-width="1"/>
<polygon fill="none" points="404,94 392,101 392,87" stroke="#000000" stroke-width="1"/>
<text font-family="Dialog" font-size="12" x="211" y="89">
filter</text>
<polyline fill="none" points="424,254 773,254" stroke="#000000" stroke-width="1"/>
<polygon fill="#000000" points="773,254 761,261 761,247" stroke="#000000" stroke-width="1"/>
<polygon fill="none" points="773,254 761,261 761,247" stroke="#000000" stroke-width="1"/>
<text font-family="Dialog" font-size="12" x="554" y="249">
filter( )</text>
<line fill="#000000" stroke="#000000" stroke-width="1" x1="773" x2="768" y1="334" y2="334"/>
<line fill="#000000" stroke="#000000" stroke-width="1" x1="763" x2="758" y1="334" y2="334"/>
<line fill="#000000" stroke="#000000" stroke-width="1" x1="753" x2="748" y1="334" y2="334"/>
<line fill="#000000" stroke="#000000" stroke-width="1" x1="743" x2="738" y1="334" y2="334"/>
<line fill="#000000" stroke="#000000" stroke-width="1" x1="733" x2="728" y1="334" y2="334"/>
<line fill="#000000" stroke="#000000" stroke-width="1" x1="723" x2="718" y1="334" y2="334"/>
<line fill="#000000" stroke="#000000" stroke-width="1" x1="713" x2="708" y1="334" y2="334"/>
<line fill="#000000" stroke="#000000" stroke-width="1" x1="703" x2="698" y1="334" y2="334"/>
<line fill="#000000" stroke="#000000" stroke-width="1" x1="693" x2="688" y1="334" y2="334"/>
<line fill="#000000" stroke="#000000" stroke-width="1" x1="683" x2="678" y1="334" y2="334"/>
<line fill="#000000" stroke="#000000" stroke-width="1" x1="673" x2="668" y1="334" y2="334"/>
<line fill="#000000" stroke="#000000" stroke-width="1" x1="663" x2="658" y1="334" y2="334"/>
<line fill="#000000" stroke="#000000" stroke-width="1" x1="653" x2="648" y1="334" y2="334"/>
<line fill="#000000" stroke="#000000" stroke-width="1" x1="643" x2="638" y1="334" y2="334"/>
<line fill="#000000" stroke="#000000" stroke-width="1" x1="633" x2="628" y1="334" y2="334"/>
<line fill="#000000" stroke="#000000" stroke-width="1" x1="623" x2="618" y1="334" y2="334"/>
<line fill="#000000" stroke="#000000" stroke-width="1" x1="613" x2="608" y1="334" y2="334"/>
<line fill="#000000" stroke="#000000" stroke-width="1" x1="603" x2="598" y1="334" y2="334"/>
<line fill="#000000" stroke="#000000" stroke-width="1" x1="593" x2="588" y1="334" y2="334"/>
<line fill="#000000" stroke="#000000" stroke-width="1" x1="583" x2="578" y1="334" y2="334"/>
<line fill="#000000" stroke="#000000" stroke-width="1" x1="573" x2="568" y1="334" y2="334"/>
<line fill="#000000" stroke="#000000" stroke-width="1" x1="563" x2="558" y1="334" y2="334"/>
<line fill="#000000" stroke="#000000" stroke-width="1" x1="553" x2="548" y1="334" y2="334"/>
<line fill="#000000" stroke="#000000" stroke-width="1" x1="543" x2="538" y1="334" y2="334"/>
<line fill="#000000" stroke="#000000" stroke-width="1" x1="533" x2="528" y1="334" y2="334"/>
<line fill="#000000" stroke="#000000" stroke-width="1" x1="523" x2="518" y1="334" y2="334"/>
<line fill="#000000" stroke="#000000" stroke-width="1" x1="513" x2="508" y1="334" y2="334"/>
<line fill="#000000" stroke="#000000" stroke-width="1" x1="503" x2="498" y1="334" y2="334"/>
<line fill="#000000" stroke="#000000" stroke-width="1" x1="493" x2="488" y1="334" y2="334"/>
<line fill="#000000" stroke="#000000" stroke-width="1" x1="483" x2="478" y1="334" y2="334"/>
<line fill="#000000" stroke="#000000" stroke-width="1" x1="473" x2="468" y1="334" y2="334"/>
<line fill="#000000" stroke="#000000" stroke-width="1" x1="463" x2="458" y1="334" y2="334"/>
<line fill="#000000" stroke="#000000" stroke-width="1" x1="453" x2="448" y1="334" y2="334"/>
<line fill="#000000" stroke="#000000" stroke-width="1" x1="443" x2="438" y1="334" y2="334"/>
<line fill="#000000" stroke="#000000" stroke-width="1" x1="433" x2="428" y1="334" y2="334"/>
<line fill="#000000" stroke="#000000" stroke-width="1" x1="436" x2="424" y1="327" y2="334"/>
<line fill="#000000" stroke="#000000" stroke-width="1" x1="436" x2="424" y1="341" y2="334"/>
<text font-family="Dialog" font-size="12" x="555" y="329">
List&lt;VisualGraph&gt;</text>
<line fill="#000000" stroke="#000000" stroke-width="1" x1="404" x2="399" y1="398" y2="398"/>
<line fill="#000000" stroke="#000000" stroke-width="1" x1="394" x2="389" y1="398" y2="398"/>
<line fill="#000000" stroke="#000000" stroke-width="1" x1="384" x2="379" y1="398" y2="398"/>
<line fill="#000000" stroke="#000000" stroke-width="1" x1="374" x2="369" y1="398" y2="398"/>
<line fill="#000000" stroke="#000000" stroke-width="1" x1="364" x2="359" y1="398" y2="398"/>
<line fill="#000000" stroke="#000000" stroke-width="1" x1="354" x2="349" y1="398" y2="398"/>
<line fill="#000000" stroke="#000000" stroke-width="1" x1="344" x2="339" y1="398" y2="398"/>
<line fill="#000000" stroke="#000000" stroke-width="1" x1="334" x2="329" y1="398" y2="398"/>
<line fill="#000000" stroke="#000000" stroke-width="1" x1="324" x2="319" y1="398" y2="398"/>
<line fill="#000000" stroke="#000000" stroke-width="1" x1="314" x2="309" y1="398" y2="398"/>
<line fill="#000000" stroke="#000000" stroke-width="1" x1="304" x2="299" y1="398" y2="398"/>
<line fill="#000000" stroke="#000000" stroke-width="1" x1="294" x2="289" y1="398" y2="398"/>
<line fill="#000000" stroke="#000000" stroke-width="1" x1="284" x2="279" y1="398" y2="398"/>
<line fill="#000000" stroke="#000000" stroke-width="1" x1="274" x2="269" y1="398" y2="398"/>
<line fill="#000000" stroke="#000000" stroke-width="1" x1="264" x2="259" y1="398" y2="398"/>
<line fill="#000000" stroke="#000000" stroke-width="1" x1="254" x2="249" y1="398" y2="398"/>
<line fill="#000000" stroke="#000000" stroke-width="1" x1="244" x2="239" y1="398" y2="398"/>
<line fill="#000000" stroke="#000000" stroke-width="1" x1="234" x2="229" y1="398" y2="398"/>
<line fill="#000000" stroke="#000000" stroke-width="1" x1="224" x2="219" y1="398" y2="398"/>
<line fill="#000000" stroke="#000000" stroke-width="1" x1="214" x2="209" y1="398" y2="398"/>
<line fill="#000000" stroke="#000000" stroke-width="1" x1="204" x2="199" y1="398" y2="398"/>
<line fill="#000000" stroke="#000000" stroke-width="1" x1="194" x2="189" y1="398" y2="398"/>
<line fill="#000000" stroke="#000000" stroke-width="1" x1="184" x2="179" y1="398" y2="398"/>
<line fill="#000000" stroke="#000000" stroke-width="1" x1="174" x2="169" y1="398" y2="398"/>
<line fill="#000000" stroke="#000000" stroke-width="1" x1="164" x2="159" y1="398" y2="398"/>
<line fill="#000000" stroke="#000000" stroke-width="1" x1="154" x2="149" y1="398" y2="398"/>
<line fill="#000000" stroke="#000000" stroke-width="1" x1="144" x2="139" y1="398" y2="398"/>
<line fill="#000000" stroke="#000000" stroke-width="1" x1="134" x2="129" y1="398" y2="398"/>
<line fill="#000000" stroke="#000000" stroke-width="1" x1="124" x2="119" y1="398" y2="398"/>
<line fill="#000000" stroke="#000000" stroke-width="1" x1="114" x2="109" y1="398" y2="398"/>
<line fill="#000000" stroke="#000000" stroke-width="1" x1="104" x2="100" y1="398" y2="398"/>
<line fill="#000000" stroke="#000000" stroke-width="1" x1="112" x2="100" y1="391" y2="398"/>
<line fill="#000000" stroke="#000000" stroke-width="1" x1="112" x2="100" y1="405" y2="398"/>
<polyline fill="none" points="424,126 583,126" stroke="#000000" stroke-width="1"/>
<polygon fill="#000000" points="583,126 571,133 571,119" stroke="#000000" stroke-width="1"/>
<polygon fill="none" points="583,126 571,133 571,119" stroke="#000000" stroke-width="1"/>
<text font-family="Dialog" font-size="12" x="459" y="121">
getFilterController()</text>
<line fill="#000000" stroke="#000000" stroke-width="1" x1="583" x2="578" y1="174" y2="174"/>
<line fill="#000000" stroke="#000000" stroke-width="1" x1="573" x2="568" y1="174" y2="174"/>
<line fill="#000000" stroke="#000000" stroke-width="1" x1="563" x2="558" y1="174" y2="174"/>
<line fill="#000000" stroke="#000000" stroke-width="1" x1="553" x2="548" y1="174" y2="174"/>
<line fill="#000000" stroke="#000000" stroke-width="1" x1="543" x2="538" y1="174" y2="174"/>
<line fill="#000000" stroke="#000000" stroke-width="1" x1="533" x2="528" y1="174" y2="174"/>
<line fill="#000000" stroke="#000000" stroke-width="1" x1="523" x2="518" y1="174" y2="174"/>
<line fill="#000000" stroke="#000000" stroke-width="1" x1="513" x2="508" y1="174" y2="174"/>
<line fill="#000000" stroke="#000000" stroke-width="1" x1="503" x2="498" y1="174" y2="174"/>
<line fill="#000000" stroke="#000000" stroke-width="1" x1="493" x2="488" y1="174" y2="174"/>
<line fill="#000000" stroke="#000000" stroke-width="1" x1="483" x2="478" y1="174" y2="174"/>
<line fill="#000000" stroke="#000000" stroke-width="1" x1="473" x2="468" y1="174" y2="174"/>
<line fill="#000000" stroke="#000000" stroke-width="1" x1="463" x2="458" y1="174" y2="174"/>
<line fill="#000000" stroke="#000000" stroke-width="1" x1="453" x2="448" y1="174" y2="174"/>
<line fill="#000000" stroke="#000000" stroke-width="1" x1="443" x2="438" y1="174" y2="174"/>
<line fill="#000000" stroke="#000000" stroke-width="1" x1="433" x2="428" y1="174" y2="174"/>
<line fill="#000000" stroke="#000000" stroke-width="1" x1="436" x2="424" y1="167" y2="174"/>
<line fill="#000000" stroke="#000000" stroke-width="1" x1="436" x2="424" y1="181" y2="174"/>
<text font-family="Dialog" font-size="12" x="460" y="169">
FilterController</text>
</svg>
