<?xml version="1.0" encoding="utf-8" ?>
<!DOCTYPE svg PUBLIC "-//W3C//DTD SVG 1.1//EN" "http://www.w3.org/Graphics/SVG/1.1/DTD/svg11.dtd">
<svg height="476" version="1.1" width="1258" xmlns="http://www.w3.org/2000/svg">
<line fill="#000000" stroke="#000000" stroke-width="1" x1="78" x2="78" y1="63" y2="68"/>
<line fill="#000000" stroke="#000000" stroke-width="1" x1="78" x2="78" y1="73" y2="78"/>
<line fill="#000000" stroke="#000000" stroke-width="1" x1="78" x2="78" y1="83" y2="88"/>
<line fill="#000000" stroke="#000000" stroke-width="1" x1="78" x2="78" y1="93" y2="98"/>
<line fill="#000000" stroke="#000000" stroke-width="1" x1="78" x2="78" y1="103" y2="108"/>
<line fill="#000000" stroke="#000000" stroke-width="1" x1="78" x2="78" y1="113" y2="118"/>
<line fill="#000000" stroke="#000000" stroke-width="1" x1="78" x2="78" y1="123" y2="128"/>
<line fill="#000000" stroke="#000000" stroke-width="1" x1="78" x2="78" y1="133" y2="138"/>
<line fill="#000000" stroke="#000000" stroke-width="1" x1="78" x2="78" y1="143" y2="148"/>
<line fill="#000000" stroke="#000000" stroke-width="1" x1="78" x2="78" y1="153" y2="158"/>
<line fill="#000000" stroke="#000000" stroke-width="1" x1="78" x2="78" y1="163" y2="168"/>
<line fill="#000000" stroke="#000000" stroke-width="1" x1="78" x2="78" y1="173" y2="178"/>
<line fill="#000000" stroke="#000000" stroke-width="1" x1="78" x2="78" y1="183" y2="188"/>
<line fill="#000000" stroke="#000000" stroke-width="1" x1="78" x2="78" y1="193" y2="198"/>
<line fill="#000000" stroke="#000000" stroke-width="1" x1="78" x2="78" y1="203" y2="208"/>
<line fill="#000000" stroke="#000000" stroke-width="1" x1="78" x2="78" y1="213" y2="218"/>
<line fill="#000000" stroke="#000000" stroke-width="1" x1="78" x2="78" y1="223" y2="228"/>
<line fill="#000000" stroke="#000000" stroke-width="1" x1="78" x2="78" y1="233" y2="238"/>
<line fill="#000000" stroke="#000000" stroke-width="1" x1="78" x2="78" y1="243" y2="248"/>
<line fill="#000000" stroke="#000000" stroke-width="1" x1="78" x2="78" y1="253" y2="258"/>
<line fill="#000000" stroke="#000000" stroke-width="1" x1="78" x2="78" y1="263" y2="268"/>
<line fill="#000000" stroke="#000000" stroke-width="1" x1="78" x2="78" y1="273" y2="278"/>
<line fill="#000000" stroke="#000000" stroke-width="1" x1="78" x2="78" y1="283" y2="288"/>
<line fill="#000000" stroke="#000000" stroke-width="1" x1="78" x2="78" y1="293" y2="298"/>
<line fill="#000000" stroke="#000000" stroke-width="1" x1="78" x2="78" y1="303" y2="308"/>
<line fill="#000000" stroke="#000000" stroke-width="1" x1="78" x2="78" y1="313" y2="318"/>
<line fill="#000000" stroke="#000000" stroke-width="1" x1="78" x2="78" y1="323" y2="328"/>
<line fill="#000000" stroke="#000000" stroke-width="1" x1="78" x2="78" y1="333" y2="338"/>
<line fill="#000000" stroke="#000000" stroke-width="1" x1="78" x2="78" y1="343" y2="348"/>
<line fill="#000000" stroke="#000000" stroke-width="1" x1="78" x2="78" y1="353" y2="358"/>
<line fill="#000000" stroke="#000000" stroke-width="1" x1="78" x2="78" y1="363" y2="368"/>
<line fill="#000000" stroke="#000000" stroke-width="1" x1="78" x2="78" y1="373" y2="378"/>
<line fill="#000000" stroke="#000000" stroke-width="1" x1="78" x2="78" y1="383" y2="388"/>
<line fill="#000000" stroke="#000000" stroke-width="1" x1="78" x2="78" y1="393" y2="398"/>
<line fill="#000000" stroke="#000000" stroke-width="1" x1="78" x2="78" y1="403" y2="408"/>
<line fill="#000000" stroke="#000000" stroke-width="1" x1="78" x2="78" y1="413" y2="418"/>
<line fill="#000000" stroke="#000000" stroke-width="1" x1="78" x2="78" y1="423" y2="428"/>
<line fill="#000000" stroke="#000000" stroke-width="1" x1="78" x2="78" y1="433" y2="438"/>
<line fill="#000000" stroke="#000000" stroke-width="1" x1="78" x2="78" y1="443" y2="448"/>
<line fill="#000000" stroke="#000000" stroke-width="1" x1="78" x2="78" y1="453" y2="458"/>
<rect fill="#ffffff" height="398" stroke="#ffffff" stroke-width="1" width="20" x="68" y="63"/>
<rect fill="none" height="398" stroke="#000000" stroke-width="1" width="20" x="68" y="63"/>
<rect fill="#ffffff" height="50" stroke="#ffffff" stroke-width="1" width="128" x="14" y="14"/>
<rect fill="none" height="50" stroke="#000000" stroke-width="1" width="128" x="14" y="14"/>
<text font-family="Dialog" font-size="12" x="63" y="28">
:Main</text>
<line fill="#000000" stroke="#000000" stroke-width="1" x1="362" x2="362" y1="63" y2="68"/>
<line fill="#000000" stroke="#000000" stroke-width="1" x1="362" x2="362" y1="73" y2="78"/>
<line fill="#000000" stroke="#000000" stroke-width="1" x1="362" x2="362" y1="83" y2="88"/>
<line fill="#000000" stroke="#000000" stroke-width="1" x1="362" x2="362" y1="93" y2="98"/>
<line fill="#000000" stroke="#000000" stroke-width="1" x1="362" x2="362" y1="103" y2="108"/>
<line fill="#000000" stroke="#000000" stroke-width="1" x1="362" x2="362" y1="113" y2="118"/>
<line fill="#000000" stroke="#000000" stroke-width="1" x1="362" x2="362" y1="123" y2="128"/>
<line fill="#000000" stroke="#000000" stroke-width="1" x1="362" x2="362" y1="133" y2="138"/>
<line fill="#000000" stroke="#000000" stroke-width="1" x1="362" x2="362" y1="143" y2="148"/>
<line fill="#000000" stroke="#000000" stroke-width="1" x1="362" x2="362" y1="153" y2="158"/>
<line fill="#000000" stroke="#000000" stroke-width="1" x1="362" x2="362" y1="163" y2="168"/>
<line fill="#000000" stroke="#000000" stroke-width="1" x1="362" x2="362" y1="173" y2="178"/>
<line fill="#000000" stroke="#000000" stroke-width="1" x1="362" x2="362" y1="183" y2="188"/>
<line fill="#000000" stroke="#000000" stroke-width="1" x1="362" x2="362" y1="193" y2="198"/>
<line fill="#000000" stroke="#000000" stroke-width="1" x1="362" x2="362" y1="203" y2="208"/>
<line fill="#000000" stroke="#000000" stroke-width="1" x1="362" x2="362" y1="213" y2="218"/>
<line fill="#000000" stroke="#000000" stroke-width="1" x1="362" x2="362" y1="223" y2="228"/>
<line fill="#000000" stroke="#000000" stroke-width="1" x1="362" x2="362" y1="233" y2="238"/>
<line fill="#000000" stroke="#000000" stroke-width="1" x1="362" x2="362" y1="243" y2="248"/>
<line fill="#000000" stroke="#000000" stroke-width="1" x1="362" x2="362" y1="253" y2="258"/>
<line fill="#000000" stroke="#000000" stroke-width="1" x1="362" x2="362" y1="263" y2="268"/>
<line fill="#000000" stroke="#000000" stroke-width="1" x1="362" x2="362" y1="273" y2="278"/>
<line fill="#000000" stroke="#000000" stroke-width="1" x1="362" x2="362" y1="283" y2="288"/>
<line fill="#000000" stroke="#000000" stroke-width="1" x1="362" x2="362" y1="293" y2="298"/>
<line fill="#000000" stroke="#000000" stroke-width="1" x1="362" x2="362" y1="303" y2="308"/>
<line fill="#000000" stroke="#000000" stroke-width="1" x1="362" x2="362" y1="313" y2="318"/>
<line fill="#000000" stroke="#000000" stroke-width="1" x1="362" x2="362" y1="323" y2="328"/>
<line fill="#000000" stroke="#000000" stroke-width="1" x1="362" x2="362" y1="333" y2="338"/>
<line fill="#000000" stroke="#000000" stroke-width="1" x1="362" x2="362" y1="343" y2="348"/>
<line fill="#000000" stroke="#000000" stroke-width="1" x1="362" x2="362" y1="353" y2="358"/>
<line fill="#000000" stroke="#000000" stroke-width="1" x1="362" x2="362" y1="363" y2="368"/>
<line fill="#000000" stroke="#000000" stroke-width="1" x1="362" x2="362" y1="373" y2="378"/>
<line fill="#000000" stroke="#000000" stroke-width="1" x1="362" x2="362" y1="383" y2="388"/>
<line fill="#000000" stroke="#000000" stroke-width="1" x1="362" x2="362" y1="393" y2="398"/>
<line fill="#000000" stroke="#000000" stroke-width="1" x1="362" x2="362" y1="403" y2="408"/>
<line fill="#000000" stroke="#000000" stroke-width="1" x1="362" x2="362" y1="413" y2="418"/>
<line fill="#000000" stroke="#000000" stroke-width="1" x1="362" x2="362" y1="423" y2="428"/>
<line fill="#000000" stroke="#000000" stroke-width="1" x1="362" x2="362" y1="433" y2="438"/>
<line fill="#000000" stroke="#000000" stroke-width="1" x1="362" x2="362" y1="443" y2="448"/>
<line fill="#000000" stroke="#000000" stroke-width="1" x1="362" x2="362" y1="453" y2="458"/>
<rect fill="#ffffff" height="322" stroke="#ffffff" stroke-width="1" width="20" x="352" y="102"/>
<rect fill="none" height="322" stroke="#000000" stroke-width="1" width="20" x="352" y="102"/>
<rect fill="#ffffff" height="50" stroke="#ffffff" stroke-width="1" width="168" x="278" y="14"/>
<rect fill="none" height="50" stroke="#000000" stroke-width="1" width="168" x="278" y="14"/>
<text font-family="Dialog" font-size="12" x="282" y="28">
:FXControllerGraphGenerator</text>
<polyline fill="none" points="88,102 352,102" stroke="#000000" stroke-width="1"/>
<polygon fill="#000000" points="352,102 340,109 340,95" stroke="#000000" stroke-width="1"/>
<polygon fill="none" points="352,102 340,109 340,95" stroke="#000000" stroke-width="1"/>
<text font-family="Dialog" font-size="12" x="176" y="97">
hier finde ich keine Methode</text>
<line fill="#000000" stroke="#000000" stroke-width="1" x1="571" x2="571" y1="63" y2="68"/>
<line fill="#000000" stroke="#000000" stroke-width="1" x1="571" x2="571" y1="73" y2="78"/>
<line fill="#000000" stroke="#000000" stroke-width="1" x1="571" x2="571" y1="83" y2="88"/>
<line fill="#000000" stroke="#000000" stroke-width="1" x1="571" x2="571" y1="93" y2="98"/>
<line fill="#000000" stroke="#000000" stroke-width="1" x1="571" x2="571" y1="103" y2="108"/>
<line fill="#000000" stroke="#000000" stroke-width="1" x1="571" x2="571" y1="113" y2="118"/>
<line fill="#000000" stroke="#000000" stroke-width="1" x1="571" x2="571" y1="123" y2="128"/>
<line fill="#000000" stroke="#000000" stroke-width="1" x1="571" x2="571" y1="133" y2="138"/>
<line fill="#000000" stroke="#000000" stroke-width="1" x1="571" x2="571" y1="143" y2="148"/>
<line fill="#000000" stroke="#000000" stroke-width="1" x1="571" x2="571" y1="153" y2="158"/>
<line fill="#000000" stroke="#000000" stroke-width="1" x1="571" x2="571" y1="163" y2="168"/>
<line fill="#000000" stroke="#000000" stroke-width="1" x1="571" x2="571" y1="173" y2="178"/>
<line fill="#000000" stroke="#000000" stroke-width="1" x1="571" x2="571" y1="183" y2="188"/>
<line fill="#000000" stroke="#000000" stroke-width="1" x1="571" x2="571" y1="193" y2="198"/>
<line fill="#000000" stroke="#000000" stroke-width="1" x1="571" x2="571" y1="203" y2="208"/>
<line fill="#000000" stroke="#000000" stroke-width="1" x1="571" x2="571" y1="213" y2="218"/>
<line fill="#000000" stroke="#000000" stroke-width="1" x1="571" x2="571" y1="223" y2="228"/>
<line fill="#000000" stroke="#000000" stroke-width="1" x1="571" x2="571" y1="233" y2="238"/>
<line fill="#000000" stroke="#000000" stroke-width="1" x1="571" x2="571" y1="243" y2="248"/>
<line fill="#000000" stroke="#000000" stroke-width="1" x1="571" x2="571" y1="253" y2="258"/>
<line fill="#000000" stroke="#000000" stroke-width="1" x1="571" x2="571" y1="263" y2="268"/>
<line fill="#000000" stroke="#000000" stroke-width="1" x1="571" x2="571" y1="273" y2="278"/>
<line fill="#000000" stroke="#000000" stroke-width="1" x1="571" x2="571" y1="283" y2="288"/>
<line fill="#000000" stroke="#000000" stroke-width="1" x1="571" x2="571" y1="293" y2="298"/>
<line fill="#000000" stroke="#000000" stroke-width="1" x1="571" x2="571" y1="303" y2="308"/>
<line fill="#000000" stroke="#000000" stroke-width="1" x1="571" x2="571" y1="313" y2="318"/>
<line fill="#000000" stroke="#000000" stroke-width="1" x1="571" x2="571" y1="323" y2="328"/>
<line fill="#000000" stroke="#000000" stroke-width="1" x1="571" x2="571" y1="333" y2="338"/>
<line fill="#000000" stroke="#000000" stroke-width="1" x1="571" x2="571" y1="343" y2="348"/>
<line fill="#000000" stroke="#000000" stroke-width="1" x1="571" x2="571" y1="353" y2="358"/>
<line fill="#000000" stroke="#000000" stroke-width="1" x1="571" x2="571" y1="363" y2="368"/>
<line fill="#000000" stroke="#000000" stroke-width="1" x1="571" x2="571" y1="373" y2="378"/>
<line fill="#000000" stroke="#000000" stroke-width="1" x1="571" x2="571" y1="383" y2="388"/>
<line fill="#000000" stroke="#000000" stroke-width="1" x1="571" x2="571" y1="393" y2="398"/>
<line fill="#000000" stroke="#000000" stroke-width="1" x1="571" x2="571" y1="403" y2="408"/>
<line fill="#000000" stroke="#000000" stroke-width="1" x1="571" x2="571" y1="413" y2="418"/>
<line fill="#000000" stroke="#000000" stroke-width="1" x1="571" x2="571" y1="423" y2="428"/>
<line fill="#000000" stroke="#000000" stroke-width="1" x1="571" x2="571" y1="433" y2="438"/>
<line fill="#000000" stroke="#000000" stroke-width="1" x1="571" x2="571" y1="443" y2="448"/>
<line fill="#000000" stroke="#000000" stroke-width="1" x1="571" x2="571" y1="453" y2="458"/>
<rect fill="#ffffff" height="152" stroke="#ffffff" stroke-width="1" width="20" x="561" y="174"/>
<rect fill="none" height="152" stroke="#000000" stroke-width="1" width="20" x="561" y="174"/>
<rect fill="#ffffff" height="50" stroke="#ffffff" stroke-width="1" width="154" x="494" y="14"/>
<rect fill="none" height="50" stroke="#000000" stroke-width="1" width="154" x="494" y="14"/>
<text font-family="Dialog" font-size="12" x="498" y="28">
:GeneratorGraphController</text>
<line fill="#000000" stroke="#000000" stroke-width="1" x1="352" x2="347" y1="424" y2="424"/>
<line fill="#000000" stroke="#000000" stroke-width="1" x1="342" x2="337" y1="424" y2="424"/>
<line fill="#000000" stroke="#000000" stroke-width="1" x1="332" x2="327" y1="424" y2="424"/>
<line fill="#000000" stroke="#000000" stroke-width="1" x1="322" x2="317" y1="424" y2="424"/>
<line fill="#000000" stroke="#000000" stroke-width="1" x1="312" x2="307" y1="424" y2="424"/>
<line fill="#000000" stroke="#000000" stroke-width="1" x1="302" x2="297" y1="424" y2="424"/>
<line fill="#000000" stroke="#000000" stroke-width="1" x1="292" x2="287" y1="424" y2="424"/>
<line fill="#000000" stroke="#000000" stroke-width="1" x1="282" x2="277" y1="424" y2="424"/>
<line fill="#000000" stroke="#000000" stroke-width="1" x1="272" x2="267" y1="424" y2="424"/>
<line fill="#000000" stroke="#000000" stroke-width="1" x1="262" x2="257" y1="424" y2="424"/>
<line fill="#000000" stroke="#000000" stroke-width="1" x1="252" x2="247" y1="424" y2="424"/>
<line fill="#000000" stroke="#000000" stroke-width="1" x1="242" x2="237" y1="424" y2="424"/>
<line fill="#000000" stroke="#000000" stroke-width="1" x1="232" x2="227" y1="424" y2="424"/>
<line fill="#000000" stroke="#000000" stroke-width="1" x1="222" x2="217" y1="424" y2="424"/>
<line fill="#000000" stroke="#000000" stroke-width="1" x1="212" x2="207" y1="424" y2="424"/>
<line fill="#000000" stroke="#000000" stroke-width="1" x1="202" x2="197" y1="424" y2="424"/>
<line fill="#000000" stroke="#000000" stroke-width="1" x1="192" x2="187" y1="424" y2="424"/>
<line fill="#000000" stroke="#000000" stroke-width="1" x1="182" x2="177" y1="424" y2="424"/>
<line fill="#000000" stroke="#000000" stroke-width="1" x1="172" x2="167" y1="424" y2="424"/>
<line fill="#000000" stroke="#000000" stroke-width="1" x1="162" x2="157" y1="424" y2="424"/>
<line fill="#000000" stroke="#000000" stroke-width="1" x1="152" x2="147" y1="424" y2="424"/>
<line fill="#000000" stroke="#000000" stroke-width="1" x1="142" x2="137" y1="424" y2="424"/>
<line fill="#000000" stroke="#000000" stroke-width="1" x1="132" x2="127" y1="424" y2="424"/>
<line fill="#000000" stroke="#000000" stroke-width="1" x1="122" x2="117" y1="424" y2="424"/>
<line fill="#000000" stroke="#000000" stroke-width="1" x1="112" x2="107" y1="424" y2="424"/>
<line fill="#000000" stroke="#000000" stroke-width="1" x1="102" x2="97" y1="424" y2="424"/>
<line fill="#000000" stroke="#000000" stroke-width="1" x1="92" x2="88" y1="424" y2="424"/>
<line fill="#000000" stroke="#000000" stroke-width="1" x1="100" x2="88" y1="417" y2="424"/>
<line fill="#000000" stroke="#000000" stroke-width="1" x1="100" x2="88" y1="431" y2="424"/>
<polyline fill="none" points="372,174 561,174" stroke="#000000" stroke-width="1"/>
<polygon fill="#000000" points="561,174 549,181 549,167" stroke="#000000" stroke-width="1"/>
<polygon fill="none" points="561,174 549,181 549,167" stroke="#000000" stroke-width="1"/>
<line fill="#000000" stroke="#000000" stroke-width="1" x1="785" x2="785" y1="63" y2="68"/>
<line fill="#000000" stroke="#000000" stroke-width="1" x1="785" x2="785" y1="73" y2="78"/>
<line fill="#000000" stroke="#000000" stroke-width="1" x1="785" x2="785" y1="83" y2="88"/>
<line fill="#000000" stroke="#000000" stroke-width="1" x1="785" x2="785" y1="93" y2="98"/>
<line fill="#000000" stroke="#000000" stroke-width="1" x1="785" x2="785" y1="103" y2="108"/>
<line fill="#000000" stroke="#000000" stroke-width="1" x1="785" x2="785" y1="113" y2="118"/>
<line fill="#000000" stroke="#000000" stroke-width="1" x1="785" x2="785" y1="123" y2="128"/>
<line fill="#000000" stroke="#000000" stroke-width="1" x1="785" x2="785" y1="133" y2="138"/>
<line fill="#000000" stroke="#000000" stroke-width="1" x1="785" x2="785" y1="143" y2="148"/>
<line fill="#000000" stroke="#000000" stroke-width="1" x1="785" x2="785" y1="153" y2="158"/>
<line fill="#000000" stroke="#000000" stroke-width="1" x1="785" x2="785" y1="163" y2="168"/>
<line fill="#000000" stroke="#000000" stroke-width="1" x1="785" x2="785" y1="173" y2="178"/>
<line fill="#000000" stroke="#000000" stroke-width="1" x1="785" x2="785" y1="183" y2="188"/>
<line fill="#000000" stroke="#000000" stroke-width="1" x1="785" x2="785" y1="193" y2="198"/>
<line fill="#000000" stroke="#000000" stroke-width="1" x1="785" x2="785" y1="203" y2="208"/>
<line fill="#000000" stroke="#000000" stroke-width="1" x1="785" x2="785" y1="213" y2="218"/>
<line fill="#000000" stroke="#000000" stroke-width="1" x1="785" x2="785" y1="223" y2="228"/>
<line fill="#000000" stroke="#000000" stroke-width="1" x1="785" x2="785" y1="233" y2="238"/>
<line fill="#000000" stroke="#000000" stroke-width="1" x1="785" x2="785" y1="243" y2="248"/>
<line fill="#000000" stroke="#000000" stroke-width="1" x1="785" x2="785" y1="253" y2="258"/>
<line fill="#000000" stroke="#000000" stroke-width="1" x1="785" x2="785" y1="263" y2="268"/>
<line fill="#000000" stroke="#000000" stroke-width="1" x1="785" x2="785" y1="273" y2="278"/>
<line fill="#000000" stroke="#000000" stroke-width="1" x1="785" x2="785" y1="283" y2="288"/>
<line fill="#000000" stroke="#000000" stroke-width="1" x1="785" x2="785" y1="293" y2="298"/>
<line fill="#000000" stroke="#000000" stroke-width="1" x1="785" x2="785" y1="303" y2="308"/>
<line fill="#000000" stroke="#000000" stroke-width="1" x1="785" x2="785" y1="313" y2="318"/>
<line fill="#000000" stroke="#000000" stroke-width="1" x1="785" x2="785" y1="323" y2="328"/>
<line fill="#000000" stroke="#000000" stroke-width="1" x1="785" x2="785" y1="333" y2="338"/>
<line fill="#000000" stroke="#000000" stroke-width="1" x1="785" x2="785" y1="343" y2="348"/>
<line fill="#000000" stroke="#000000" stroke-width="1" x1="785" x2="785" y1="353" y2="358"/>
<line fill="#000000" stroke="#000000" stroke-width="1" x1="785" x2="785" y1="363" y2="368"/>
<line fill="#000000" stroke="#000000" stroke-width="1" x1="785" x2="785" y1="373" y2="378"/>
<line fill="#000000" stroke="#000000" stroke-width="1" x1="785" x2="785" y1="383" y2="388"/>
<line fill="#000000" stroke="#000000" stroke-width="1" x1="785" x2="785" y1="393" y2="398"/>
<line fill="#000000" stroke="#000000" stroke-width="1" x1="785" x2="785" y1="403" y2="408"/>
<line fill="#000000" stroke="#000000" stroke-width="1" x1="785" x2="785" y1="413" y2="418"/>
<line fill="#000000" stroke="#000000" stroke-width="1" x1="785" x2="785" y1="423" y2="428"/>
<line fill="#000000" stroke="#000000" stroke-width="1" x1="785" x2="785" y1="433" y2="438"/>
<line fill="#000000" stroke="#000000" stroke-width="1" x1="785" x2="785" y1="443" y2="448"/>
<line fill="#000000" stroke="#000000" stroke-width="1" x1="785" x2="785" y1="453" y2="458"/>
<rect fill="#ffffff" height="32" stroke="#ffffff" stroke-width="1" width="20" x="775" y="182"/>
<rect fill="none" height="32" stroke="#000000" stroke-width="1" width="20" x="775" y="182"/>
<rect fill="#ffffff" height="50" stroke="#ffffff" stroke-width="1" width="150" x="710" y="14"/>
<rect fill="none" height="50" stroke="#000000" stroke-width="1" width="150" x="710" y="14"/>
<text font-family="Dialog" font-size="12" x="747" y="28">
:GraphBuilder</text>
<polyline fill="none" points="581,182 775,182" stroke="#000000" stroke-width="1"/>
<polygon fill="#000000" points="775,182 763,189 763,175" stroke="#000000" stroke-width="1"/>
<polygon fill="none" points="775,182 763,189 763,175" stroke="#000000" stroke-width="1"/>
<text font-family="Dialog" font-size="12" x="634" y="177">
generateGraph( )</text>
<line fill="#000000" stroke="#000000" stroke-width="1" x1="775" x2="770" y1="214" y2="214"/>
<line fill="#000000" stroke="#000000" stroke-width="1" x1="765" x2="760" y1="214" y2="214"/>
<line fill="#000000" stroke="#000000" stroke-width="1" x1="755" x2="750" y1="214" y2="214"/>
<line fill="#000000" stroke="#000000" stroke-width="1" x1="745" x2="740" y1="214" y2="214"/>
<line fill="#000000" stroke="#000000" stroke-width="1" x1="735" x2="730" y1="214" y2="214"/>
<line fill="#000000" stroke="#000000" stroke-width="1" x1="725" x2="720" y1="214" y2="214"/>
<line fill="#000000" stroke="#000000" stroke-width="1" x1="715" x2="710" y1="214" y2="214"/>
<line fill="#000000" stroke="#000000" stroke-width="1" x1="705" x2="700" y1="214" y2="214"/>
<line fill="#000000" stroke="#000000" stroke-width="1" x1="695" x2="690" y1="214" y2="214"/>
<line fill="#000000" stroke="#000000" stroke-width="1" x1="685" x2="680" y1="214" y2="214"/>
<line fill="#000000" stroke="#000000" stroke-width="1" x1="675" x2="670" y1="214" y2="214"/>
<line fill="#000000" stroke="#000000" stroke-width="1" x1="665" x2="660" y1="214" y2="214"/>
<line fill="#000000" stroke="#000000" stroke-width="1" x1="655" x2="650" y1="214" y2="214"/>
<line fill="#000000" stroke="#000000" stroke-width="1" x1="645" x2="640" y1="214" y2="214"/>
<line fill="#000000" stroke="#000000" stroke-width="1" x1="635" x2="630" y1="214" y2="214"/>
<line fill="#000000" stroke="#000000" stroke-width="1" x1="625" x2="620" y1="214" y2="214"/>
<line fill="#000000" stroke="#000000" stroke-width="1" x1="615" x2="610" y1="214" y2="214"/>
<line fill="#000000" stroke="#000000" stroke-width="1" x1="605" x2="600" y1="214" y2="214"/>
<line fill="#000000" stroke="#000000" stroke-width="1" x1="595" x2="590" y1="214" y2="214"/>
<line fill="#000000" stroke="#000000" stroke-width="1" x1="585" x2="581" y1="214" y2="214"/>
<line fill="#000000" stroke="#000000" stroke-width="1" x1="593" x2="581" y1="207" y2="214"/>
<line fill="#000000" stroke="#000000" stroke-width="1" x1="593" x2="581" y1="221" y2="214"/>
<text font-family="Dialog" font-size="12" x="634" y="209">
Graph</text>
<line fill="#000000" stroke="#000000" stroke-width="1" x1="561" x2="556" y1="326" y2="326"/>
<line fill="#000000" stroke="#000000" stroke-width="1" x1="551" x2="546" y1="326" y2="326"/>
<line fill="#000000" stroke="#000000" stroke-width="1" x1="541" x2="536" y1="326" y2="326"/>
<line fill="#000000" stroke="#000000" stroke-width="1" x1="531" x2="526" y1="326" y2="326"/>
<line fill="#000000" stroke="#000000" stroke-width="1" x1="521" x2="516" y1="326" y2="326"/>
<line fill="#000000" stroke="#000000" stroke-width="1" x1="511" x2="506" y1="326" y2="326"/>
<line fill="#000000" stroke="#000000" stroke-width="1" x1="501" x2="496" y1="326" y2="326"/>
<line fill="#000000" stroke="#000000" stroke-width="1" x1="491" x2="486" y1="326" y2="326"/>
<line fill="#000000" stroke="#000000" stroke-width="1" x1="481" x2="476" y1="326" y2="326"/>
<line fill="#000000" stroke="#000000" stroke-width="1" x1="471" x2="466" y1="326" y2="326"/>
<line fill="#000000" stroke="#000000" stroke-width="1" x1="461" x2="456" y1="326" y2="326"/>
<line fill="#000000" stroke="#000000" stroke-width="1" x1="451" x2="446" y1="326" y2="326"/>
<line fill="#000000" stroke="#000000" stroke-width="1" x1="441" x2="436" y1="326" y2="326"/>
<line fill="#000000" stroke="#000000" stroke-width="1" x1="431" x2="426" y1="326" y2="326"/>
<line fill="#000000" stroke="#000000" stroke-width="1" x1="421" x2="416" y1="326" y2="326"/>
<line fill="#000000" stroke="#000000" stroke-width="1" x1="411" x2="406" y1="326" y2="326"/>
<line fill="#000000" stroke="#000000" stroke-width="1" x1="401" x2="396" y1="326" y2="326"/>
<line fill="#000000" stroke="#000000" stroke-width="1" x1="391" x2="386" y1="326" y2="326"/>
<line fill="#000000" stroke="#000000" stroke-width="1" x1="381" x2="376" y1="326" y2="326"/>
<line fill="#000000" stroke="#000000" stroke-width="1" x1="384" x2="372" y1="319" y2="326"/>
<line fill="#000000" stroke="#000000" stroke-width="1" x1="384" x2="372" y1="333" y2="326"/>
<text font-family="Dialog" font-size="12" x="423" y="321">
TabController</text>
<line fill="#000000" stroke="#000000" stroke-width="1" x1="992" x2="992" y1="63" y2="68"/>
<line fill="#000000" stroke="#000000" stroke-width="1" x1="992" x2="992" y1="73" y2="78"/>
<line fill="#000000" stroke="#000000" stroke-width="1" x1="992" x2="992" y1="83" y2="88"/>
<line fill="#000000" stroke="#000000" stroke-width="1" x1="992" x2="992" y1="93" y2="98"/>
<line fill="#000000" stroke="#000000" stroke-width="1" x1="992" x2="992" y1="103" y2="108"/>
<line fill="#000000" stroke="#000000" stroke-width="1" x1="992" x2="992" y1="113" y2="118"/>
<line fill="#000000" stroke="#000000" stroke-width="1" x1="992" x2="992" y1="123" y2="128"/>
<line fill="#000000" stroke="#000000" stroke-width="1" x1="992" x2="992" y1="133" y2="138"/>
<line fill="#000000" stroke="#000000" stroke-width="1" x1="992" x2="992" y1="143" y2="148"/>
<line fill="#000000" stroke="#000000" stroke-width="1" x1="992" x2="992" y1="153" y2="158"/>
<line fill="#000000" stroke="#000000" stroke-width="1" x1="992" x2="992" y1="163" y2="168"/>
<line fill="#000000" stroke="#000000" stroke-width="1" x1="992" x2="992" y1="173" y2="178"/>
<line fill="#000000" stroke="#000000" stroke-width="1" x1="992" x2="992" y1="183" y2="188"/>
<line fill="#000000" stroke="#000000" stroke-width="1" x1="992" x2="992" y1="193" y2="198"/>
<line fill="#000000" stroke="#000000" stroke-width="1" x1="992" x2="992" y1="203" y2="208"/>
<line fill="#000000" stroke="#000000" stroke-width="1" x1="992" x2="992" y1="213" y2="218"/>
<line fill="#000000" stroke="#000000" stroke-width="1" x1="992" x2="992" y1="223" y2="228"/>
<line fill="#000000" stroke="#000000" stroke-width="1" x1="992" x2="992" y1="233" y2="238"/>
<line fill="#000000" stroke="#000000" stroke-width="1" x1="992" x2="992" y1="243" y2="248"/>
<line fill="#000000" stroke="#000000" stroke-width="1" x1="992" x2="992" y1="253" y2="258"/>
<line fill="#000000" stroke="#000000" stroke-width="1" x1="992" x2="992" y1="263" y2="268"/>
<line fill="#000000" stroke="#000000" stroke-width="1" x1="992" x2="992" y1="273" y2="278"/>
<line fill="#000000" stroke="#000000" stroke-width="1" x1="992" x2="992" y1="283" y2="288"/>
<line fill="#000000" stroke="#000000" stroke-width="1" x1="992" x2="992" y1="293" y2="298"/>
<line fill="#000000" stroke="#000000" stroke-width="1" x1="992" x2="992" y1="303" y2="308"/>
<line fill="#000000" stroke="#000000" stroke-width="1" x1="992" x2="992" y1="313" y2="318"/>
<line fill="#000000" stroke="#000000" stroke-width="1" x1="992" x2="992" y1="323" y2="328"/>
<line fill="#000000" stroke="#000000" stroke-width="1" x1="992" x2="992" y1="333" y2="338"/>
<line fill="#000000" stroke="#000000" stroke-width="1" x1="992" x2="992" y1="343" y2="348"/>
<line fill="#000000" stroke="#000000" stroke-width="1" x1="992" x2="992" y1="353" y2="358"/>
<line fill="#000000" stroke="#000000" stroke-width="1" x1="992" x2="992" y1="363" y2="368"/>
<line fill="#000000" stroke="#000000" stroke-width="1" x1="992" x2="992" y1="373" y2="378"/>
<line fill="#000000" stroke="#000000" stroke-width="1" x1="992" x2="992" y1="383" y2="388"/>
<line fill="#000000" stroke="#000000" stroke-width="1" x1="992" x2="992" y1="393" y2="398"/>
<line fill="#000000" stroke="#000000" stroke-width="1" x1="992" x2="992" y1="403" y2="408"/>
<line fill="#000000" stroke="#000000" stroke-width="1" x1="992" x2="992" y1="413" y2="418"/>
<line fill="#000000" stroke="#000000" stroke-width="1" x1="992" x2="992" y1="423" y2="428"/>
<line fill="#000000" stroke="#000000" stroke-width="1" x1="992" x2="992" y1="433" y2="438"/>
<line fill="#000000" stroke="#000000" stroke-width="1" x1="992" x2="992" y1="443" y2="448"/>
<line fill="#000000" stroke="#000000" stroke-width="1" x1="992" x2="992" y1="453" y2="458"/>
<rect fill="#ffffff" height="50" stroke="#ffffff" stroke-width="1" width="20" x="982" y="346"/>
<rect fill="none" height="50" stroke="#000000" stroke-width="1" width="20" x="982" y="346"/>
<rect fill="#ffffff" height="50" stroke="#ffffff" stroke-width="1" width="181" x="902" y="14"/>
<rect fill="none" height="50" stroke="#000000" stroke-width="1" width="181" x="902" y="14"/>
<text font-family="Dialog" font-size="12" x="946" y="28">
:FXTabController</text>
<line fill="#000000" stroke="#000000" stroke-width="1" x1="1169" x2="1169" y1="63" y2="68"/>
<line fill="#000000" stroke="#000000" stroke-width="1" x1="1169" x2="1169" y1="73" y2="78"/>
<line fill="#000000" stroke="#000000" stroke-width="1" x1="1169" x2="1169" y1="83" y2="88"/>
<line fill="#000000" stroke="#000000" stroke-width="1" x1="1169" x2="1169" y1="93" y2="98"/>
<line fill="#000000" stroke="#000000" stroke-width="1" x1="1169" x2="1169" y1="103" y2="108"/>
<line fill="#000000" stroke="#000000" stroke-width="1" x1="1169" x2="1169" y1="113" y2="118"/>
<line fill="#000000" stroke="#000000" stroke-width="1" x1="1169" x2="1169" y1="123" y2="128"/>
<line fill="#000000" stroke="#000000" stroke-width="1" x1="1169" x2="1169" y1="133" y2="138"/>
<line fill="#000000" stroke="#000000" stroke-width="1" x1="1169" x2="1169" y1="143" y2="148"/>
<line fill="#000000" stroke="#000000" stroke-width="1" x1="1169" x2="1169" y1="153" y2="158"/>
<line fill="#000000" stroke="#000000" stroke-width="1" x1="1169" x2="1169" y1="163" y2="168"/>
<line fill="#000000" stroke="#000000" stroke-width="1" x1="1169" x2="1169" y1="173" y2="178"/>
<line fill="#000000" stroke="#000000" stroke-width="1" x1="1169" x2="1169" y1="183" y2="188"/>
<line fill="#000000" stroke="#000000" stroke-width="1" x1="1169" x2="1169" y1="193" y2="198"/>
<line fill="#000000" stroke="#000000" stroke-width="1" x1="1169" x2="1169" y1="203" y2="208"/>
<line fill="#000000" stroke="#000000" stroke-width="1" x1="1169" x2="1169" y1="213" y2="218"/>
<line fill="#000000" stroke="#000000" stroke-width="1" x1="1169" x2="1169" y1="223" y2="228"/>
<line fill="#000000" stroke="#000000" stroke-width="1" x1="1169" x2="1169" y1="233" y2="238"/>
<line fill="#000000" stroke="#000000" stroke-width="1" x1="1169" x2="1169" y1="243" y2="248"/>
<line fill="#000000" stroke="#000000" stroke-width="1" x1="1169" x2="1169" y1="253" y2="258"/>
<line fill="#000000" stroke="#000000" stroke-width="1" x1="1169" x2="1169" y1="263" y2="268"/>
<line fill="#000000" stroke="#000000" stroke-width="1" x1="1169" x2="1169" y1="273" y2="278"/>
<line fill="#000000" stroke="#000000" stroke-width="1" x1="1169" x2="1169" y1="283" y2="288"/>
<line fill="#000000" stroke="#000000" stroke-width="1" x1="1169" x2="1169" y1="293" y2="298"/>
<line fill="#000000" stroke="#000000" stroke-width="1" x1="1169" x2="1169" y1="303" y2="308"/>
<line fill="#000000" stroke="#000000" stroke-width="1" x1="1169" x2="1169" y1="313" y2="318"/>
<line fill="#000000" stroke="#000000" stroke-width="1" x1="1169" x2="1169" y1="323" y2="328"/>
<line fill="#000000" stroke="#000000" stroke-width="1" x1="1169" x2="1169" y1="333" y2="338"/>
<line fill="#000000" stroke="#000000" stroke-width="1" x1="1169" x2="1169" y1="343" y2="348"/>
<line fill="#000000" stroke="#000000" stroke-width="1" x1="1169" x2="1169" y1="353" y2="358"/>
<line fill="#000000" stroke="#000000" stroke-width="1" x1="1169" x2="1169" y1="363" y2="368"/>
<line fill="#000000" stroke="#000000" stroke-width="1" x1="1169" x2="1169" y1="373" y2="378"/>
<line fill="#000000" stroke="#000000" stroke-width="1" x1="1169" x2="1169" y1="383" y2="388"/>
<line fill="#000000" stroke="#000000" stroke-width="1" x1="1169" x2="1169" y1="393" y2="398"/>
<line fill="#000000" stroke="#000000" stroke-width="1" x1="1169" x2="1169" y1="403" y2="408"/>
<line fill="#000000" stroke="#000000" stroke-width="1" x1="1169" x2="1169" y1="413" y2="418"/>
<line fill="#000000" stroke="#000000" stroke-width="1" x1="1169" x2="1169" y1="423" y2="428"/>
<line fill="#000000" stroke="#000000" stroke-width="1" x1="1169" x2="1169" y1="433" y2="438"/>
<line fill="#000000" stroke="#000000" stroke-width="1" x1="1169" x2="1169" y1="443" y2="448"/>
<line fill="#000000" stroke="#000000" stroke-width="1" x1="1169" x2="1169" y1="453" y2="458"/>
<rect fill="#ffffff" height="48" stroke="#ffffff" stroke-width="1" width="20" x="1159" y="246"/>
<rect fill="none" height="48" stroke="#000000" stroke-width="1" width="20" x="1159" y="246"/>
<rect fill="#ffffff" height="50" stroke="#ffffff" stroke-width="1" width="150" x="1094" y="14"/>
<rect fill="none" height="50" stroke="#000000" stroke-width="1" width="150" x="1094" y="14"/>
<text font-family="Dialog" font-size="12" x="1130" y="28">
:TabController</text>
<polyline fill="none" points="581,246 1159,246" stroke="#000000" stroke-width="1"/>
<polygon fill="#000000" points="1159,246 1147,253 1147,239" stroke="#000000" stroke-width="1"/>
<polygon fill="none" points="1159,246 1147,253 1147,239" stroke="#000000" stroke-width="1"/>
<text font-family="Dialog" font-size="12" x="814" y="241">
create</text>
<line fill="#000000" stroke="#000000" stroke-width="1" x1="1159" x2="1154" y1="294" y2="294"/>
<line fill="#000000" stroke="#000000" stroke-width="1" x1="1149" x2="1144" y1="294" y2="294"/>
<line fill="#000000" stroke="#000000" stroke-width="1" x1="1139" x2="1134" y1="294" y2="294"/>
<line fill="#000000" stroke="#000000" stroke-width="1" x1="1129" x2="1124" y1="294" y2="294"/>
<line fill="#000000" stroke="#000000" stroke-width="1" x1="1119" x2="1114" y1="294" y2="294"/>
<line fill="#000000" stroke="#000000" stroke-width="1" x1="1109" x2="1104" y1="294" y2="294"/>
<line fill="#000000" stroke="#000000" stroke-width="1" x1="1099" x2="1094" y1="294" y2="294"/>
<line fill="#000000" stroke="#000000" stroke-width="1" x1="1089" x2="1084" y1="294" y2="294"/>
<line fill="#000000" stroke="#000000" stroke-width="1" x1="1079" x2="1074" y1="294" y2="294"/>
<line fill="#000000" stroke="#000000" stroke-width="1" x1="1069" x2="1064" y1="294" y2="294"/>
<line fill="#000000" stroke="#000000" stroke-width="1" x1="1059" x2="1054" y1="294" y2="294"/>
<line fill="#000000" stroke="#000000" stroke-width="1" x1="1049" x2="1044" y1="294" y2="294"/>
<line fill="#000000" stroke="#000000" stroke-width="1" x1="1039" x2="1034" y1="294" y2="294"/>
<line fill="#000000" stroke="#000000" stroke-width="1" x1="1029" x2="1024" y1="294" y2="294"/>
<line fill="#000000" stroke="#000000" stroke-width="1" x1="1019" x2="1014" y1="294" y2="294"/>
<line fill="#000000" stroke="#000000" stroke-width="1" x1="1009" x2="1004" y1="294" y2="294"/>
<line fill="#000000" stroke="#000000" stroke-width="1" x1="999" x2="994" y1="294" y2="294"/>
<line fill="#000000" stroke="#000000" stroke-width="1" x1="989" x2="984" y1="294" y2="294"/>
<line fill="#000000" stroke="#000000" stroke-width="1" x1="979" x2="974" y1="294" y2="294"/>
<line fill="#000000" stroke="#000000" stroke-width="1" x1="969" x2="964" y1="294" y2="294"/>
<line fill="#000000" stroke="#000000" stroke-width="1" x1="959" x2="954" y1="294" y2="294"/>
<line fill="#000000" stroke="#000000" stroke-width="1" x1="949" x2="944" y1="294" y2="294"/>
<line fill="#000000" stroke="#000000" stroke-width="1" x1="939" x2="934" y1="294" y2="294"/>
<line fill="#000000" stroke="#000000" stroke-width="1" x1="929" x2="924" y1="294" y2="294"/>
<line fill="#000000" stroke="#000000" stroke-width="1" x1="919" x2="914" y1="294" y2="294"/>
<line fill="#000000" stroke="#000000" stroke-width="1" x1="909" x2="904" y1="294" y2="294"/>
<line fill="#000000" stroke="#000000" stroke-width="1" x1="899" x2="894" y1="294" y2="294"/>
<line fill="#000000" stroke="#000000" stroke-width="1" x1="889" x2="884" y1="294" y2="294"/>
<line fill="#000000" stroke="#000000" stroke-width="1" x1="879" x2="874" y1="294" y2="294"/>
<line fill="#000000" stroke="#000000" stroke-width="1" x1="869" x2="864" y1="294" y2="294"/>
<line fill="#000000" stroke="#000000" stroke-width="1" x1="859" x2="854" y1="294" y2="294"/>
<line fill="#000000" stroke="#000000" stroke-width="1" x1="849" x2="844" y1="294" y2="294"/>
<line fill="#000000" stroke="#000000" stroke-width="1" x1="839" x2="834" y1="294" y2="294"/>
<line fill="#000000" stroke="#000000" stroke-width="1" x1="829" x2="824" y1="294" y2="294"/>
<line fill="#000000" stroke="#000000" stroke-width="1" x1="819" x2="814" y1="294" y2="294"/>
<line fill="#000000" stroke="#000000" stroke-width="1" x1="809" x2="804" y1="294" y2="294"/>
<line fill="#000000" stroke="#000000" stroke-width="1" x1="799" x2="794" y1="294" y2="294"/>
<line fill="#000000" stroke="#000000" stroke-width="1" x1="789" x2="784" y1="294" y2="294"/>
<line fill="#000000" stroke="#000000" stroke-width="1" x1="779" x2="774" y1="294" y2="294"/>
<line fill="#000000" stroke="#000000" stroke-width="1" x1="769" x2="764" y1="294" y2="294"/>
<line fill="#000000" stroke="#000000" stroke-width="1" x1="759" x2="754" y1="294" y2="294"/>
<line fill="#000000" stroke="#000000" stroke-width="1" x1="749" x2="744" y1="294" y2="294"/>
<line fill="#000000" stroke="#000000" stroke-width="1" x1="739" x2="734" y1="294" y2="294"/>
<line fill="#000000" stroke="#000000" stroke-width="1" x1="729" x2="724" y1="294" y2="294"/>
<line fill="#000000" stroke="#000000" stroke-width="1" x1="719" x2="714" y1="294" y2="294"/>
<line fill="#000000" stroke="#000000" stroke-width="1" x1="709" x2="704" y1="294" y2="294"/>
<line fill="#000000" stroke="#000000" stroke-width="1" x1="699" x2="694" y1="294" y2="294"/>
<line fill="#000000" stroke="#000000" stroke-width="1" x1="689" x2="684" y1="294" y2="294"/>
<line fill="#000000" stroke="#000000" stroke-width="1" x1="679" x2="674" y1="294" y2="294"/>
<line fill="#000000" stroke="#000000" stroke-width="1" x1="669" x2="664" y1="294" y2="294"/>
<line fill="#000000" stroke="#000000" stroke-width="1" x1="659" x2="654" y1="294" y2="294"/>
<line fill="#000000" stroke="#000000" stroke-width="1" x1="649" x2="644" y1="294" y2="294"/>
<line fill="#000000" stroke="#000000" stroke-width="1" x1="639" x2="634" y1="294" y2="294"/>
<line fill="#000000" stroke="#000000" stroke-width="1" x1="629" x2="624" y1="294" y2="294"/>
<line fill="#000000" stroke="#000000" stroke-width="1" x1="619" x2="614" y1="294" y2="294"/>
<line fill="#000000" stroke="#000000" stroke-width="1" x1="609" x2="604" y1="294" y2="294"/>
<line fill="#000000" stroke="#000000" stroke-width="1" x1="599" x2="594" y1="294" y2="294"/>
<line fill="#000000" stroke="#000000" stroke-width="1" x1="589" x2="584" y1="294" y2="294"/>
<line fill="#000000" stroke="#000000" stroke-width="1" x1="593" x2="581" y1="287" y2="294"/>
<line fill="#000000" stroke="#000000" stroke-width="1" x1="593" x2="581" y1="301" y2="294"/>
<polyline fill="none" points="372,346 982,346" stroke="#000000" stroke-width="1"/>
<polygon fill="#000000" points="982,346 970,353 970,339" stroke="#000000" stroke-width="1"/>
<polygon fill="none" points="982,346 970,353 970,339" stroke="#000000" stroke-width="1"/>
<text font-family="Dialog" font-size="12" x="633" y="341">
create( tabController)</text>
<line fill="#000000" stroke="#000000" stroke-width="1" x1="982" x2="977" y1="396" y2="396"/>
<line fill="#000000" stroke="#000000" stroke-width="1" x1="972" x2="967" y1="396" y2="396"/>
<line fill="#000000" stroke="#000000" stroke-width="1" x1="962" x2="957" y1="396" y2="396"/>
<line fill="#000000" stroke="#000000" stroke-width="1" x1="952" x2="947" y1="396" y2="396"/>
<line fill="#000000" stroke="#000000" stroke-width="1" x1="942" x2="937" y1="396" y2="396"/>
<line fill="#000000" stroke="#000000" stroke-width="1" x1="932" x2="927" y1="396" y2="396"/>
<line fill="#000000" stroke="#000000" stroke-width="1" x1="922" x2="917" y1="396" y2="396"/>
<line fill="#000000" stroke="#000000" stroke-width="1" x1="912" x2="907" y1="396" y2="396"/>
<line fill="#000000" stroke="#000000" stroke-width="1" x1="902" x2="897" y1="396" y2="396"/>
<line fill="#000000" stroke="#000000" stroke-width="1" x1="892" x2="887" y1="396" y2="396"/>
<line fill="#000000" stroke="#000000" stroke-width="1" x1="882" x2="877" y1="396" y2="396"/>
<line fill="#000000" stroke="#000000" stroke-width="1" x1="872" x2="867" y1="396" y2="396"/>
<line fill="#000000" stroke="#000000" stroke-width="1" x1="862" x2="857" y1="396" y2="396"/>
<line fill="#000000" stroke="#000000" stroke-width="1" x1="852" x2="847" y1="396" y2="396"/>
<line fill="#000000" stroke="#000000" stroke-width="1" x1="842" x2="837" y1="396" y2="396"/>
<line fill="#000000" stroke="#000000" stroke-width="1" x1="832" x2="827" y1="396" y2="396"/>
<line fill="#000000" stroke="#000000" stroke-width="1" x1="822" x2="817" y1="396" y2="396"/>
<line fill="#000000" stroke="#000000" stroke-width="1" x1="812" x2="807" y1="396" y2="396"/>
<line fill="#000000" stroke="#000000" stroke-width="1" x1="802" x2="797" y1="396" y2="396"/>
<line fill="#000000" stroke="#000000" stroke-width="1" x1="792" x2="787" y1="396" y2="396"/>
<line fill="#000000" stroke="#000000" stroke-width="1" x1="782" x2="777" y1="396" y2="396"/>
<line fill="#000000" stroke="#000000" stroke-width="1" x1="772" x2="767" y1="396" y2="396"/>
<line fill="#000000" stroke="#000000" stroke-width="1" x1="762" x2="757" y1="396" y2="396"/>
<line fill="#000000" stroke="#000000" stroke-width="1" x1="752" x2="747" y1="396" y2="396"/>
<line fill="#000000" stroke="#000000" stroke-width="1" x1="742" x2="737" y1="396" y2="396"/>
<line fill="#000000" stroke="#000000" stroke-width="1" x1="732" x2="727" y1="396" y2="396"/>
<line fill="#000000" stroke="#000000" stroke-width="1" x1="722" x2="717" y1="396" y2="396"/>
<line fill="#000000" stroke="#000000" stroke-width="1" x1="712" x2="707" y1="396" y2="396"/>
<line fill="#000000" stroke="#000000" stroke-width="1" x1="702" x2="697" y1="396" y2="396"/>
<line fill="#000000" stroke="#000000" stroke-width="1" x1="692" x2="687" y1="396" y2="396"/>
<line fill="#000000" stroke="#000000" stroke-width="1" x1="682" x2="677" y1="396" y2="396"/>
<line fill="#000000" stroke="#000000" stroke-width="1" x1="672" x2="667" y1="396" y2="396"/>
<line fill="#000000" stroke="#000000" stroke-width="1" x1="662" x2="657" y1="396" y2="396"/>
<line fill="#000000" stroke="#000000" stroke-width="1" x1="652" x2="647" y1="396" y2="396"/>
<line fill="#000000" stroke="#000000" stroke-width="1" x1="642" x2="637" y1="396" y2="396"/>
<line fill="#000000" stroke="#000000" stroke-width="1" x1="632" x2="627" y1="396" y2="396"/>
<line fill="#000000" stroke="#000000" stroke-width="1" x1="622" x2="617" y1="396" y2="396"/>
<line fill="#000000" stroke="#000000" stroke-width="1" x1="612" x2="607" y1="396" y2="396"/>
<line fill="#000000" stroke="#000000" stroke-width="1" x1="602" x2="597" y1="396" y2="396"/>
<line fill="#000000" stroke="#000000" stroke-width="1" x1="592" x2="587" y1="396" y2="396"/>
<line fill="#000000" stroke="#000000" stroke-width="1" x1="582" x2="577" y1="396" y2="396"/>
<line fill="#000000" stroke="#000000" stroke-width="1" x1="572" x2="567" y1="396" y2="396"/>
<line fill="#000000" stroke="#000000" stroke-width="1" x1="562" x2="557" y1="396" y2="396"/>
<line fill="#000000" stroke="#000000" stroke-width="1" x1="552" x2="547" y1="396" y2="396"/>
<line fill="#000000" stroke="#000000" stroke-width="1" x1="542" x2="537" y1="396" y2="396"/>
<line fill="#000000" stroke="#000000" stroke-width="1" x1="532" x2="527" y1="396" y2="396"/>
<line fill="#000000" stroke="#000000" stroke-width="1" x1="522" x2="517" y1="396" y2="396"/>
<line fill="#000000" stroke="#000000" stroke-width="1" x1="512" x2="507" y1="396" y2="396"/>
<line fill="#000000" stroke="#000000" stroke-width="1" x1="502" x2="497" y1="396" y2="396"/>
<line fill="#000000" stroke="#000000" stroke-width="1" x1="492" x2="487" y1="396" y2="396"/>
<line fill="#000000" stroke="#000000" stroke-width="1" x1="482" x2="477" y1="396" y2="396"/>
<line fill="#000000" stroke="#000000" stroke-width="1" x1="472" x2="467" y1="396" y2="396"/>
<line fill="#000000" stroke="#000000" stroke-width="1" x1="462" x2="457" y1="396" y2="396"/>
<line fill="#000000" stroke="#000000" stroke-width="1" x1="452" x2="447" y1="396" y2="396"/>
<line fill="#000000" stroke="#000000" stroke-width="1" x1="442" x2="437" y1="396" y2="396"/>
<line fill="#000000" stroke="#000000" stroke-width="1" x1="432" x2="427" y1="396" y2="396"/>
<line fill="#000000" stroke="#000000" stroke-width="1" x1="422" x2="417" y1="396" y2="396"/>
<line fill="#000000" stroke="#000000" stroke-width="1" x1="412" x2="407" y1="396" y2="396"/>
<line fill="#000000" stroke="#000000" stroke-width="1" x1="402" x2="397" y1="396" y2="396"/>
<line fill="#000000" stroke="#000000" stroke-width="1" x1="392" x2="387" y1="396" y2="396"/>
<line fill="#000000" stroke="#000000" stroke-width="1" x1="382" x2="377" y1="396" y2="396"/>
<line fill="#000000" stroke="#000000" stroke-width="1" x1="384" x2="372" y1="389" y2="396"/>
<line fill="#000000" stroke="#000000" stroke-width="1" x1="384" x2="372" y1="403" y2="396"/>
</svg>
