<?xml version="1.0" encoding="utf-8" ?>
<!DOCTYPE svg PUBLIC "-//W3C//DTD SVG 1.1//EN" "http://www.w3.org/Graphics/SVG/1.1/DTD/svg11.dtd">
<svg height="433" version="1.1" width="1170" xmlns="http://www.w3.org/2000/svg">
<line fill="#000000" stroke="#000000" stroke-width="1" x1="94" x2="94" y1="63" y2="68"/>
<line fill="#000000" stroke="#000000" stroke-width="1" x1="94" x2="94" y1="73" y2="78"/>
<line fill="#000000" stroke="#000000" stroke-width="1" x1="94" x2="94" y1="83" y2="88"/>
<line fill="#000000" stroke="#000000" stroke-width="1" x1="94" x2="94" y1="93" y2="98"/>
<line fill="#000000" stroke="#000000" stroke-width="1" x1="94" x2="94" y1="103" y2="108"/>
<line fill="#000000" stroke="#000000" stroke-width="1" x1="94" x2="94" y1="113" y2="118"/>
<line fill="#000000" stroke="#000000" stroke-width="1" x1="94" x2="94" y1="123" y2="128"/>
<line fill="#000000" stroke="#000000" stroke-width="1" x1="94" x2="94" y1="133" y2="138"/>
<line fill="#000000" stroke="#000000" stroke-width="1" x1="94" x2="94" y1="143" y2="148"/>
<line fill="#000000" stroke="#000000" stroke-width="1" x1="94" x2="94" y1="153" y2="158"/>
<line fill="#000000" stroke="#000000" stroke-width="1" x1="94" x2="94" y1="163" y2="168"/>
<line fill="#000000" stroke="#000000" stroke-width="1" x1="94" x2="94" y1="173" y2="178"/>
<line fill="#000000" stroke="#000000" stroke-width="1" x1="94" x2="94" y1="183" y2="188"/>
<line fill="#000000" stroke="#000000" stroke-width="1" x1="94" x2="94" y1="193" y2="198"/>
<line fill="#000000" stroke="#000000" stroke-width="1" x1="94" x2="94" y1="203" y2="208"/>
<line fill="#000000" stroke="#000000" stroke-width="1" x1="94" x2="94" y1="213" y2="218"/>
<line fill="#000000" stroke="#000000" stroke-width="1" x1="94" x2="94" y1="223" y2="228"/>
<line fill="#000000" stroke="#000000" stroke-width="1" x1="94" x2="94" y1="233" y2="238"/>
<line fill="#000000" stroke="#000000" stroke-width="1" x1="94" x2="94" y1="243" y2="248"/>
<line fill="#000000" stroke="#000000" stroke-width="1" x1="94" x2="94" y1="253" y2="258"/>
<line fill="#000000" stroke="#000000" stroke-width="1" x1="94" x2="94" y1="263" y2="268"/>
<line fill="#000000" stroke="#000000" stroke-width="1" x1="94" x2="94" y1="273" y2="278"/>
<line fill="#000000" stroke="#000000" stroke-width="1" x1="94" x2="94" y1="283" y2="288"/>
<line fill="#000000" stroke="#000000" stroke-width="1" x1="94" x2="94" y1="293" y2="298"/>
<line fill="#000000" stroke="#000000" stroke-width="1" x1="94" x2="94" y1="303" y2="308"/>
<line fill="#000000" stroke="#000000" stroke-width="1" x1="94" x2="94" y1="313" y2="318"/>
<line fill="#000000" stroke="#000000" stroke-width="1" x1="94" x2="94" y1="323" y2="328"/>
<line fill="#000000" stroke="#000000" stroke-width="1" x1="94" x2="94" y1="333" y2="338"/>
<line fill="#000000" stroke="#000000" stroke-width="1" x1="94" x2="94" y1="343" y2="348"/>
<line fill="#000000" stroke="#000000" stroke-width="1" x1="94" x2="94" y1="353" y2="358"/>
<line fill="#000000" stroke="#000000" stroke-width="1" x1="94" x2="94" y1="363" y2="368"/>
<line fill="#000000" stroke="#000000" stroke-width="1" x1="94" x2="94" y1="373" y2="378"/>
<line fill="#000000" stroke="#000000" stroke-width="1" x1="94" x2="94" y1="383" y2="388"/>
<line fill="#000000" stroke="#000000" stroke-width="1" x1="94" x2="94" y1="393" y2="398"/>
<line fill="#000000" stroke="#000000" stroke-width="1" x1="94" x2="94" y1="403" y2="408"/>
<line fill="#000000" stroke="#000000" stroke-width="1" x1="94" x2="94" y1="413" y2="418"/>
<rect fill="#ffffff" height="355" stroke="#ffffff" stroke-width="1" width="20" x="84" y="63"/>
<rect fill="none" height="355" stroke="#000000" stroke-width="1" width="20" x="84" y="63"/>
<rect fill="#ffffff" height="50" stroke="#ffffff" stroke-width="1" width="160" x="14" y="14"/>
<rect fill="none" height="50" stroke="#000000" stroke-width="1" width="160" x="14" y="14"/>
<text font-family="Dialog" font-size="12" x="40" y="28">
/FXFramework:Main</text>
<line fill="#000000" stroke="#000000" stroke-width="1" x1="290" x2="290" y1="63" y2="68"/>
<line fill="#000000" stroke="#000000" stroke-width="1" x1="290" x2="290" y1="73" y2="78"/>
<line fill="#000000" stroke="#000000" stroke-width="1" x1="290" x2="290" y1="83" y2="88"/>
<line fill="#000000" stroke="#000000" stroke-width="1" x1="290" x2="290" y1="93" y2="98"/>
<line fill="#000000" stroke="#000000" stroke-width="1" x1="290" x2="290" y1="103" y2="108"/>
<line fill="#000000" stroke="#000000" stroke-width="1" x1="290" x2="290" y1="113" y2="118"/>
<line fill="#000000" stroke="#000000" stroke-width="1" x1="290" x2="290" y1="123" y2="128"/>
<line fill="#000000" stroke="#000000" stroke-width="1" x1="290" x2="290" y1="133" y2="138"/>
<line fill="#000000" stroke="#000000" stroke-width="1" x1="290" x2="290" y1="143" y2="148"/>
<line fill="#000000" stroke="#000000" stroke-width="1" x1="290" x2="290" y1="153" y2="158"/>
<line fill="#000000" stroke="#000000" stroke-width="1" x1="290" x2="290" y1="163" y2="168"/>
<line fill="#000000" stroke="#000000" stroke-width="1" x1="290" x2="290" y1="173" y2="178"/>
<line fill="#000000" stroke="#000000" stroke-width="1" x1="290" x2="290" y1="183" y2="188"/>
<line fill="#000000" stroke="#000000" stroke-width="1" x1="290" x2="290" y1="193" y2="198"/>
<line fill="#000000" stroke="#000000" stroke-width="1" x1="290" x2="290" y1="203" y2="208"/>
<line fill="#000000" stroke="#000000" stroke-width="1" x1="290" x2="290" y1="213" y2="218"/>
<line fill="#000000" stroke="#000000" stroke-width="1" x1="290" x2="290" y1="223" y2="228"/>
<line fill="#000000" stroke="#000000" stroke-width="1" x1="290" x2="290" y1="233" y2="238"/>
<line fill="#000000" stroke="#000000" stroke-width="1" x1="290" x2="290" y1="243" y2="248"/>
<line fill="#000000" stroke="#000000" stroke-width="1" x1="290" x2="290" y1="253" y2="258"/>
<line fill="#000000" stroke="#000000" stroke-width="1" x1="290" x2="290" y1="263" y2="268"/>
<line fill="#000000" stroke="#000000" stroke-width="1" x1="290" x2="290" y1="273" y2="278"/>
<line fill="#000000" stroke="#000000" stroke-width="1" x1="290" x2="290" y1="283" y2="288"/>
<line fill="#000000" stroke="#000000" stroke-width="1" x1="290" x2="290" y1="293" y2="298"/>
<line fill="#000000" stroke="#000000" stroke-width="1" x1="290" x2="290" y1="303" y2="308"/>
<line fill="#000000" stroke="#000000" stroke-width="1" x1="290" x2="290" y1="313" y2="318"/>
<line fill="#000000" stroke="#000000" stroke-width="1" x1="290" x2="290" y1="323" y2="328"/>
<line fill="#000000" stroke="#000000" stroke-width="1" x1="290" x2="290" y1="333" y2="338"/>
<line fill="#000000" stroke="#000000" stroke-width="1" x1="290" x2="290" y1="343" y2="348"/>
<line fill="#000000" stroke="#000000" stroke-width="1" x1="290" x2="290" y1="353" y2="358"/>
<line fill="#000000" stroke="#000000" stroke-width="1" x1="290" x2="290" y1="363" y2="368"/>
<line fill="#000000" stroke="#000000" stroke-width="1" x1="290" x2="290" y1="373" y2="378"/>
<line fill="#000000" stroke="#000000" stroke-width="1" x1="290" x2="290" y1="383" y2="388"/>
<line fill="#000000" stroke="#000000" stroke-width="1" x1="290" x2="290" y1="393" y2="398"/>
<line fill="#000000" stroke="#000000" stroke-width="1" x1="290" x2="290" y1="403" y2="408"/>
<line fill="#000000" stroke="#000000" stroke-width="1" x1="290" x2="290" y1="413" y2="418"/>
<rect fill="#ffffff" height="307" stroke="#ffffff" stroke-width="1" width="20" x="280" y="102"/>
<rect fill="none" height="307" stroke="#000000" stroke-width="1" width="20" x="280" y="102"/>
<rect fill="#ffffff" height="50" stroke="#ffffff" stroke-width="1" width="168" x="206" y="14"/>
<rect fill="none" height="50" stroke="#000000" stroke-width="1" width="168" x="206" y="14"/>
<text font-family="Dialog" font-size="12" x="210" y="28">
:FXControllerGraphGenerator</text>
<polyline fill="none" points="104,102 280,102" stroke="#000000" stroke-width="1"/>
<polygon fill="#000000" points="280,102 268,109 268,95" stroke="#000000" stroke-width="1"/>
<polygon fill="none" points="280,102 268,109 268,95" stroke="#000000" stroke-width="1"/>
<text font-family="Dialog" font-size="12" x="148" y="97">
Graph generieren</text>
<line fill="#000000" stroke="#000000" stroke-width="1" x1="475" x2="475" y1="63" y2="68"/>
<line fill="#000000" stroke="#000000" stroke-width="1" x1="475" x2="475" y1="73" y2="78"/>
<line fill="#000000" stroke="#000000" stroke-width="1" x1="475" x2="475" y1="83" y2="88"/>
<line fill="#000000" stroke="#000000" stroke-width="1" x1="475" x2="475" y1="93" y2="98"/>
<line fill="#000000" stroke="#000000" stroke-width="1" x1="475" x2="475" y1="103" y2="108"/>
<line fill="#000000" stroke="#000000" stroke-width="1" x1="475" x2="475" y1="113" y2="118"/>
<line fill="#000000" stroke="#000000" stroke-width="1" x1="475" x2="475" y1="123" y2="128"/>
<line fill="#000000" stroke="#000000" stroke-width="1" x1="475" x2="475" y1="133" y2="138"/>
<line fill="#000000" stroke="#000000" stroke-width="1" x1="475" x2="475" y1="143" y2="148"/>
<line fill="#000000" stroke="#000000" stroke-width="1" x1="475" x2="475" y1="153" y2="158"/>
<line fill="#000000" stroke="#000000" stroke-width="1" x1="475" x2="475" y1="163" y2="168"/>
<line fill="#000000" stroke="#000000" stroke-width="1" x1="475" x2="475" y1="173" y2="178"/>
<line fill="#000000" stroke="#000000" stroke-width="1" x1="475" x2="475" y1="183" y2="188"/>
<line fill="#000000" stroke="#000000" stroke-width="1" x1="475" x2="475" y1="193" y2="198"/>
<line fill="#000000" stroke="#000000" stroke-width="1" x1="475" x2="475" y1="203" y2="208"/>
<line fill="#000000" stroke="#000000" stroke-width="1" x1="475" x2="475" y1="213" y2="218"/>
<line fill="#000000" stroke="#000000" stroke-width="1" x1="475" x2="475" y1="223" y2="228"/>
<line fill="#000000" stroke="#000000" stroke-width="1" x1="475" x2="475" y1="233" y2="238"/>
<line fill="#000000" stroke="#000000" stroke-width="1" x1="475" x2="475" y1="243" y2="248"/>
<line fill="#000000" stroke="#000000" stroke-width="1" x1="475" x2="475" y1="253" y2="258"/>
<line fill="#000000" stroke="#000000" stroke-width="1" x1="475" x2="475" y1="263" y2="268"/>
<line fill="#000000" stroke="#000000" stroke-width="1" x1="475" x2="475" y1="273" y2="278"/>
<line fill="#000000" stroke="#000000" stroke-width="1" x1="475" x2="475" y1="283" y2="288"/>
<line fill="#000000" stroke="#000000" stroke-width="1" x1="475" x2="475" y1="293" y2="298"/>
<line fill="#000000" stroke="#000000" stroke-width="1" x1="475" x2="475" y1="303" y2="308"/>
<line fill="#000000" stroke="#000000" stroke-width="1" x1="475" x2="475" y1="313" y2="318"/>
<line fill="#000000" stroke="#000000" stroke-width="1" x1="475" x2="475" y1="323" y2="328"/>
<line fill="#000000" stroke="#000000" stroke-width="1" x1="475" x2="475" y1="333" y2="338"/>
<line fill="#000000" stroke="#000000" stroke-width="1" x1="475" x2="475" y1="343" y2="348"/>
<line fill="#000000" stroke="#000000" stroke-width="1" x1="475" x2="475" y1="353" y2="358"/>
<line fill="#000000" stroke="#000000" stroke-width="1" x1="475" x2="475" y1="363" y2="368"/>
<line fill="#000000" stroke="#000000" stroke-width="1" x1="475" x2="475" y1="373" y2="378"/>
<line fill="#000000" stroke="#000000" stroke-width="1" x1="475" x2="475" y1="383" y2="388"/>
<line fill="#000000" stroke="#000000" stroke-width="1" x1="475" x2="475" y1="393" y2="398"/>
<line fill="#000000" stroke="#000000" stroke-width="1" x1="475" x2="475" y1="403" y2="408"/>
<line fill="#000000" stroke="#000000" stroke-width="1" x1="475" x2="475" y1="413" y2="418"/>
<rect fill="#ffffff" height="152" stroke="#ffffff" stroke-width="1" width="20" x="465" y="174"/>
<rect fill="none" height="152" stroke="#000000" stroke-width="1" width="20" x="465" y="174"/>
<rect fill="#ffffff" height="50" stroke="#ffffff" stroke-width="1" width="154" x="398" y="14"/>
<rect fill="none" height="50" stroke="#000000" stroke-width="1" width="154" x="398" y="14"/>
<text font-family="Dialog" font-size="12" x="402" y="28">
:GeneratorGraphController</text>
<line fill="#000000" stroke="#000000" stroke-width="1" x1="280" x2="275" y1="409" y2="409"/>
<line fill="#000000" stroke="#000000" stroke-width="1" x1="270" x2="265" y1="409" y2="409"/>
<line fill="#000000" stroke="#000000" stroke-width="1" x1="260" x2="255" y1="409" y2="409"/>
<line fill="#000000" stroke="#000000" stroke-width="1" x1="250" x2="245" y1="409" y2="409"/>
<line fill="#000000" stroke="#000000" stroke-width="1" x1="240" x2="235" y1="409" y2="409"/>
<line fill="#000000" stroke="#000000" stroke-width="1" x1="230" x2="225" y1="409" y2="409"/>
<line fill="#000000" stroke="#000000" stroke-width="1" x1="220" x2="215" y1="409" y2="409"/>
<line fill="#000000" stroke="#000000" stroke-width="1" x1="210" x2="205" y1="409" y2="409"/>
<line fill="#000000" stroke="#000000" stroke-width="1" x1="200" x2="195" y1="409" y2="409"/>
<line fill="#000000" stroke="#000000" stroke-width="1" x1="190" x2="185" y1="409" y2="409"/>
<line fill="#000000" stroke="#000000" stroke-width="1" x1="180" x2="175" y1="409" y2="409"/>
<line fill="#000000" stroke="#000000" stroke-width="1" x1="170" x2="165" y1="409" y2="409"/>
<line fill="#000000" stroke="#000000" stroke-width="1" x1="160" x2="155" y1="409" y2="409"/>
<line fill="#000000" stroke="#000000" stroke-width="1" x1="150" x2="145" y1="409" y2="409"/>
<line fill="#000000" stroke="#000000" stroke-width="1" x1="140" x2="135" y1="409" y2="409"/>
<line fill="#000000" stroke="#000000" stroke-width="1" x1="130" x2="125" y1="409" y2="409"/>
<line fill="#000000" stroke="#000000" stroke-width="1" x1="120" x2="115" y1="409" y2="409"/>
<line fill="#000000" stroke="#000000" stroke-width="1" x1="110" x2="105" y1="409" y2="409"/>
<line fill="#000000" stroke="#000000" stroke-width="1" x1="116" x2="104" y1="402" y2="409"/>
<line fill="#000000" stroke="#000000" stroke-width="1" x1="116" x2="104" y1="416" y2="409"/>
<text font-family="Dialog" font-size="12" x="148" y="404">
FXTabController</text>
<polyline fill="none" points="300,174 465,174" stroke="#000000" stroke-width="1"/>
<polygon fill="#000000" points="465,174 453,181 453,167" stroke="#000000" stroke-width="1"/>
<polygon fill="none" points="465,174 453,181 453,167" stroke="#000000" stroke-width="1"/>
<text font-family="Dialog" font-size="12" x="338" y="169">
generate()</text>
<line fill="#000000" stroke="#000000" stroke-width="1" x1="673" x2="673" y1="63" y2="68"/>
<line fill="#000000" stroke="#000000" stroke-width="1" x1="673" x2="673" y1="73" y2="78"/>
<line fill="#000000" stroke="#000000" stroke-width="1" x1="673" x2="673" y1="83" y2="88"/>
<line fill="#000000" stroke="#000000" stroke-width="1" x1="673" x2="673" y1="93" y2="98"/>
<line fill="#000000" stroke="#000000" stroke-width="1" x1="673" x2="673" y1="103" y2="108"/>
<line fill="#000000" stroke="#000000" stroke-width="1" x1="673" x2="673" y1="113" y2="118"/>
<line fill="#000000" stroke="#000000" stroke-width="1" x1="673" x2="673" y1="123" y2="128"/>
<line fill="#000000" stroke="#000000" stroke-width="1" x1="673" x2="673" y1="133" y2="138"/>
<line fill="#000000" stroke="#000000" stroke-width="1" x1="673" x2="673" y1="143" y2="148"/>
<line fill="#000000" stroke="#000000" stroke-width="1" x1="673" x2="673" y1="153" y2="158"/>
<line fill="#000000" stroke="#000000" stroke-width="1" x1="673" x2="673" y1="163" y2="168"/>
<line fill="#000000" stroke="#000000" stroke-width="1" x1="673" x2="673" y1="173" y2="178"/>
<line fill="#000000" stroke="#000000" stroke-width="1" x1="673" x2="673" y1="183" y2="188"/>
<line fill="#000000" stroke="#000000" stroke-width="1" x1="673" x2="673" y1="193" y2="198"/>
<line fill="#000000" stroke="#000000" stroke-width="1" x1="673" x2="673" y1="203" y2="208"/>
<line fill="#000000" stroke="#000000" stroke-width="1" x1="673" x2="673" y1="213" y2="218"/>
<line fill="#000000" stroke="#000000" stroke-width="1" x1="673" x2="673" y1="223" y2="228"/>
<line fill="#000000" stroke="#000000" stroke-width="1" x1="673" x2="673" y1="233" y2="238"/>
<line fill="#000000" stroke="#000000" stroke-width="1" x1="673" x2="673" y1="243" y2="248"/>
<line fill="#000000" stroke="#000000" stroke-width="1" x1="673" x2="673" y1="253" y2="258"/>
<line fill="#000000" stroke="#000000" stroke-width="1" x1="673" x2="673" y1="263" y2="268"/>
<line fill="#000000" stroke="#000000" stroke-width="1" x1="673" x2="673" y1="273" y2="278"/>
<line fill="#000000" stroke="#000000" stroke-width="1" x1="673" x2="673" y1="283" y2="288"/>
<line fill="#000000" stroke="#000000" stroke-width="1" x1="673" x2="673" y1="293" y2="298"/>
<line fill="#000000" stroke="#000000" stroke-width="1" x1="673" x2="673" y1="303" y2="308"/>
<line fill="#000000" stroke="#000000" stroke-width="1" x1="673" x2="673" y1="313" y2="318"/>
<line fill="#000000" stroke="#000000" stroke-width="1" x1="673" x2="673" y1="323" y2="328"/>
<line fill="#000000" stroke="#000000" stroke-width="1" x1="673" x2="673" y1="333" y2="338"/>
<line fill="#000000" stroke="#000000" stroke-width="1" x1="673" x2="673" y1="343" y2="348"/>
<line fill="#000000" stroke="#000000" stroke-width="1" x1="673" x2="673" y1="353" y2="358"/>
<line fill="#000000" stroke="#000000" stroke-width="1" x1="673" x2="673" y1="363" y2="368"/>
<line fill="#000000" stroke="#000000" stroke-width="1" x1="673" x2="673" y1="373" y2="378"/>
<line fill="#000000" stroke="#000000" stroke-width="1" x1="673" x2="673" y1="383" y2="388"/>
<line fill="#000000" stroke="#000000" stroke-width="1" x1="673" x2="673" y1="393" y2="398"/>
<line fill="#000000" stroke="#000000" stroke-width="1" x1="673" x2="673" y1="403" y2="408"/>
<line fill="#000000" stroke="#000000" stroke-width="1" x1="673" x2="673" y1="413" y2="418"/>
<rect fill="#ffffff" height="32" stroke="#ffffff" stroke-width="1" width="20" x="663" y="182"/>
<rect fill="none" height="32" stroke="#000000" stroke-width="1" width="20" x="663" y="182"/>
<rect fill="#ffffff" height="50" stroke="#ffffff" stroke-width="1" width="150" x="598" y="14"/>
<rect fill="none" height="50" stroke="#000000" stroke-width="1" width="150" x="598" y="14"/>
<text font-family="Dialog" font-size="12" x="635" y="28">
:GraphBuilder</text>
<polyline fill="none" points="485,182 663,182" stroke="#000000" stroke-width="1"/>
<polygon fill="#000000" points="663,182 651,189 651,175" stroke="#000000" stroke-width="1"/>
<polygon fill="none" points="663,182 651,189 651,175" stroke="#000000" stroke-width="1"/>
<text font-family="Dialog" font-size="12" x="530" y="177">
generateGraph( )</text>
<line fill="#000000" stroke="#000000" stroke-width="1" x1="663" x2="658" y1="214" y2="214"/>
<line fill="#000000" stroke="#000000" stroke-width="1" x1="653" x2="648" y1="214" y2="214"/>
<line fill="#000000" stroke="#000000" stroke-width="1" x1="643" x2="638" y1="214" y2="214"/>
<line fill="#000000" stroke="#000000" stroke-width="1" x1="633" x2="628" y1="214" y2="214"/>
<line fill="#000000" stroke="#000000" stroke-width="1" x1="623" x2="618" y1="214" y2="214"/>
<line fill="#000000" stroke="#000000" stroke-width="1" x1="613" x2="608" y1="214" y2="214"/>
<line fill="#000000" stroke="#000000" stroke-width="1" x1="603" x2="598" y1="214" y2="214"/>
<line fill="#000000" stroke="#000000" stroke-width="1" x1="593" x2="588" y1="214" y2="214"/>
<line fill="#000000" stroke="#000000" stroke-width="1" x1="583" x2="578" y1="214" y2="214"/>
<line fill="#000000" stroke="#000000" stroke-width="1" x1="573" x2="568" y1="214" y2="214"/>
<line fill="#000000" stroke="#000000" stroke-width="1" x1="563" x2="558" y1="214" y2="214"/>
<line fill="#000000" stroke="#000000" stroke-width="1" x1="553" x2="548" y1="214" y2="214"/>
<line fill="#000000" stroke="#000000" stroke-width="1" x1="543" x2="538" y1="214" y2="214"/>
<line fill="#000000" stroke="#000000" stroke-width="1" x1="533" x2="528" y1="214" y2="214"/>
<line fill="#000000" stroke="#000000" stroke-width="1" x1="523" x2="518" y1="214" y2="214"/>
<line fill="#000000" stroke="#000000" stroke-width="1" x1="513" x2="508" y1="214" y2="214"/>
<line fill="#000000" stroke="#000000" stroke-width="1" x1="503" x2="498" y1="214" y2="214"/>
<line fill="#000000" stroke="#000000" stroke-width="1" x1="493" x2="488" y1="214" y2="214"/>
<line fill="#000000" stroke="#000000" stroke-width="1" x1="497" x2="485" y1="207" y2="214"/>
<line fill="#000000" stroke="#000000" stroke-width="1" x1="497" x2="485" y1="221" y2="214"/>
<text font-family="Dialog" font-size="12" x="530" y="209">
Graph</text>
<line fill="#000000" stroke="#000000" stroke-width="1" x1="465" x2="460" y1="326" y2="326"/>
<line fill="#000000" stroke="#000000" stroke-width="1" x1="455" x2="450" y1="326" y2="326"/>
<line fill="#000000" stroke="#000000" stroke-width="1" x1="445" x2="440" y1="326" y2="326"/>
<line fill="#000000" stroke="#000000" stroke-width="1" x1="435" x2="430" y1="326" y2="326"/>
<line fill="#000000" stroke="#000000" stroke-width="1" x1="425" x2="420" y1="326" y2="326"/>
<line fill="#000000" stroke="#000000" stroke-width="1" x1="415" x2="410" y1="326" y2="326"/>
<line fill="#000000" stroke="#000000" stroke-width="1" x1="405" x2="400" y1="326" y2="326"/>
<line fill="#000000" stroke="#000000" stroke-width="1" x1="395" x2="390" y1="326" y2="326"/>
<line fill="#000000" stroke="#000000" stroke-width="1" x1="385" x2="380" y1="326" y2="326"/>
<line fill="#000000" stroke="#000000" stroke-width="1" x1="375" x2="370" y1="326" y2="326"/>
<line fill="#000000" stroke="#000000" stroke-width="1" x1="365" x2="360" y1="326" y2="326"/>
<line fill="#000000" stroke="#000000" stroke-width="1" x1="355" x2="350" y1="326" y2="326"/>
<line fill="#000000" stroke="#000000" stroke-width="1" x1="345" x2="340" y1="326" y2="326"/>
<line fill="#000000" stroke="#000000" stroke-width="1" x1="335" x2="330" y1="326" y2="326"/>
<line fill="#000000" stroke="#000000" stroke-width="1" x1="325" x2="320" y1="326" y2="326"/>
<line fill="#000000" stroke="#000000" stroke-width="1" x1="315" x2="310" y1="326" y2="326"/>
<line fill="#000000" stroke="#000000" stroke-width="1" x1="305" x2="300" y1="326" y2="326"/>
<line fill="#000000" stroke="#000000" stroke-width="1" x1="312" x2="300" y1="319" y2="326"/>
<line fill="#000000" stroke="#000000" stroke-width="1" x1="312" x2="300" y1="333" y2="326"/>
<text font-family="Dialog" font-size="12" x="339" y="321">
TabController</text>
<line fill="#000000" stroke="#000000" stroke-width="1" x1="880" x2="880" y1="63" y2="68"/>
<line fill="#000000" stroke="#000000" stroke-width="1" x1="880" x2="880" y1="73" y2="78"/>
<line fill="#000000" stroke="#000000" stroke-width="1" x1="880" x2="880" y1="83" y2="88"/>
<line fill="#000000" stroke="#000000" stroke-width="1" x1="880" x2="880" y1="93" y2="98"/>
<line fill="#000000" stroke="#000000" stroke-width="1" x1="880" x2="880" y1="103" y2="108"/>
<line fill="#000000" stroke="#000000" stroke-width="1" x1="880" x2="880" y1="113" y2="118"/>
<line fill="#000000" stroke="#000000" stroke-width="1" x1="880" x2="880" y1="123" y2="128"/>
<line fill="#000000" stroke="#000000" stroke-width="1" x1="880" x2="880" y1="133" y2="138"/>
<line fill="#000000" stroke="#000000" stroke-width="1" x1="880" x2="880" y1="143" y2="148"/>
<line fill="#000000" stroke="#000000" stroke-width="1" x1="880" x2="880" y1="153" y2="158"/>
<line fill="#000000" stroke="#000000" stroke-width="1" x1="880" x2="880" y1="163" y2="168"/>
<line fill="#000000" stroke="#000000" stroke-width="1" x1="880" x2="880" y1="173" y2="178"/>
<line fill="#000000" stroke="#000000" stroke-width="1" x1="880" x2="880" y1="183" y2="188"/>
<line fill="#000000" stroke="#000000" stroke-width="1" x1="880" x2="880" y1="193" y2="198"/>
<line fill="#000000" stroke="#000000" stroke-width="1" x1="880" x2="880" y1="203" y2="208"/>
<line fill="#000000" stroke="#000000" stroke-width="1" x1="880" x2="880" y1="213" y2="218"/>
<line fill="#000000" stroke="#000000" stroke-width="1" x1="880" x2="880" y1="223" y2="228"/>
<line fill="#000000" stroke="#000000" stroke-width="1" x1="880" x2="880" y1="233" y2="238"/>
<line fill="#000000" stroke="#000000" stroke-width="1" x1="880" x2="880" y1="243" y2="248"/>
<line fill="#000000" stroke="#000000" stroke-width="1" x1="880" x2="880" y1="253" y2="258"/>
<line fill="#000000" stroke="#000000" stroke-width="1" x1="880" x2="880" y1="263" y2="268"/>
<line fill="#000000" stroke="#000000" stroke-width="1" x1="880" x2="880" y1="273" y2="278"/>
<line fill="#000000" stroke="#000000" stroke-width="1" x1="880" x2="880" y1="283" y2="288"/>
<line fill="#000000" stroke="#000000" stroke-width="1" x1="880" x2="880" y1="293" y2="298"/>
<line fill="#000000" stroke="#000000" stroke-width="1" x1="880" x2="880" y1="303" y2="308"/>
<line fill="#000000" stroke="#000000" stroke-width="1" x1="880" x2="880" y1="313" y2="318"/>
<line fill="#000000" stroke="#000000" stroke-width="1" x1="880" x2="880" y1="323" y2="328"/>
<line fill="#000000" stroke="#000000" stroke-width="1" x1="880" x2="880" y1="333" y2="338"/>
<line fill="#000000" stroke="#000000" stroke-width="1" x1="880" x2="880" y1="343" y2="348"/>
<line fill="#000000" stroke="#000000" stroke-width="1" x1="880" x2="880" y1="353" y2="358"/>
<line fill="#000000" stroke="#000000" stroke-width="1" x1="880" x2="880" y1="363" y2="368"/>
<line fill="#000000" stroke="#000000" stroke-width="1" x1="880" x2="880" y1="373" y2="378"/>
<line fill="#000000" stroke="#000000" stroke-width="1" x1="880" x2="880" y1="383" y2="388"/>
<line fill="#000000" stroke="#000000" stroke-width="1" x1="880" x2="880" y1="393" y2="398"/>
<line fill="#000000" stroke="#000000" stroke-width="1" x1="880" x2="880" y1="403" y2="408"/>
<line fill="#000000" stroke="#000000" stroke-width="1" x1="880" x2="880" y1="413" y2="418"/>
<rect fill="#ffffff" height="50" stroke="#ffffff" stroke-width="1" width="20" x="870" y="346"/>
<rect fill="none" height="50" stroke="#000000" stroke-width="1" width="20" x="870" y="346"/>
<rect fill="#ffffff" height="50" stroke="#ffffff" stroke-width="1" width="181" x="790" y="14"/>
<rect fill="none" height="50" stroke="#000000" stroke-width="1" width="181" x="790" y="14"/>
<text font-family="Dialog" font-size="12" x="834" y="28">
:FXTabController</text>
<line fill="#000000" stroke="#000000" stroke-width="1" x1="1081" x2="1081" y1="63" y2="68"/>
<line fill="#000000" stroke="#000000" stroke-width="1" x1="1081" x2="1081" y1="73" y2="78"/>
<line fill="#000000" stroke="#000000" stroke-width="1" x1="1081" x2="1081" y1="83" y2="88"/>
<line fill="#000000" stroke="#000000" stroke-width="1" x1="1081" x2="1081" y1="93" y2="98"/>
<line fill="#000000" stroke="#000000" stroke-width="1" x1="1081" x2="1081" y1="103" y2="108"/>
<line fill="#000000" stroke="#000000" stroke-width="1" x1="1081" x2="1081" y1="113" y2="118"/>
<line fill="#000000" stroke="#000000" stroke-width="1" x1="1081" x2="1081" y1="123" y2="128"/>
<line fill="#000000" stroke="#000000" stroke-width="1" x1="1081" x2="1081" y1="133" y2="138"/>
<line fill="#000000" stroke="#000000" stroke-width="1" x1="1081" x2="1081" y1="143" y2="148"/>
<line fill="#000000" stroke="#000000" stroke-width="1" x1="1081" x2="1081" y1="153" y2="158"/>
<line fill="#000000" stroke="#000000" stroke-width="1" x1="1081" x2="1081" y1="163" y2="168"/>
<line fill="#000000" stroke="#000000" stroke-width="1" x1="1081" x2="1081" y1="173" y2="178"/>
<line fill="#000000" stroke="#000000" stroke-width="1" x1="1081" x2="1081" y1="183" y2="188"/>
<line fill="#000000" stroke="#000000" stroke-width="1" x1="1081" x2="1081" y1="193" y2="198"/>
<line fill="#000000" stroke="#000000" stroke-width="1" x1="1081" x2="1081" y1="203" y2="208"/>
<line fill="#000000" stroke="#000000" stroke-width="1" x1="1081" x2="1081" y1="213" y2="218"/>
<line fill="#000000" stroke="#000000" stroke-width="1" x1="1081" x2="1081" y1="223" y2="228"/>
<line fill="#000000" stroke="#000000" stroke-width="1" x1="1081" x2="1081" y1="233" y2="238"/>
<line fill="#000000" stroke="#000000" stroke-width="1" x1="1081" x2="1081" y1="243" y2="248"/>
<line fill="#000000" stroke="#000000" stroke-width="1" x1="1081" x2="1081" y1="253" y2="258"/>
<line fill="#000000" stroke="#000000" stroke-width="1" x1="1081" x2="1081" y1="263" y2="268"/>
<line fill="#000000" stroke="#000000" stroke-width="1" x1="1081" x2="1081" y1="273" y2="278"/>
<line fill="#000000" stroke="#000000" stroke-width="1" x1="1081" x2="1081" y1="283" y2="288"/>
<line fill="#000000" stroke="#000000" stroke-width="1" x1="1081" x2="1081" y1="293" y2="298"/>
<line fill="#000000" stroke="#000000" stroke-width="1" x1="1081" x2="1081" y1="303" y2="308"/>
<line fill="#000000" stroke="#000000" stroke-width="1" x1="1081" x2="1081" y1="313" y2="318"/>
<line fill="#000000" stroke="#000000" stroke-width="1" x1="1081" x2="1081" y1="323" y2="328"/>
<line fill="#000000" stroke="#000000" stroke-width="1" x1="1081" x2="1081" y1="333" y2="338"/>
<line fill="#000000" stroke="#000000" stroke-width="1" x1="1081" x2="1081" y1="343" y2="348"/>
<line fill="#000000" stroke="#000000" stroke-width="1" x1="1081" x2="1081" y1="353" y2="358"/>
<line fill="#000000" stroke="#000000" stroke-width="1" x1="1081" x2="1081" y1="363" y2="368"/>
<line fill="#000000" stroke="#000000" stroke-width="1" x1="1081" x2="1081" y1="373" y2="378"/>
<line fill="#000000" stroke="#000000" stroke-width="1" x1="1081" x2="1081" y1="383" y2="388"/>
<line fill="#000000" stroke="#000000" stroke-width="1" x1="1081" x2="1081" y1="393" y2="398"/>
<line fill="#000000" stroke="#000000" stroke-width="1" x1="1081" x2="1081" y1="403" y2="408"/>
<line fill="#000000" stroke="#000000" stroke-width="1" x1="1081" x2="1081" y1="413" y2="418"/>
<rect fill="#ffffff" height="48" stroke="#ffffff" stroke-width="1" width="20" x="1071" y="246"/>
<rect fill="none" height="48" stroke="#000000" stroke-width="1" width="20" x="1071" y="246"/>
<rect fill="#ffffff" height="50" stroke="#ffffff" stroke-width="1" width="150" x="1006" y="14"/>
<rect fill="none" height="50" stroke="#000000" stroke-width="1" width="150" x="1006" y="14"/>
<text font-family="Dialog" font-size="12" x="1042" y="28">
:TabController</text>
<polyline fill="none" points="485,246 1071,246" stroke="#000000" stroke-width="1"/>
<polygon fill="#000000" points="1071,246 1059,253 1059,239" stroke="#000000" stroke-width="1"/>
<polygon fill="none" points="1071,246 1059,253 1059,239" stroke="#000000" stroke-width="1"/>
<text font-family="Dialog" font-size="12" x="722" y="241">
create</text>
<line fill="#000000" stroke="#000000" stroke-width="1" x1="1071" x2="1066" y1="294" y2="294"/>
<line fill="#000000" stroke="#000000" stroke-width="1" x1="1061" x2="1056" y1="294" y2="294"/>
<line fill="#000000" stroke="#000000" stroke-width="1" x1="1051" x2="1046" y1="294" y2="294"/>
<line fill="#000000" stroke="#000000" stroke-width="1" x1="1041" x2="1036" y1="294" y2="294"/>
<line fill="#000000" stroke="#000000" stroke-width="1" x1="1031" x2="1026" y1="294" y2="294"/>
<line fill="#000000" stroke="#000000" stroke-width="1" x1="1021" x2="1016" y1="294" y2="294"/>
<line fill="#000000" stroke="#000000" stroke-width="1" x1="1011" x2="1006" y1="294" y2="294"/>
<line fill="#000000" stroke="#000000" stroke-width="1" x1="1001" x2="996" y1="294" y2="294"/>
<line fill="#000000" stroke="#000000" stroke-width="1" x1="991" x2="986" y1="294" y2="294"/>
<line fill="#000000" stroke="#000000" stroke-width="1" x1="981" x2="976" y1="294" y2="294"/>
<line fill="#000000" stroke="#000000" stroke-width="1" x1="971" x2="966" y1="294" y2="294"/>
<line fill="#000000" stroke="#000000" stroke-width="1" x1="961" x2="956" y1="294" y2="294"/>
<line fill="#000000" stroke="#000000" stroke-width="1" x1="951" x2="946" y1="294" y2="294"/>
<line fill="#000000" stroke="#000000" stroke-width="1" x1="941" x2="936" y1="294" y2="294"/>
<line fill="#000000" stroke="#000000" stroke-width="1" x1="931" x2="926" y1="294" y2="294"/>
<line fill="#000000" stroke="#000000" stroke-width="1" x1="921" x2="916" y1="294" y2="294"/>
<line fill="#000000" stroke="#000000" stroke-width="1" x1="911" x2="906" y1="294" y2="294"/>
<line fill="#000000" stroke="#000000" stroke-width="1" x1="901" x2="896" y1="294" y2="294"/>
<line fill="#000000" stroke="#000000" stroke-width="1" x1="891" x2="886" y1="294" y2="294"/>
<line fill="#000000" stroke="#000000" stroke-width="1" x1="881" x2="876" y1="294" y2="294"/>
<line fill="#000000" stroke="#000000" stroke-width="1" x1="871" x2="866" y1="294" y2="294"/>
<line fill="#000000" stroke="#000000" stroke-width="1" x1="861" x2="856" y1="294" y2="294"/>
<line fill="#000000" stroke="#000000" stroke-width="1" x1="851" x2="846" y1="294" y2="294"/>
<line fill="#000000" stroke="#000000" stroke-width="1" x1="841" x2="836" y1="294" y2="294"/>
<line fill="#000000" stroke="#000000" stroke-width="1" x1="831" x2="826" y1="294" y2="294"/>
<line fill="#000000" stroke="#000000" stroke-width="1" x1="821" x2="816" y1="294" y2="294"/>
<line fill="#000000" stroke="#000000" stroke-width="1" x1="811" x2="806" y1="294" y2="294"/>
<line fill="#000000" stroke="#000000" stroke-width="1" x1="801" x2="796" y1="294" y2="294"/>
<line fill="#000000" stroke="#000000" stroke-width="1" x1="791" x2="786" y1="294" y2="294"/>
<line fill="#000000" stroke="#000000" stroke-width="1" x1="781" x2="776" y1="294" y2="294"/>
<line fill="#000000" stroke="#000000" stroke-width="1" x1="771" x2="766" y1="294" y2="294"/>
<line fill="#000000" stroke="#000000" stroke-width="1" x1="761" x2="756" y1="294" y2="294"/>
<line fill="#000000" stroke="#000000" stroke-width="1" x1="751" x2="746" y1="294" y2="294"/>
<line fill="#000000" stroke="#000000" stroke-width="1" x1="741" x2="736" y1="294" y2="294"/>
<line fill="#000000" stroke="#000000" stroke-width="1" x1="731" x2="726" y1="294" y2="294"/>
<line fill="#000000" stroke="#000000" stroke-width="1" x1="721" x2="716" y1="294" y2="294"/>
<line fill="#000000" stroke="#000000" stroke-width="1" x1="711" x2="706" y1="294" y2="294"/>
<line fill="#000000" stroke="#000000" stroke-width="1" x1="701" x2="696" y1="294" y2="294"/>
<line fill="#000000" stroke="#000000" stroke-width="1" x1="691" x2="686" y1="294" y2="294"/>
<line fill="#000000" stroke="#000000" stroke-width="1" x1="681" x2="676" y1="294" y2="294"/>
<line fill="#000000" stroke="#000000" stroke-width="1" x1="671" x2="666" y1="294" y2="294"/>
<line fill="#000000" stroke="#000000" stroke-width="1" x1="661" x2="656" y1="294" y2="294"/>
<line fill="#000000" stroke="#000000" stroke-width="1" x1="651" x2="646" y1="294" y2="294"/>
<line fill="#000000" stroke="#000000" stroke-width="1" x1="641" x2="636" y1="294" y2="294"/>
<line fill="#000000" stroke="#000000" stroke-width="1" x1="631" x2="626" y1="294" y2="294"/>
<line fill="#000000" stroke="#000000" stroke-width="1" x1="621" x2="616" y1="294" y2="294"/>
<line fill="#000000" stroke="#000000" stroke-width="1" x1="611" x2="606" y1="294" y2="294"/>
<line fill="#000000" stroke="#000000" stroke-width="1" x1="601" x2="596" y1="294" y2="294"/>
<line fill="#000000" stroke="#000000" stroke-width="1" x1="591" x2="586" y1="294" y2="294"/>
<line fill="#000000" stroke="#000000" stroke-width="1" x1="581" x2="576" y1="294" y2="294"/>
<line fill="#000000" stroke="#000000" stroke-width="1" x1="571" x2="566" y1="294" y2="294"/>
<line fill="#000000" stroke="#000000" stroke-width="1" x1="561" x2="556" y1="294" y2="294"/>
<line fill="#000000" stroke="#000000" stroke-width="1" x1="551" x2="546" y1="294" y2="294"/>
<line fill="#000000" stroke="#000000" stroke-width="1" x1="541" x2="536" y1="294" y2="294"/>
<line fill="#000000" stroke="#000000" stroke-width="1" x1="531" x2="526" y1="294" y2="294"/>
<line fill="#000000" stroke="#000000" stroke-width="1" x1="521" x2="516" y1="294" y2="294"/>
<line fill="#000000" stroke="#000000" stroke-width="1" x1="511" x2="506" y1="294" y2="294"/>
<line fill="#000000" stroke="#000000" stroke-width="1" x1="501" x2="496" y1="294" y2="294"/>
<line fill="#000000" stroke="#000000" stroke-width="1" x1="491" x2="486" y1="294" y2="294"/>
<line fill="#000000" stroke="#000000" stroke-width="1" x1="497" x2="485" y1="287" y2="294"/>
<line fill="#000000" stroke="#000000" stroke-width="1" x1="497" x2="485" y1="301" y2="294"/>
<polyline fill="none" points="300,346 870,346" stroke="#000000" stroke-width="1"/>
<polygon fill="#000000" points="870,346 858,353 858,339" stroke="#000000" stroke-width="1"/>
<polygon fill="none" points="870,346 858,353 858,339" stroke="#000000" stroke-width="1"/>
<text font-family="Dialog" font-size="12" x="541" y="341">
create( tabController)</text>
<line fill="#000000" stroke="#000000" stroke-width="1" x1="870" x2="865" y1="396" y2="396"/>
<line fill="#000000" stroke="#000000" stroke-width="1" x1="860" x2="855" y1="396" y2="396"/>
<line fill="#000000" stroke="#000000" stroke-width="1" x1="850" x2="845" y1="396" y2="396"/>
<line fill="#000000" stroke="#000000" stroke-width="1" x1="840" x2="835" y1="396" y2="396"/>
<line fill="#000000" stroke="#000000" stroke-width="1" x1="830" x2="825" y1="396" y2="396"/>
<line fill="#000000" stroke="#000000" stroke-width="1" x1="820" x2="815" y1="396" y2="396"/>
<line fill="#000000" stroke="#000000" stroke-width="1" x1="810" x2="805" y1="396" y2="396"/>
<line fill="#000000" stroke="#000000" stroke-width="1" x1="800" x2="795" y1="396" y2="396"/>
<line fill="#000000" stroke="#000000" stroke-width="1" x1="790" x2="785" y1="396" y2="396"/>
<line fill="#000000" stroke="#000000" stroke-width="1" x1="780" x2="775" y1="396" y2="396"/>
<line fill="#000000" stroke="#000000" stroke-width="1" x1="770" x2="765" y1="396" y2="396"/>
<line fill="#000000" stroke="#000000" stroke-width="1" x1="760" x2="755" y1="396" y2="396"/>
<line fill="#000000" stroke="#000000" stroke-width="1" x1="750" x2="745" y1="396" y2="396"/>
<line fill="#000000" stroke="#000000" stroke-width="1" x1="740" x2="735" y1="396" y2="396"/>
<line fill="#000000" stroke="#000000" stroke-width="1" x1="730" x2="725" y1="396" y2="396"/>
<line fill="#000000" stroke="#000000" stroke-width="1" x1="720" x2="715" y1="396" y2="396"/>
<line fill="#000000" stroke="#000000" stroke-width="1" x1="710" x2="705" y1="396" y2="396"/>
<line fill="#000000" stroke="#000000" stroke-width="1" x1="700" x2="695" y1="396" y2="396"/>
<line fill="#000000" stroke="#000000" stroke-width="1" x1="690" x2="685" y1="396" y2="396"/>
<line fill="#000000" stroke="#000000" stroke-width="1" x1="680" x2="675" y1="396" y2="396"/>
<line fill="#000000" stroke="#000000" stroke-width="1" x1="670" x2="665" y1="396" y2="396"/>
<line fill="#000000" stroke="#000000" stroke-width="1" x1="660" x2="655" y1="396" y2="396"/>
<line fill="#000000" stroke="#000000" stroke-width="1" x1="650" x2="645" y1="396" y2="396"/>
<line fill="#000000" stroke="#000000" stroke-width="1" x1="640" x2="635" y1="396" y2="396"/>
<line fill="#000000" stroke="#000000" stroke-width="1" x1="630" x2="625" y1="396" y2="396"/>
<line fill="#000000" stroke="#000000" stroke-width="1" x1="620" x2="615" y1="396" y2="396"/>
<line fill="#000000" stroke="#000000" stroke-width="1" x1="610" x2="605" y1="396" y2="396"/>
<line fill="#000000" stroke="#000000" stroke-width="1" x1="600" x2="595" y1="396" y2="396"/>
<line fill="#000000" stroke="#000000" stroke-width="1" x1="590" x2="585" y1="396" y2="396"/>
<line fill="#000000" stroke="#000000" stroke-width="1" x1="580" x2="575" y1="396" y2="396"/>
<line fill="#000000" stroke="#000000" stroke-width="1" x1="570" x2="565" y1="396" y2="396"/>
<line fill="#000000" stroke="#000000" stroke-width="1" x1="560" x2="555" y1="396" y2="396"/>
<line fill="#000000" stroke="#000000" stroke-width="1" x1="550" x2="545" y1="396" y2="396"/>
<line fill="#000000" stroke="#000000" stroke-width="1" x1="540" x2="535" y1="396" y2="396"/>
<line fill="#000000" stroke="#000000" stroke-width="1" x1="530" x2="525" y1="396" y2="396"/>
<line fill="#000000" stroke="#000000" stroke-width="1" x1="520" x2="515" y1="396" y2="396"/>
<line fill="#000000" stroke="#000000" stroke-width="1" x1="510" x2="505" y1="396" y2="396"/>
<line fill="#000000" stroke="#000000" stroke-width="1" x1="500" x2="495" y1="396" y2="396"/>
<line fill="#000000" stroke="#000000" stroke-width="1" x1="490" x2="485" y1="396" y2="396"/>
<line fill="#000000" stroke="#000000" stroke-width="1" x1="480" x2="475" y1="396" y2="396"/>
<line fill="#000000" stroke="#000000" stroke-width="1" x1="470" x2="465" y1="396" y2="396"/>
<line fill="#000000" stroke="#000000" stroke-width="1" x1="460" x2="455" y1="396" y2="396"/>
<line fill="#000000" stroke="#000000" stroke-width="1" x1="450" x2="445" y1="396" y2="396"/>
<line fill="#000000" stroke="#000000" stroke-width="1" x1="440" x2="435" y1="396" y2="396"/>
<line fill="#000000" stroke="#000000" stroke-width="1" x1="430" x2="425" y1="396" y2="396"/>
<line fill="#000000" stroke="#000000" stroke-width="1" x1="420" x2="415" y1="396" y2="396"/>
<line fill="#000000" stroke="#000000" stroke-width="1" x1="410" x2="405" y1="396" y2="396"/>
<line fill="#000000" stroke="#000000" stroke-width="1" x1="400" x2="395" y1="396" y2="396"/>
<line fill="#000000" stroke="#000000" stroke-width="1" x1="390" x2="385" y1="396" y2="396"/>
<line fill="#000000" stroke="#000000" stroke-width="1" x1="380" x2="375" y1="396" y2="396"/>
<line fill="#000000" stroke="#000000" stroke-width="1" x1="370" x2="365" y1="396" y2="396"/>
<line fill="#000000" stroke="#000000" stroke-width="1" x1="360" x2="355" y1="396" y2="396"/>
<line fill="#000000" stroke="#000000" stroke-width="1" x1="350" x2="345" y1="396" y2="396"/>
<line fill="#000000" stroke="#000000" stroke-width="1" x1="340" x2="335" y1="396" y2="396"/>
<line fill="#000000" stroke="#000000" stroke-width="1" x1="330" x2="325" y1="396" y2="396"/>
<line fill="#000000" stroke="#000000" stroke-width="1" x1="320" x2="315" y1="396" y2="396"/>
<line fill="#000000" stroke="#000000" stroke-width="1" x1="310" x2="305" y1="396" y2="396"/>
<line fill="#000000" stroke="#000000" stroke-width="1" x1="312" x2="300" y1="389" y2="396"/>
<line fill="#000000" stroke="#000000" stroke-width="1" x1="312" x2="300" y1="403" y2="396"/>
<text font-family="Dialog" font-size="12" x="541" y="391">
FXTabController</text>
</svg>
