<?xml version="1.0" encoding="utf-8" ?>
<!DOCTYPE svg PUBLIC "-//W3C//DTD SVG 1.1//EN" "http://www.w3.org/Graphics/SVG/1.1/DTD/svg11.dtd">
<svg height="425" version="1.1" width="1266" xmlns="http://www.w3.org/2000/svg">
<line fill="#000000" stroke="#000000" stroke-width="1" x1="94" x2="94" y1="63" y2="68"/>
<line fill="#000000" stroke="#000000" stroke-width="1" x1="94" x2="94" y1="73" y2="78"/>
<line fill="#000000" stroke="#000000" stroke-width="1" x1="94" x2="94" y1="83" y2="88"/>
<line fill="#000000" stroke="#000000" stroke-width="1" x1="94" x2="94" y1="93" y2="98"/>
<line fill="#000000" stroke="#000000" stroke-width="1" x1="94" x2="94" y1="103" y2="108"/>
<line fill="#000000" stroke="#000000" stroke-width="1" x1="94" x2="94" y1="113" y2="118"/>
<line fill="#000000" stroke="#000000" stroke-width="1" x1="94" x2="94" y1="123" y2="128"/>
<line fill="#000000" stroke="#000000" stroke-width="1" x1="94" x2="94" y1="133" y2="138"/>
<line fill="#000000" stroke="#000000" stroke-width="1" x1="94" x2="94" y1="143" y2="148"/>
<line fill="#000000" stroke="#000000" stroke-width="1" x1="94" x2="94" y1="153" y2="158"/>
<line fill="#000000" stroke="#000000" stroke-width="1" x1="94" x2="94" y1="163" y2="168"/>
<line fill="#000000" stroke="#000000" stroke-width="1" x1="94" x2="94" y1="173" y2="178"/>
<line fill="#000000" stroke="#000000" stroke-width="1" x1="94" x2="94" y1="183" y2="188"/>
<line fill="#000000" stroke="#000000" stroke-width="1" x1="94" x2="94" y1="193" y2="198"/>
<line fill="#000000" stroke="#000000" stroke-width="1" x1="94" x2="94" y1="203" y2="208"/>
<line fill="#000000" stroke="#000000" stroke-width="1" x1="94" x2="94" y1="213" y2="218"/>
<line fill="#000000" stroke="#000000" stroke-width="1" x1="94" x2="94" y1="223" y2="228"/>
<line fill="#000000" stroke="#000000" stroke-width="1" x1="94" x2="94" y1="233" y2="238"/>
<line fill="#000000" stroke="#000000" stroke-width="1" x1="94" x2="94" y1="243" y2="248"/>
<line fill="#000000" stroke="#000000" stroke-width="1" x1="94" x2="94" y1="253" y2="258"/>
<line fill="#000000" stroke="#000000" stroke-width="1" x1="94" x2="94" y1="263" y2="268"/>
<line fill="#000000" stroke="#000000" stroke-width="1" x1="94" x2="94" y1="273" y2="278"/>
<line fill="#000000" stroke="#000000" stroke-width="1" x1="94" x2="94" y1="283" y2="288"/>
<line fill="#000000" stroke="#000000" stroke-width="1" x1="94" x2="94" y1="293" y2="298"/>
<line fill="#000000" stroke="#000000" stroke-width="1" x1="94" x2="94" y1="303" y2="308"/>
<line fill="#000000" stroke="#000000" stroke-width="1" x1="94" x2="94" y1="313" y2="318"/>
<line fill="#000000" stroke="#000000" stroke-width="1" x1="94" x2="94" y1="323" y2="328"/>
<line fill="#000000" stroke="#000000" stroke-width="1" x1="94" x2="94" y1="333" y2="338"/>
<line fill="#000000" stroke="#000000" stroke-width="1" x1="94" x2="94" y1="343" y2="348"/>
<line fill="#000000" stroke="#000000" stroke-width="1" x1="94" x2="94" y1="353" y2="358"/>
<line fill="#000000" stroke="#000000" stroke-width="1" x1="94" x2="94" y1="363" y2="368"/>
<line fill="#000000" stroke="#000000" stroke-width="1" x1="94" x2="94" y1="373" y2="378"/>
<line fill="#000000" stroke="#000000" stroke-width="1" x1="94" x2="94" y1="383" y2="388"/>
<line fill="#000000" stroke="#000000" stroke-width="1" x1="94" x2="94" y1="393" y2="398"/>
<line fill="#000000" stroke="#000000" stroke-width="1" x1="94" x2="94" y1="403" y2="408"/>
<rect fill="#ffffff" height="347" stroke="#ffffff" stroke-width="1" width="20" x="84" y="63"/>
<rect fill="none" height="347" stroke="#000000" stroke-width="1" width="20" x="84" y="63"/>
<rect fill="#ffffff" height="50" stroke="#ffffff" stroke-width="1" width="160" x="14" y="14"/>
<rect fill="none" height="50" stroke="#000000" stroke-width="1" width="160" x="14" y="14"/>
<text font-family="Dialog" font-size="12" x="40" y="28">
/FXFramework:Main</text>
<line fill="#000000" stroke="#000000" stroke-width="1" x1="370" x2="370" y1="63" y2="68"/>
<line fill="#000000" stroke="#000000" stroke-width="1" x1="370" x2="370" y1="73" y2="78"/>
<line fill="#000000" stroke="#000000" stroke-width="1" x1="370" x2="370" y1="83" y2="88"/>
<line fill="#000000" stroke="#000000" stroke-width="1" x1="370" x2="370" y1="93" y2="98"/>
<line fill="#000000" stroke="#000000" stroke-width="1" x1="370" x2="370" y1="103" y2="108"/>
<line fill="#000000" stroke="#000000" stroke-width="1" x1="370" x2="370" y1="113" y2="118"/>
<line fill="#000000" stroke="#000000" stroke-width="1" x1="370" x2="370" y1="123" y2="128"/>
<line fill="#000000" stroke="#000000" stroke-width="1" x1="370" x2="370" y1="133" y2="138"/>
<line fill="#000000" stroke="#000000" stroke-width="1" x1="370" x2="370" y1="143" y2="148"/>
<line fill="#000000" stroke="#000000" stroke-width="1" x1="370" x2="370" y1="153" y2="158"/>
<line fill="#000000" stroke="#000000" stroke-width="1" x1="370" x2="370" y1="163" y2="168"/>
<line fill="#000000" stroke="#000000" stroke-width="1" x1="370" x2="370" y1="173" y2="178"/>
<line fill="#000000" stroke="#000000" stroke-width="1" x1="370" x2="370" y1="183" y2="188"/>
<line fill="#000000" stroke="#000000" stroke-width="1" x1="370" x2="370" y1="193" y2="198"/>
<line fill="#000000" stroke="#000000" stroke-width="1" x1="370" x2="370" y1="203" y2="208"/>
<line fill="#000000" stroke="#000000" stroke-width="1" x1="370" x2="370" y1="213" y2="218"/>
<line fill="#000000" stroke="#000000" stroke-width="1" x1="370" x2="370" y1="223" y2="228"/>
<line fill="#000000" stroke="#000000" stroke-width="1" x1="370" x2="370" y1="233" y2="238"/>
<line fill="#000000" stroke="#000000" stroke-width="1" x1="370" x2="370" y1="243" y2="248"/>
<line fill="#000000" stroke="#000000" stroke-width="1" x1="370" x2="370" y1="253" y2="258"/>
<line fill="#000000" stroke="#000000" stroke-width="1" x1="370" x2="370" y1="263" y2="268"/>
<line fill="#000000" stroke="#000000" stroke-width="1" x1="370" x2="370" y1="273" y2="278"/>
<line fill="#000000" stroke="#000000" stroke-width="1" x1="370" x2="370" y1="283" y2="288"/>
<line fill="#000000" stroke="#000000" stroke-width="1" x1="370" x2="370" y1="293" y2="298"/>
<line fill="#000000" stroke="#000000" stroke-width="1" x1="370" x2="370" y1="303" y2="308"/>
<line fill="#000000" stroke="#000000" stroke-width="1" x1="370" x2="370" y1="313" y2="318"/>
<line fill="#000000" stroke="#000000" stroke-width="1" x1="370" x2="370" y1="323" y2="328"/>
<line fill="#000000" stroke="#000000" stroke-width="1" x1="370" x2="370" y1="333" y2="338"/>
<line fill="#000000" stroke="#000000" stroke-width="1" x1="370" x2="370" y1="343" y2="348"/>
<line fill="#000000" stroke="#000000" stroke-width="1" x1="370" x2="370" y1="353" y2="358"/>
<line fill="#000000" stroke="#000000" stroke-width="1" x1="370" x2="370" y1="363" y2="368"/>
<line fill="#000000" stroke="#000000" stroke-width="1" x1="370" x2="370" y1="373" y2="378"/>
<line fill="#000000" stroke="#000000" stroke-width="1" x1="370" x2="370" y1="383" y2="388"/>
<line fill="#000000" stroke="#000000" stroke-width="1" x1="370" x2="370" y1="393" y2="398"/>
<line fill="#000000" stroke="#000000" stroke-width="1" x1="370" x2="370" y1="403" y2="408"/>
<rect fill="#ffffff" height="309" stroke="#ffffff" stroke-width="1" width="20" x="360" y="102"/>
<rect fill="none" height="309" stroke="#000000" stroke-width="1" width="20" x="360" y="102"/>
<rect fill="#ffffff" height="50" stroke="#ffffff" stroke-width="1" width="168" x="286" y="14"/>
<rect fill="none" height="50" stroke="#000000" stroke-width="1" width="168" x="286" y="14"/>
<text font-family="Dialog" font-size="12" x="290" y="28">
:FXControllerGraphGenerator</text>
<polyline fill="none" points="104,102 360,102" stroke="#000000" stroke-width="1"/>
<polygon fill="#000000" points="360,102 348,109 348,95" stroke="#000000" stroke-width="1"/>
<polygon fill="none" points="360,102 348,109 348,95" stroke="#000000" stroke-width="1"/>
<text font-family="Dialog" font-size="12" x="188" y="97">
Graph generieren</text>
<line fill="#000000" stroke="#000000" stroke-width="1" x1="579" x2="579" y1="63" y2="68"/>
<line fill="#000000" stroke="#000000" stroke-width="1" x1="579" x2="579" y1="73" y2="78"/>
<line fill="#000000" stroke="#000000" stroke-width="1" x1="579" x2="579" y1="83" y2="88"/>
<line fill="#000000" stroke="#000000" stroke-width="1" x1="579" x2="579" y1="93" y2="98"/>
<line fill="#000000" stroke="#000000" stroke-width="1" x1="579" x2="579" y1="103" y2="108"/>
<line fill="#000000" stroke="#000000" stroke-width="1" x1="579" x2="579" y1="113" y2="118"/>
<line fill="#000000" stroke="#000000" stroke-width="1" x1="579" x2="579" y1="123" y2="128"/>
<line fill="#000000" stroke="#000000" stroke-width="1" x1="579" x2="579" y1="133" y2="138"/>
<line fill="#000000" stroke="#000000" stroke-width="1" x1="579" x2="579" y1="143" y2="148"/>
<line fill="#000000" stroke="#000000" stroke-width="1" x1="579" x2="579" y1="153" y2="158"/>
<line fill="#000000" stroke="#000000" stroke-width="1" x1="579" x2="579" y1="163" y2="168"/>
<line fill="#000000" stroke="#000000" stroke-width="1" x1="579" x2="579" y1="173" y2="178"/>
<line fill="#000000" stroke="#000000" stroke-width="1" x1="579" x2="579" y1="183" y2="188"/>
<line fill="#000000" stroke="#000000" stroke-width="1" x1="579" x2="579" y1="193" y2="198"/>
<line fill="#000000" stroke="#000000" stroke-width="1" x1="579" x2="579" y1="203" y2="208"/>
<line fill="#000000" stroke="#000000" stroke-width="1" x1="579" x2="579" y1="213" y2="218"/>
<line fill="#000000" stroke="#000000" stroke-width="1" x1="579" x2="579" y1="223" y2="228"/>
<line fill="#000000" stroke="#000000" stroke-width="1" x1="579" x2="579" y1="233" y2="238"/>
<line fill="#000000" stroke="#000000" stroke-width="1" x1="579" x2="579" y1="243" y2="248"/>
<line fill="#000000" stroke="#000000" stroke-width="1" x1="579" x2="579" y1="253" y2="258"/>
<line fill="#000000" stroke="#000000" stroke-width="1" x1="579" x2="579" y1="263" y2="268"/>
<line fill="#000000" stroke="#000000" stroke-width="1" x1="579" x2="579" y1="273" y2="278"/>
<line fill="#000000" stroke="#000000" stroke-width="1" x1="579" x2="579" y1="283" y2="288"/>
<line fill="#000000" stroke="#000000" stroke-width="1" x1="579" x2="579" y1="293" y2="298"/>
<line fill="#000000" stroke="#000000" stroke-width="1" x1="579" x2="579" y1="303" y2="308"/>
<line fill="#000000" stroke="#000000" stroke-width="1" x1="579" x2="579" y1="313" y2="318"/>
<line fill="#000000" stroke="#000000" stroke-width="1" x1="579" x2="579" y1="323" y2="328"/>
<line fill="#000000" stroke="#000000" stroke-width="1" x1="579" x2="579" y1="333" y2="338"/>
<line fill="#000000" stroke="#000000" stroke-width="1" x1="579" x2="579" y1="343" y2="348"/>
<line fill="#000000" stroke="#000000" stroke-width="1" x1="579" x2="579" y1="353" y2="358"/>
<line fill="#000000" stroke="#000000" stroke-width="1" x1="579" x2="579" y1="363" y2="368"/>
<line fill="#000000" stroke="#000000" stroke-width="1" x1="579" x2="579" y1="373" y2="378"/>
<line fill="#000000" stroke="#000000" stroke-width="1" x1="579" x2="579" y1="383" y2="388"/>
<line fill="#000000" stroke="#000000" stroke-width="1" x1="579" x2="579" y1="393" y2="398"/>
<line fill="#000000" stroke="#000000" stroke-width="1" x1="579" x2="579" y1="403" y2="408"/>
<rect fill="#ffffff" height="152" stroke="#ffffff" stroke-width="1" width="20" x="569" y="174"/>
<rect fill="none" height="152" stroke="#000000" stroke-width="1" width="20" x="569" y="174"/>
<rect fill="#ffffff" height="50" stroke="#ffffff" stroke-width="1" width="154" x="502" y="14"/>
<rect fill="none" height="50" stroke="#000000" stroke-width="1" width="154" x="502" y="14"/>
<text font-family="Dialog" font-size="12" x="506" y="28">
:GeneratorGraphController</text>
<line fill="#000000" stroke="#000000" stroke-width="1" x1="360" x2="355" y1="411" y2="411"/>
<line fill="#000000" stroke="#000000" stroke-width="1" x1="350" x2="345" y1="411" y2="411"/>
<line fill="#000000" stroke="#000000" stroke-width="1" x1="340" x2="335" y1="411" y2="411"/>
<line fill="#000000" stroke="#000000" stroke-width="1" x1="330" x2="325" y1="411" y2="411"/>
<line fill="#000000" stroke="#000000" stroke-width="1" x1="320" x2="315" y1="411" y2="411"/>
<line fill="#000000" stroke="#000000" stroke-width="1" x1="310" x2="305" y1="411" y2="411"/>
<line fill="#000000" stroke="#000000" stroke-width="1" x1="300" x2="295" y1="411" y2="411"/>
<line fill="#000000" stroke="#000000" stroke-width="1" x1="290" x2="285" y1="411" y2="411"/>
<line fill="#000000" stroke="#000000" stroke-width="1" x1="280" x2="275" y1="411" y2="411"/>
<line fill="#000000" stroke="#000000" stroke-width="1" x1="270" x2="265" y1="411" y2="411"/>
<line fill="#000000" stroke="#000000" stroke-width="1" x1="260" x2="255" y1="411" y2="411"/>
<line fill="#000000" stroke="#000000" stroke-width="1" x1="250" x2="245" y1="411" y2="411"/>
<line fill="#000000" stroke="#000000" stroke-width="1" x1="240" x2="235" y1="411" y2="411"/>
<line fill="#000000" stroke="#000000" stroke-width="1" x1="230" x2="225" y1="411" y2="411"/>
<line fill="#000000" stroke="#000000" stroke-width="1" x1="220" x2="215" y1="411" y2="411"/>
<line fill="#000000" stroke="#000000" stroke-width="1" x1="210" x2="205" y1="411" y2="411"/>
<line fill="#000000" stroke="#000000" stroke-width="1" x1="200" x2="195" y1="411" y2="411"/>
<line fill="#000000" stroke="#000000" stroke-width="1" x1="190" x2="185" y1="411" y2="411"/>
<line fill="#000000" stroke="#000000" stroke-width="1" x1="180" x2="175" y1="411" y2="411"/>
<line fill="#000000" stroke="#000000" stroke-width="1" x1="170" x2="165" y1="411" y2="411"/>
<line fill="#000000" stroke="#000000" stroke-width="1" x1="160" x2="155" y1="411" y2="411"/>
<line fill="#000000" stroke="#000000" stroke-width="1" x1="150" x2="145" y1="411" y2="411"/>
<line fill="#000000" stroke="#000000" stroke-width="1" x1="140" x2="135" y1="411" y2="411"/>
<line fill="#000000" stroke="#000000" stroke-width="1" x1="130" x2="125" y1="411" y2="411"/>
<line fill="#000000" stroke="#000000" stroke-width="1" x1="120" x2="115" y1="411" y2="411"/>
<line fill="#000000" stroke="#000000" stroke-width="1" x1="110" x2="105" y1="411" y2="411"/>
<line fill="#000000" stroke="#000000" stroke-width="1" x1="116" x2="104" y1="404" y2="411"/>
<line fill="#000000" stroke="#000000" stroke-width="1" x1="116" x2="104" y1="418" y2="411"/>
<text font-family="Dialog" font-size="12" x="188" y="406">
FXTabController</text>
<polyline fill="none" points="380,174 569,174" stroke="#000000" stroke-width="1"/>
<polygon fill="#000000" points="569,174 557,181 557,167" stroke="#000000" stroke-width="1"/>
<polygon fill="none" points="569,174 557,181 557,167" stroke="#000000" stroke-width="1"/>
<text font-family="Dialog" font-size="12" x="430" y="169">
generate()</text>
<line fill="#000000" stroke="#000000" stroke-width="1" x1="793" x2="793" y1="63" y2="68"/>
<line fill="#000000" stroke="#000000" stroke-width="1" x1="793" x2="793" y1="73" y2="78"/>
<line fill="#000000" stroke="#000000" stroke-width="1" x1="793" x2="793" y1="83" y2="88"/>
<line fill="#000000" stroke="#000000" stroke-width="1" x1="793" x2="793" y1="93" y2="98"/>
<line fill="#000000" stroke="#000000" stroke-width="1" x1="793" x2="793" y1="103" y2="108"/>
<line fill="#000000" stroke="#000000" stroke-width="1" x1="793" x2="793" y1="113" y2="118"/>
<line fill="#000000" stroke="#000000" stroke-width="1" x1="793" x2="793" y1="123" y2="128"/>
<line fill="#000000" stroke="#000000" stroke-width="1" x1="793" x2="793" y1="133" y2="138"/>
<line fill="#000000" stroke="#000000" stroke-width="1" x1="793" x2="793" y1="143" y2="148"/>
<line fill="#000000" stroke="#000000" stroke-width="1" x1="793" x2="793" y1="153" y2="158"/>
<line fill="#000000" stroke="#000000" stroke-width="1" x1="793" x2="793" y1="163" y2="168"/>
<line fill="#000000" stroke="#000000" stroke-width="1" x1="793" x2="793" y1="173" y2="178"/>
<line fill="#000000" stroke="#000000" stroke-width="1" x1="793" x2="793" y1="183" y2="188"/>
<line fill="#000000" stroke="#000000" stroke-width="1" x1="793" x2="793" y1="193" y2="198"/>
<line fill="#000000" stroke="#000000" stroke-width="1" x1="793" x2="793" y1="203" y2="208"/>
<line fill="#000000" stroke="#000000" stroke-width="1" x1="793" x2="793" y1="213" y2="218"/>
<line fill="#000000" stroke="#000000" stroke-width="1" x1="793" x2="793" y1="223" y2="228"/>
<line fill="#000000" stroke="#000000" stroke-width="1" x1="793" x2="793" y1="233" y2="238"/>
<line fill="#000000" stroke="#000000" stroke-width="1" x1="793" x2="793" y1="243" y2="248"/>
<line fill="#000000" stroke="#000000" stroke-width="1" x1="793" x2="793" y1="253" y2="258"/>
<line fill="#000000" stroke="#000000" stroke-width="1" x1="793" x2="793" y1="263" y2="268"/>
<line fill="#000000" stroke="#000000" stroke-width="1" x1="793" x2="793" y1="273" y2="278"/>
<line fill="#000000" stroke="#000000" stroke-width="1" x1="793" x2="793" y1="283" y2="288"/>
<line fill="#000000" stroke="#000000" stroke-width="1" x1="793" x2="793" y1="293" y2="298"/>
<line fill="#000000" stroke="#000000" stroke-width="1" x1="793" x2="793" y1="303" y2="308"/>
<line fill="#000000" stroke="#000000" stroke-width="1" x1="793" x2="793" y1="313" y2="318"/>
<line fill="#000000" stroke="#000000" stroke-width="1" x1="793" x2="793" y1="323" y2="328"/>
<line fill="#000000" stroke="#000000" stroke-width="1" x1="793" x2="793" y1="333" y2="338"/>
<line fill="#000000" stroke="#000000" stroke-width="1" x1="793" x2="793" y1="343" y2="348"/>
<line fill="#000000" stroke="#000000" stroke-width="1" x1="793" x2="793" y1="353" y2="358"/>
<line fill="#000000" stroke="#000000" stroke-width="1" x1="793" x2="793" y1="363" y2="368"/>
<line fill="#000000" stroke="#000000" stroke-width="1" x1="793" x2="793" y1="373" y2="378"/>
<line fill="#000000" stroke="#000000" stroke-width="1" x1="793" x2="793" y1="383" y2="388"/>
<line fill="#000000" stroke="#000000" stroke-width="1" x1="793" x2="793" y1="393" y2="398"/>
<line fill="#000000" stroke="#000000" stroke-width="1" x1="793" x2="793" y1="403" y2="408"/>
<rect fill="#ffffff" height="32" stroke="#ffffff" stroke-width="1" width="20" x="783" y="182"/>
<rect fill="none" height="32" stroke="#000000" stroke-width="1" width="20" x="783" y="182"/>
<rect fill="#ffffff" height="50" stroke="#ffffff" stroke-width="1" width="150" x="718" y="14"/>
<rect fill="none" height="50" stroke="#000000" stroke-width="1" width="150" x="718" y="14"/>
<text font-family="Dialog" font-size="12" x="755" y="28">
:GraphBuilder</text>
<polyline fill="none" points="589,182 783,182" stroke="#000000" stroke-width="1"/>
<polygon fill="#000000" points="783,182 771,189 771,175" stroke="#000000" stroke-width="1"/>
<polygon fill="none" points="783,182 771,189 771,175" stroke="#000000" stroke-width="1"/>
<text font-family="Dialog" font-size="12" x="642" y="177">
generateGraph( )</text>
<line fill="#000000" stroke="#000000" stroke-width="1" x1="783" x2="778" y1="214" y2="214"/>
<line fill="#000000" stroke="#000000" stroke-width="1" x1="773" x2="768" y1="214" y2="214"/>
<line fill="#000000" stroke="#000000" stroke-width="1" x1="763" x2="758" y1="214" y2="214"/>
<line fill="#000000" stroke="#000000" stroke-width="1" x1="753" x2="748" y1="214" y2="214"/>
<line fill="#000000" stroke="#000000" stroke-width="1" x1="743" x2="738" y1="214" y2="214"/>
<line fill="#000000" stroke="#000000" stroke-width="1" x1="733" x2="728" y1="214" y2="214"/>
<line fill="#000000" stroke="#000000" stroke-width="1" x1="723" x2="718" y1="214" y2="214"/>
<line fill="#000000" stroke="#000000" stroke-width="1" x1="713" x2="708" y1="214" y2="214"/>
<line fill="#000000" stroke="#000000" stroke-width="1" x1="703" x2="698" y1="214" y2="214"/>
<line fill="#000000" stroke="#000000" stroke-width="1" x1="693" x2="688" y1="214" y2="214"/>
<line fill="#000000" stroke="#000000" stroke-width="1" x1="683" x2="678" y1="214" y2="214"/>
<line fill="#000000" stroke="#000000" stroke-width="1" x1="673" x2="668" y1="214" y2="214"/>
<line fill="#000000" stroke="#000000" stroke-width="1" x1="663" x2="658" y1="214" y2="214"/>
<line fill="#000000" stroke="#000000" stroke-width="1" x1="653" x2="648" y1="214" y2="214"/>
<line fill="#000000" stroke="#000000" stroke-width="1" x1="643" x2="638" y1="214" y2="214"/>
<line fill="#000000" stroke="#000000" stroke-width="1" x1="633" x2="628" y1="214" y2="214"/>
<line fill="#000000" stroke="#000000" stroke-width="1" x1="623" x2="618" y1="214" y2="214"/>
<line fill="#000000" stroke="#000000" stroke-width="1" x1="613" x2="608" y1="214" y2="214"/>
<line fill="#000000" stroke="#000000" stroke-width="1" x1="603" x2="598" y1="214" y2="214"/>
<line fill="#000000" stroke="#000000" stroke-width="1" x1="593" x2="589" y1="214" y2="214"/>
<line fill="#000000" stroke="#000000" stroke-width="1" x1="601" x2="589" y1="207" y2="214"/>
<line fill="#000000" stroke="#000000" stroke-width="1" x1="601" x2="589" y1="221" y2="214"/>
<text font-family="Dialog" font-size="12" x="642" y="209">
Graph</text>
<line fill="#000000" stroke="#000000" stroke-width="1" x1="569" x2="564" y1="326" y2="326"/>
<line fill="#000000" stroke="#000000" stroke-width="1" x1="559" x2="554" y1="326" y2="326"/>
<line fill="#000000" stroke="#000000" stroke-width="1" x1="549" x2="544" y1="326" y2="326"/>
<line fill="#000000" stroke="#000000" stroke-width="1" x1="539" x2="534" y1="326" y2="326"/>
<line fill="#000000" stroke="#000000" stroke-width="1" x1="529" x2="524" y1="326" y2="326"/>
<line fill="#000000" stroke="#000000" stroke-width="1" x1="519" x2="514" y1="326" y2="326"/>
<line fill="#000000" stroke="#000000" stroke-width="1" x1="509" x2="504" y1="326" y2="326"/>
<line fill="#000000" stroke="#000000" stroke-width="1" x1="499" x2="494" y1="326" y2="326"/>
<line fill="#000000" stroke="#000000" stroke-width="1" x1="489" x2="484" y1="326" y2="326"/>
<line fill="#000000" stroke="#000000" stroke-width="1" x1="479" x2="474" y1="326" y2="326"/>
<line fill="#000000" stroke="#000000" stroke-width="1" x1="469" x2="464" y1="326" y2="326"/>
<line fill="#000000" stroke="#000000" stroke-width="1" x1="459" x2="454" y1="326" y2="326"/>
<line fill="#000000" stroke="#000000" stroke-width="1" x1="449" x2="444" y1="326" y2="326"/>
<line fill="#000000" stroke="#000000" stroke-width="1" x1="439" x2="434" y1="326" y2="326"/>
<line fill="#000000" stroke="#000000" stroke-width="1" x1="429" x2="424" y1="326" y2="326"/>
<line fill="#000000" stroke="#000000" stroke-width="1" x1="419" x2="414" y1="326" y2="326"/>
<line fill="#000000" stroke="#000000" stroke-width="1" x1="409" x2="404" y1="326" y2="326"/>
<line fill="#000000" stroke="#000000" stroke-width="1" x1="399" x2="394" y1="326" y2="326"/>
<line fill="#000000" stroke="#000000" stroke-width="1" x1="389" x2="384" y1="326" y2="326"/>
<line fill="#000000" stroke="#000000" stroke-width="1" x1="392" x2="380" y1="319" y2="326"/>
<line fill="#000000" stroke="#000000" stroke-width="1" x1="392" x2="380" y1="333" y2="326"/>
<text font-family="Dialog" font-size="12" x="431" y="321">
TabController</text>
<line fill="#000000" stroke="#000000" stroke-width="1" x1="1000" x2="1000" y1="63" y2="68"/>
<line fill="#000000" stroke="#000000" stroke-width="1" x1="1000" x2="1000" y1="73" y2="78"/>
<line fill="#000000" stroke="#000000" stroke-width="1" x1="1000" x2="1000" y1="83" y2="88"/>
<line fill="#000000" stroke="#000000" stroke-width="1" x1="1000" x2="1000" y1="93" y2="98"/>
<line fill="#000000" stroke="#000000" stroke-width="1" x1="1000" x2="1000" y1="103" y2="108"/>
<line fill="#000000" stroke="#000000" stroke-width="1" x1="1000" x2="1000" y1="113" y2="118"/>
<line fill="#000000" stroke="#000000" stroke-width="1" x1="1000" x2="1000" y1="123" y2="128"/>
<line fill="#000000" stroke="#000000" stroke-width="1" x1="1000" x2="1000" y1="133" y2="138"/>
<line fill="#000000" stroke="#000000" stroke-width="1" x1="1000" x2="1000" y1="143" y2="148"/>
<line fill="#000000" stroke="#000000" stroke-width="1" x1="1000" x2="1000" y1="153" y2="158"/>
<line fill="#000000" stroke="#000000" stroke-width="1" x1="1000" x2="1000" y1="163" y2="168"/>
<line fill="#000000" stroke="#000000" stroke-width="1" x1="1000" x2="1000" y1="173" y2="178"/>
<line fill="#000000" stroke="#000000" stroke-width="1" x1="1000" x2="1000" y1="183" y2="188"/>
<line fill="#000000" stroke="#000000" stroke-width="1" x1="1000" x2="1000" y1="193" y2="198"/>
<line fill="#000000" stroke="#000000" stroke-width="1" x1="1000" x2="1000" y1="203" y2="208"/>
<line fill="#000000" stroke="#000000" stroke-width="1" x1="1000" x2="1000" y1="213" y2="218"/>
<line fill="#000000" stroke="#000000" stroke-width="1" x1="1000" x2="1000" y1="223" y2="228"/>
<line fill="#000000" stroke="#000000" stroke-width="1" x1="1000" x2="1000" y1="233" y2="238"/>
<line fill="#000000" stroke="#000000" stroke-width="1" x1="1000" x2="1000" y1="243" y2="248"/>
<line fill="#000000" stroke="#000000" stroke-width="1" x1="1000" x2="1000" y1="253" y2="258"/>
<line fill="#000000" stroke="#000000" stroke-width="1" x1="1000" x2="1000" y1="263" y2="268"/>
<line fill="#000000" stroke="#000000" stroke-width="1" x1="1000" x2="1000" y1="273" y2="278"/>
<line fill="#000000" stroke="#000000" stroke-width="1" x1="1000" x2="1000" y1="283" y2="288"/>
<line fill="#000000" stroke="#000000" stroke-width="1" x1="1000" x2="1000" y1="293" y2="298"/>
<line fill="#000000" stroke="#000000" stroke-width="1" x1="1000" x2="1000" y1="303" y2="308"/>
<line fill="#000000" stroke="#000000" stroke-width="1" x1="1000" x2="1000" y1="313" y2="318"/>
<line fill="#000000" stroke="#000000" stroke-width="1" x1="1000" x2="1000" y1="323" y2="328"/>
<line fill="#000000" stroke="#000000" stroke-width="1" x1="1000" x2="1000" y1="333" y2="338"/>
<line fill="#000000" stroke="#000000" stroke-width="1" x1="1000" x2="1000" y1="343" y2="348"/>
<line fill="#000000" stroke="#000000" stroke-width="1" x1="1000" x2="1000" y1="353" y2="358"/>
<line fill="#000000" stroke="#000000" stroke-width="1" x1="1000" x2="1000" y1="363" y2="368"/>
<line fill="#000000" stroke="#000000" stroke-width="1" x1="1000" x2="1000" y1="373" y2="378"/>
<line fill="#000000" stroke="#000000" stroke-width="1" x1="1000" x2="1000" y1="383" y2="388"/>
<line fill="#000000" stroke="#000000" stroke-width="1" x1="1000" x2="1000" y1="393" y2="398"/>
<line fill="#000000" stroke="#000000" stroke-width="1" x1="1000" x2="1000" y1="403" y2="408"/>
<rect fill="#ffffff" height="50" stroke="#ffffff" stroke-width="1" width="20" x="990" y="346"/>
<rect fill="none" height="50" stroke="#000000" stroke-width="1" width="20" x="990" y="346"/>
<rect fill="#ffffff" height="50" stroke="#ffffff" stroke-width="1" width="181" x="910" y="14"/>
<rect fill="none" height="50" stroke="#000000" stroke-width="1" width="181" x="910" y="14"/>
<text font-family="Dialog" font-size="12" x="954" y="28">
:FXTabController</text>
<line fill="#000000" stroke="#000000" stroke-width="1" x1="1177" x2="1177" y1="63" y2="68"/>
<line fill="#000000" stroke="#000000" stroke-width="1" x1="1177" x2="1177" y1="73" y2="78"/>
<line fill="#000000" stroke="#000000" stroke-width="1" x1="1177" x2="1177" y1="83" y2="88"/>
<line fill="#000000" stroke="#000000" stroke-width="1" x1="1177" x2="1177" y1="93" y2="98"/>
<line fill="#000000" stroke="#000000" stroke-width="1" x1="1177" x2="1177" y1="103" y2="108"/>
<line fill="#000000" stroke="#000000" stroke-width="1" x1="1177" x2="1177" y1="113" y2="118"/>
<line fill="#000000" stroke="#000000" stroke-width="1" x1="1177" x2="1177" y1="123" y2="128"/>
<line fill="#000000" stroke="#000000" stroke-width="1" x1="1177" x2="1177" y1="133" y2="138"/>
<line fill="#000000" stroke="#000000" stroke-width="1" x1="1177" x2="1177" y1="143" y2="148"/>
<line fill="#000000" stroke="#000000" stroke-width="1" x1="1177" x2="1177" y1="153" y2="158"/>
<line fill="#000000" stroke="#000000" stroke-width="1" x1="1177" x2="1177" y1="163" y2="168"/>
<line fill="#000000" stroke="#000000" stroke-width="1" x1="1177" x2="1177" y1="173" y2="178"/>
<line fill="#000000" stroke="#000000" stroke-width="1" x1="1177" x2="1177" y1="183" y2="188"/>
<line fill="#000000" stroke="#000000" stroke-width="1" x1="1177" x2="1177" y1="193" y2="198"/>
<line fill="#000000" stroke="#000000" stroke-width="1" x1="1177" x2="1177" y1="203" y2="208"/>
<line fill="#000000" stroke="#000000" stroke-width="1" x1="1177" x2="1177" y1="213" y2="218"/>
<line fill="#000000" stroke="#000000" stroke-width="1" x1="1177" x2="1177" y1="223" y2="228"/>
<line fill="#000000" stroke="#000000" stroke-width="1" x1="1177" x2="1177" y1="233" y2="238"/>
<line fill="#000000" stroke="#000000" stroke-width="1" x1="1177" x2="1177" y1="243" y2="248"/>
<line fill="#000000" stroke="#000000" stroke-width="1" x1="1177" x2="1177" y1="253" y2="258"/>
<line fill="#000000" stroke="#000000" stroke-width="1" x1="1177" x2="1177" y1="263" y2="268"/>
<line fill="#000000" stroke="#000000" stroke-width="1" x1="1177" x2="1177" y1="273" y2="278"/>
<line fill="#000000" stroke="#000000" stroke-width="1" x1="1177" x2="1177" y1="283" y2="288"/>
<line fill="#000000" stroke="#000000" stroke-width="1" x1="1177" x2="1177" y1="293" y2="298"/>
<line fill="#000000" stroke="#000000" stroke-width="1" x1="1177" x2="1177" y1="303" y2="308"/>
<line fill="#000000" stroke="#000000" stroke-width="1" x1="1177" x2="1177" y1="313" y2="318"/>
<line fill="#000000" stroke="#000000" stroke-width="1" x1="1177" x2="1177" y1="323" y2="328"/>
<line fill="#000000" stroke="#000000" stroke-width="1" x1="1177" x2="1177" y1="333" y2="338"/>
<line fill="#000000" stroke="#000000" stroke-width="1" x1="1177" x2="1177" y1="343" y2="348"/>
<line fill="#000000" stroke="#000000" stroke-width="1" x1="1177" x2="1177" y1="353" y2="358"/>
<line fill="#000000" stroke="#000000" stroke-width="1" x1="1177" x2="1177" y1="363" y2="368"/>
<line fill="#000000" stroke="#000000" stroke-width="1" x1="1177" x2="1177" y1="373" y2="378"/>
<line fill="#000000" stroke="#000000" stroke-width="1" x1="1177" x2="1177" y1="383" y2="388"/>
<line fill="#000000" stroke="#000000" stroke-width="1" x1="1177" x2="1177" y1="393" y2="398"/>
<line fill="#000000" stroke="#000000" stroke-width="1" x1="1177" x2="1177" y1="403" y2="408"/>
<rect fill="#ffffff" height="48" stroke="#ffffff" stroke-width="1" width="20" x="1167" y="246"/>
<rect fill="none" height="48" stroke="#000000" stroke-width="1" width="20" x="1167" y="246"/>
<rect fill="#ffffff" height="50" stroke="#ffffff" stroke-width="1" width="150" x="1102" y="14"/>
<rect fill="none" height="50" stroke="#000000" stroke-width="1" width="150" x="1102" y="14"/>
<text font-family="Dialog" font-size="12" x="1138" y="28">
:TabController</text>
<polyline fill="none" points="589,246 1167,246" stroke="#000000" stroke-width="1"/>
<polygon fill="#000000" points="1167,246 1155,253 1155,239" stroke="#000000" stroke-width="1"/>
<polygon fill="none" points="1167,246 1155,253 1155,239" stroke="#000000" stroke-width="1"/>
<text font-family="Dialog" font-size="12" x="822" y="241">
create</text>
<line fill="#000000" stroke="#000000" stroke-width="1" x1="1167" x2="1162" y1="294" y2="294"/>
<line fill="#000000" stroke="#000000" stroke-width="1" x1="1157" x2="1152" y1="294" y2="294"/>
<line fill="#000000" stroke="#000000" stroke-width="1" x1="1147" x2="1142" y1="294" y2="294"/>
<line fill="#000000" stroke="#000000" stroke-width="1" x1="1137" x2="1132" y1="294" y2="294"/>
<line fill="#000000" stroke="#000000" stroke-width="1" x1="1127" x2="1122" y1="294" y2="294"/>
<line fill="#000000" stroke="#000000" stroke-width="1" x1="1117" x2="1112" y1="294" y2="294"/>
<line fill="#000000" stroke="#000000" stroke-width="1" x1="1107" x2="1102" y1="294" y2="294"/>
<line fill="#000000" stroke="#000000" stroke-width="1" x1="1097" x2="1092" y1="294" y2="294"/>
<line fill="#000000" stroke="#000000" stroke-width="1" x1="1087" x2="1082" y1="294" y2="294"/>
<line fill="#000000" stroke="#000000" stroke-width="1" x1="1077" x2="1072" y1="294" y2="294"/>
<line fill="#000000" stroke="#000000" stroke-width="1" x1="1067" x2="1062" y1="294" y2="294"/>
<line fill="#000000" stroke="#000000" stroke-width="1" x1="1057" x2="1052" y1="294" y2="294"/>
<line fill="#000000" stroke="#000000" stroke-width="1" x1="1047" x2="1042" y1="294" y2="294"/>
<line fill="#000000" stroke="#000000" stroke-width="1" x1="1037" x2="1032" y1="294" y2="294"/>
<line fill="#000000" stroke="#000000" stroke-width="1" x1="1027" x2="1022" y1="294" y2="294"/>
<line fill="#000000" stroke="#000000" stroke-width="1" x1="1017" x2="1012" y1="294" y2="294"/>
<line fill="#000000" stroke="#000000" stroke-width="1" x1="1007" x2="1002" y1="294" y2="294"/>
<line fill="#000000" stroke="#000000" stroke-width="1" x1="997" x2="992" y1="294" y2="294"/>
<line fill="#000000" stroke="#000000" stroke-width="1" x1="987" x2="982" y1="294" y2="294"/>
<line fill="#000000" stroke="#000000" stroke-width="1" x1="977" x2="972" y1="294" y2="294"/>
<line fill="#000000" stroke="#000000" stroke-width="1" x1="967" x2="962" y1="294" y2="294"/>
<line fill="#000000" stroke="#000000" stroke-width="1" x1="957" x2="952" y1="294" y2="294"/>
<line fill="#000000" stroke="#000000" stroke-width="1" x1="947" x2="942" y1="294" y2="294"/>
<line fill="#000000" stroke="#000000" stroke-width="1" x1="937" x2="932" y1="294" y2="294"/>
<line fill="#000000" stroke="#000000" stroke-width="1" x1="927" x2="922" y1="294" y2="294"/>
<line fill="#000000" stroke="#000000" stroke-width="1" x1="917" x2="912" y1="294" y2="294"/>
<line fill="#000000" stroke="#000000" stroke-width="1" x1="907" x2="902" y1="294" y2="294"/>
<line fill="#000000" stroke="#000000" stroke-width="1" x1="897" x2="892" y1="294" y2="294"/>
<line fill="#000000" stroke="#000000" stroke-width="1" x1="887" x2="882" y1="294" y2="294"/>
<line fill="#000000" stroke="#000000" stroke-width="1" x1="877" x2="872" y1="294" y2="294"/>
<line fill="#000000" stroke="#000000" stroke-width="1" x1="867" x2="862" y1="294" y2="294"/>
<line fill="#000000" stroke="#000000" stroke-width="1" x1="857" x2="852" y1="294" y2="294"/>
<line fill="#000000" stroke="#000000" stroke-width="1" x1="847" x2="842" y1="294" y2="294"/>
<line fill="#000000" stroke="#000000" stroke-width="1" x1="837" x2="832" y1="294" y2="294"/>
<line fill="#000000" stroke="#000000" stroke-width="1" x1="827" x2="822" y1="294" y2="294"/>
<line fill="#000000" stroke="#000000" stroke-width="1" x1="817" x2="812" y1="294" y2="294"/>
<line fill="#000000" stroke="#000000" stroke-width="1" x1="807" x2="802" y1="294" y2="294"/>
<line fill="#000000" stroke="#000000" stroke-width="1" x1="797" x2="792" y1="294" y2="294"/>
<line fill="#000000" stroke="#000000" stroke-width="1" x1="787" x2="782" y1="294" y2="294"/>
<line fill="#000000" stroke="#000000" stroke-width="1" x1="777" x2="772" y1="294" y2="294"/>
<line fill="#000000" stroke="#000000" stroke-width="1" x1="767" x2="762" y1="294" y2="294"/>
<line fill="#000000" stroke="#000000" stroke-width="1" x1="757" x2="752" y1="294" y2="294"/>
<line fill="#000000" stroke="#000000" stroke-width="1" x1="747" x2="742" y1="294" y2="294"/>
<line fill="#000000" stroke="#000000" stroke-width="1" x1="737" x2="732" y1="294" y2="294"/>
<line fill="#000000" stroke="#000000" stroke-width="1" x1="727" x2="722" y1="294" y2="294"/>
<line fill="#000000" stroke="#000000" stroke-width="1" x1="717" x2="712" y1="294" y2="294"/>
<line fill="#000000" stroke="#000000" stroke-width="1" x1="707" x2="702" y1="294" y2="294"/>
<line fill="#000000" stroke="#000000" stroke-width="1" x1="697" x2="692" y1="294" y2="294"/>
<line fill="#000000" stroke="#000000" stroke-width="1" x1="687" x2="682" y1="294" y2="294"/>
<line fill="#000000" stroke="#000000" stroke-width="1" x1="677" x2="672" y1="294" y2="294"/>
<line fill="#000000" stroke="#000000" stroke-width="1" x1="667" x2="662" y1="294" y2="294"/>
<line fill="#000000" stroke="#000000" stroke-width="1" x1="657" x2="652" y1="294" y2="294"/>
<line fill="#000000" stroke="#000000" stroke-width="1" x1="647" x2="642" y1="294" y2="294"/>
<line fill="#000000" stroke="#000000" stroke-width="1" x1="637" x2="632" y1="294" y2="294"/>
<line fill="#000000" stroke="#000000" stroke-width="1" x1="627" x2="622" y1="294" y2="294"/>
<line fill="#000000" stroke="#000000" stroke-width="1" x1="617" x2="612" y1="294" y2="294"/>
<line fill="#000000" stroke="#000000" stroke-width="1" x1="607" x2="602" y1="294" y2="294"/>
<line fill="#000000" stroke="#000000" stroke-width="1" x1="597" x2="592" y1="294" y2="294"/>
<line fill="#000000" stroke="#000000" stroke-width="1" x1="601" x2="589" y1="287" y2="294"/>
<line fill="#000000" stroke="#000000" stroke-width="1" x1="601" x2="589" y1="301" y2="294"/>
<polyline fill="none" points="380,346 990,346" stroke="#000000" stroke-width="1"/>
<polygon fill="#000000" points="990,346 978,353 978,339" stroke="#000000" stroke-width="1"/>
<polygon fill="none" points="990,346 978,353 978,339" stroke="#000000" stroke-width="1"/>
<text font-family="Dialog" font-size="12" x="641" y="341">
create( tabController)</text>
<line fill="#000000" stroke="#000000" stroke-width="1" x1="990" x2="985" y1="396" y2="396"/>
<line fill="#000000" stroke="#000000" stroke-width="1" x1="980" x2="975" y1="396" y2="396"/>
<line fill="#000000" stroke="#000000" stroke-width="1" x1="970" x2="965" y1="396" y2="396"/>
<line fill="#000000" stroke="#000000" stroke-width="1" x1="960" x2="955" y1="396" y2="396"/>
<line fill="#000000" stroke="#000000" stroke-width="1" x1="950" x2="945" y1="396" y2="396"/>
<line fill="#000000" stroke="#000000" stroke-width="1" x1="940" x2="935" y1="396" y2="396"/>
<line fill="#000000" stroke="#000000" stroke-width="1" x1="930" x2="925" y1="396" y2="396"/>
<line fill="#000000" stroke="#000000" stroke-width="1" x1="920" x2="915" y1="396" y2="396"/>
<line fill="#000000" stroke="#000000" stroke-width="1" x1="910" x2="905" y1="396" y2="396"/>
<line fill="#000000" stroke="#000000" stroke-width="1" x1="900" x2="895" y1="396" y2="396"/>
<line fill="#000000" stroke="#000000" stroke-width="1" x1="890" x2="885" y1="396" y2="396"/>
<line fill="#000000" stroke="#000000" stroke-width="1" x1="880" x2="875" y1="396" y2="396"/>
<line fill="#000000" stroke="#000000" stroke-width="1" x1="870" x2="865" y1="396" y2="396"/>
<line fill="#000000" stroke="#000000" stroke-width="1" x1="860" x2="855" y1="396" y2="396"/>
<line fill="#000000" stroke="#000000" stroke-width="1" x1="850" x2="845" y1="396" y2="396"/>
<line fill="#000000" stroke="#000000" stroke-width="1" x1="840" x2="835" y1="396" y2="396"/>
<line fill="#000000" stroke="#000000" stroke-width="1" x1="830" x2="825" y1="396" y2="396"/>
<line fill="#000000" stroke="#000000" stroke-width="1" x1="820" x2="815" y1="396" y2="396"/>
<line fill="#000000" stroke="#000000" stroke-width="1" x1="810" x2="805" y1="396" y2="396"/>
<line fill="#000000" stroke="#000000" stroke-width="1" x1="800" x2="795" y1="396" y2="396"/>
<line fill="#000000" stroke="#000000" stroke-width="1" x1="790" x2="785" y1="396" y2="396"/>
<line fill="#000000" stroke="#000000" stroke-width="1" x1="780" x2="775" y1="396" y2="396"/>
<line fill="#000000" stroke="#000000" stroke-width="1" x1="770" x2="765" y1="396" y2="396"/>
<line fill="#000000" stroke="#000000" stroke-width="1" x1="760" x2="755" y1="396" y2="396"/>
<line fill="#000000" stroke="#000000" stroke-width="1" x1="750" x2="745" y1="396" y2="396"/>
<line fill="#000000" stroke="#000000" stroke-width="1" x1="740" x2="735" y1="396" y2="396"/>
<line fill="#000000" stroke="#000000" stroke-width="1" x1="730" x2="725" y1="396" y2="396"/>
<line fill="#000000" stroke="#000000" stroke-width="1" x1="720" x2="715" y1="396" y2="396"/>
<line fill="#000000" stroke="#000000" stroke-width="1" x1="710" x2="705" y1="396" y2="396"/>
<line fill="#000000" stroke="#000000" stroke-width="1" x1="700" x2="695" y1="396" y2="396"/>
<line fill="#000000" stroke="#000000" stroke-width="1" x1="690" x2="685" y1="396" y2="396"/>
<line fill="#000000" stroke="#000000" stroke-width="1" x1="680" x2="675" y1="396" y2="396"/>
<line fill="#000000" stroke="#000000" stroke-width="1" x1="670" x2="665" y1="396" y2="396"/>
<line fill="#000000" stroke="#000000" stroke-width="1" x1="660" x2="655" y1="396" y2="396"/>
<line fill="#000000" stroke="#000000" stroke-width="1" x1="650" x2="645" y1="396" y2="396"/>
<line fill="#000000" stroke="#000000" stroke-width="1" x1="640" x2="635" y1="396" y2="396"/>
<line fill="#000000" stroke="#000000" stroke-width="1" x1="630" x2="625" y1="396" y2="396"/>
<line fill="#000000" stroke="#000000" stroke-width="1" x1="620" x2="615" y1="396" y2="396"/>
<line fill="#000000" stroke="#000000" stroke-width="1" x1="610" x2="605" y1="396" y2="396"/>
<line fill="#000000" stroke="#000000" stroke-width="1" x1="600" x2="595" y1="396" y2="396"/>
<line fill="#000000" stroke="#000000" stroke-width="1" x1="590" x2="585" y1="396" y2="396"/>
<line fill="#000000" stroke="#000000" stroke-width="1" x1="580" x2="575" y1="396" y2="396"/>
<line fill="#000000" stroke="#000000" stroke-width="1" x1="570" x2="565" y1="396" y2="396"/>
<line fill="#000000" stroke="#000000" stroke-width="1" x1="560" x2="555" y1="396" y2="396"/>
<line fill="#000000" stroke="#000000" stroke-width="1" x1="550" x2="545" y1="396" y2="396"/>
<line fill="#000000" stroke="#000000" stroke-width="1" x1="540" x2="535" y1="396" y2="396"/>
<line fill="#000000" stroke="#000000" stroke-width="1" x1="530" x2="525" y1="396" y2="396"/>
<line fill="#000000" stroke="#000000" stroke-width="1" x1="520" x2="515" y1="396" y2="396"/>
<line fill="#000000" stroke="#000000" stroke-width="1" x1="510" x2="505" y1="396" y2="396"/>
<line fill="#000000" stroke="#000000" stroke-width="1" x1="500" x2="495" y1="396" y2="396"/>
<line fill="#000000" stroke="#000000" stroke-width="1" x1="490" x2="485" y1="396" y2="396"/>
<line fill="#000000" stroke="#000000" stroke-width="1" x1="480" x2="475" y1="396" y2="396"/>
<line fill="#000000" stroke="#000000" stroke-width="1" x1="470" x2="465" y1="396" y2="396"/>
<line fill="#000000" stroke="#000000" stroke-width="1" x1="460" x2="455" y1="396" y2="396"/>
<line fill="#000000" stroke="#000000" stroke-width="1" x1="450" x2="445" y1="396" y2="396"/>
<line fill="#000000" stroke="#000000" stroke-width="1" x1="440" x2="435" y1="396" y2="396"/>
<line fill="#000000" stroke="#000000" stroke-width="1" x1="430" x2="425" y1="396" y2="396"/>
<line fill="#000000" stroke="#000000" stroke-width="1" x1="420" x2="415" y1="396" y2="396"/>
<line fill="#000000" stroke="#000000" stroke-width="1" x1="410" x2="405" y1="396" y2="396"/>
<line fill="#000000" stroke="#000000" stroke-width="1" x1="400" x2="395" y1="396" y2="396"/>
<line fill="#000000" stroke="#000000" stroke-width="1" x1="390" x2="385" y1="396" y2="396"/>
<line fill="#000000" stroke="#000000" stroke-width="1" x1="392" x2="380" y1="389" y2="396"/>
<line fill="#000000" stroke="#000000" stroke-width="1" x1="392" x2="380" y1="403" y2="396"/>
<text font-family="Dialog" font-size="12" x="641" y="391">
FXTabController</text>
</svg>
